%TF.GenerationSoftware,KiCad,Pcbnew,(6.0.5)*%
%TF.CreationDate,2023-02-05T19:42:52+01:00*%
%TF.ProjectId,PicoMemcard-pico,5069636f-4d65-46d6-9361-72642d706963,1.1.2*%
%TF.SameCoordinates,Original*%
%TF.FileFunction,Copper,L2,Bot*%
%TF.FilePolarity,Positive*%
%FSLAX46Y46*%
G04 Gerber Fmt 4.6, Leading zero omitted, Abs format (unit mm)*
G04 Created by KiCad (PCBNEW (6.0.5)) date 2023-02-05 19:42:52*
%MOMM*%
%LPD*%
G01*
G04 APERTURE LIST*
%TA.AperFunction,ComponentPad*%
%ADD10O,1.700000X1.700000*%
%TD*%
%TA.AperFunction,ComponentPad*%
%ADD11R,1.700000X1.700000*%
%TD*%
%TA.AperFunction,SMDPad,CuDef*%
%ADD12O,1.800000X4.000000*%
%TD*%
%TA.AperFunction,SMDPad,CuDef*%
%ADD13R,1.000000X1.700000*%
%TD*%
%TA.AperFunction,ViaPad*%
%ADD14C,0.500000*%
%TD*%
%TA.AperFunction,ViaPad*%
%ADD15C,0.800000*%
%TD*%
%TA.AperFunction,Conductor*%
%ADD16C,0.500000*%
%TD*%
%TA.AperFunction,Conductor*%
%ADD17C,0.254000*%
%TD*%
G04 APERTURE END LIST*
D10*
%TO.P,U1,41,SWCLK*%
%TO.N,unconnected-(U1-Pad41)*%
X151638000Y-77192000D03*
D11*
%TO.P,U1,42,GND*%
%TO.N,GND*%
X149098000Y-77192000D03*
D10*
%TO.P,U1,43,SWDIO*%
%TO.N,unconnected-(U1-Pad43)*%
X146558000Y-77192000D03*
%TD*%
D12*
%TO.P,J2,1,Pin_1*%
%TO.N,+3V3*%
X147150000Y-109948000D03*
%TO.P,J2,2,Pin_2*%
%TO.N,CS*%
X149650000Y-109948000D03*
%TO.P,J2,3,Pin_3*%
%TO.N,MOSI*%
X152150000Y-109948000D03*
%TO.P,J2,4,Pin_4*%
%TO.N,SCK*%
X154650000Y-109948000D03*
%TO.P,J2,5,Pin_5*%
%TO.N,MISO*%
X157150000Y-109948000D03*
%TO.P,J2,6,Pin_6*%
%TO.N,GND*%
X159650000Y-109948000D03*
%TD*%
D13*
%TO.P,1,1,A*%
%TO.N,+3V3*%
X140280000Y-105916000D03*
%TO.P,1,2,B*%
X140280000Y-99316000D03*
%TO.P,1,3,C*%
%TO.N,GP26*%
X136580000Y-105916000D03*
%TO.P,1,4,D*%
X136580000Y-99316000D03*
%TD*%
%TO.P,2,1,A*%
%TO.N,+3V3*%
X140280000Y-115568000D03*
%TO.P,2,2,B*%
X140280000Y-108968000D03*
%TO.P,2,3,C*%
%TO.N,GP27*%
X136580000Y-115568000D03*
%TO.P,2,4,D*%
X136580000Y-108968000D03*
%TD*%
%TO.P,3,1,A*%
%TO.N,+3V3*%
X140280000Y-125220000D03*
%TO.P,3,2,B*%
X140280000Y-118620000D03*
%TO.P,3,3,C*%
%TO.N,GP28*%
X136580000Y-125220000D03*
%TO.P,3,4,D*%
X136580000Y-118620000D03*
%TD*%
D14*
%TO.N,GND*%
X154940000Y-115570000D03*
X152654000Y-80772000D03*
X152654000Y-89662000D03*
X144780000Y-72898000D03*
X154432000Y-124714000D03*
X162560000Y-100330000D03*
X148082000Y-115316000D03*
X136398000Y-73406000D03*
X162560000Y-115824000D03*
X134366000Y-92710000D03*
X134366000Y-80772000D03*
X135128000Y-85598000D03*
X162814000Y-81026000D03*
X142494000Y-110998000D03*
X133604000Y-110490000D03*
X152654000Y-100076000D03*
X134366000Y-124714000D03*
X142494000Y-123698000D03*
X144526000Y-75692000D03*
X134620000Y-119888000D03*
X144018000Y-104648000D03*
D15*
%TO.N,+5V*%
X134620000Y-78232000D03*
X150114000Y-72644000D03*
%TO.N,+3V3*%
X141986000Y-115062000D03*
D14*
%TO.N,CS*%
X132842000Y-87884000D03*
%TO.N,MOSI*%
X141986000Y-89408000D03*
%TO.N,SCK*%
X142240000Y-86106000D03*
%TO.N,MISO*%
X142494000Y-78232000D03*
%TO.N,GP26*%
X135636000Y-102362000D03*
%TO.N,GP27*%
X135128000Y-106172000D03*
%TO.N,GP28*%
X134874000Y-117094000D03*
%TD*%
D16*
%TO.N,+5V*%
X150114000Y-72644000D02*
X148590000Y-74168000D01*
X148590000Y-74168000D02*
X138684000Y-74168000D01*
X138684000Y-74168000D02*
X134620000Y-78232000D01*
%TO.N,+3V3*%
X147150000Y-109948000D02*
X147100000Y-109948000D01*
X140280000Y-108968000D02*
X140280000Y-115568000D01*
X140280000Y-118620000D02*
X140280000Y-115568000D01*
X140280000Y-99316000D02*
X140280000Y-105916000D01*
X140280000Y-108968000D02*
X140280000Y-105916000D01*
X146170000Y-108968000D02*
X147150000Y-109948000D01*
X140280000Y-108968000D02*
X146170000Y-108968000D01*
X147100000Y-109948000D02*
X141986000Y-115062000D01*
X140280000Y-125220000D02*
X140280000Y-118620000D01*
D17*
%TO.N,CS*%
X142240000Y-97282000D02*
X132842000Y-87884000D01*
X142240000Y-100330000D02*
X142240000Y-97282000D01*
X149650000Y-107740000D02*
X142240000Y-100330000D01*
X149650000Y-109948000D02*
X149650000Y-107740000D01*
%TO.N,MOSI*%
X144272000Y-99568000D02*
X144272000Y-91694000D01*
X152150000Y-109948000D02*
X152150000Y-107446000D01*
X152150000Y-107446000D02*
X144272000Y-99568000D01*
X144272000Y-91694000D02*
X141986000Y-89408000D01*
%TO.N,SCK*%
X145542000Y-89408000D02*
X142240000Y-86106000D01*
X154650000Y-107914000D02*
X147066000Y-100330000D01*
X145542000Y-89662000D02*
X145542000Y-89408000D01*
X154650000Y-109948000D02*
X154650000Y-107914000D01*
X145542000Y-98806000D02*
X145542000Y-89662000D01*
X147066000Y-100330000D02*
X145542000Y-98806000D01*
%TO.N,MISO*%
X146812000Y-82550000D02*
X142494000Y-78232000D01*
X146812000Y-83312000D02*
X146812000Y-82550000D01*
X147066000Y-98298000D02*
X146812000Y-98044000D01*
X157150000Y-108382000D02*
X147066000Y-98298000D01*
X157150000Y-109948000D02*
X157150000Y-108382000D01*
X146812000Y-98044000D02*
X146812000Y-83312000D01*
%TO.N,GP26*%
X136580000Y-105916000D02*
X136580000Y-99316000D01*
X136580000Y-105916000D02*
X136580000Y-103306000D01*
X136580000Y-103306000D02*
X135636000Y-102362000D01*
%TO.N,GP27*%
X136580000Y-115568000D02*
X136580000Y-108968000D01*
X136580000Y-108968000D02*
X135128000Y-107516000D01*
X135128000Y-107516000D02*
X135128000Y-106172000D01*
%TO.N,GP28*%
X136400000Y-118620000D02*
X134874000Y-117094000D01*
X136580000Y-118620000D02*
X136400000Y-118620000D01*
X136580000Y-125220000D02*
X136580000Y-118620000D01*
%TD*%
%TA.AperFunction,Conductor*%
%TO.N,GND*%
G36*
X137543613Y-71103617D02*
G01*
X140065889Y-71104990D01*
X140133996Y-71125028D01*
X140180460Y-71178709D01*
X140191818Y-71230989D01*
X140191818Y-71651255D01*
X140190318Y-71670640D01*
X140186627Y-71694346D01*
X140187448Y-71700622D01*
X140187198Y-71700622D01*
X140205653Y-71958656D01*
X140206609Y-71963050D01*
X140259473Y-72206061D01*
X140260642Y-72211437D01*
X140262209Y-72215639D01*
X140262211Y-72215645D01*
X140290065Y-72290323D01*
X140351046Y-72453819D01*
X140353197Y-72457759D01*
X140353201Y-72457767D01*
X140376673Y-72500752D01*
X140475024Y-72680869D01*
X140630053Y-72887963D01*
X140812977Y-73070887D01*
X140816580Y-73073584D01*
X140816581Y-73073585D01*
X140962250Y-73182632D01*
X141004797Y-73239468D01*
X141009861Y-73310284D01*
X140975836Y-73372596D01*
X140913524Y-73406621D01*
X140886741Y-73409500D01*
X138751070Y-73409500D01*
X138732120Y-73408067D01*
X138717885Y-73405901D01*
X138717881Y-73405901D01*
X138710651Y-73404801D01*
X138703359Y-73405394D01*
X138703356Y-73405394D01*
X138657982Y-73409085D01*
X138647767Y-73409500D01*
X138639707Y-73409500D01*
X138636073Y-73409924D01*
X138636067Y-73409924D01*
X138623042Y-73411443D01*
X138611480Y-73412791D01*
X138607132Y-73413221D01*
X138534364Y-73419140D01*
X138527403Y-73421395D01*
X138521463Y-73422582D01*
X138515588Y-73423971D01*
X138508319Y-73424818D01*
X138439670Y-73449736D01*
X138435542Y-73451153D01*
X138373064Y-73471393D01*
X138373062Y-73471394D01*
X138366101Y-73473649D01*
X138359846Y-73477445D01*
X138354372Y-73479951D01*
X138348942Y-73482670D01*
X138342063Y-73485167D01*
X138335943Y-73489180D01*
X138335942Y-73489180D01*
X138281024Y-73525186D01*
X138277320Y-73527523D01*
X138214893Y-73565405D01*
X138206516Y-73572803D01*
X138206492Y-73572776D01*
X138203500Y-73575429D01*
X138200267Y-73578132D01*
X138194148Y-73582144D01*
X138189116Y-73587456D01*
X138140872Y-73638383D01*
X138138494Y-73640825D01*
X134463669Y-77315650D01*
X134400772Y-77349801D01*
X134344176Y-77361831D01*
X134344167Y-77361834D01*
X134337712Y-77363206D01*
X134331682Y-77365891D01*
X134331681Y-77365891D01*
X134169278Y-77438197D01*
X134169276Y-77438198D01*
X134163248Y-77440882D01*
X134157907Y-77444762D01*
X134157906Y-77444763D01*
X134116373Y-77474939D01*
X134008747Y-77553134D01*
X134004326Y-77558044D01*
X134004325Y-77558045D01*
X133886542Y-77688857D01*
X133880960Y-77695056D01*
X133785473Y-77860444D01*
X133726458Y-78042072D01*
X133725768Y-78048633D01*
X133725768Y-78048635D01*
X133718878Y-78114188D01*
X133706496Y-78232000D01*
X133707186Y-78238565D01*
X133720254Y-78362896D01*
X133726458Y-78421928D01*
X133785473Y-78603556D01*
X133880960Y-78768944D01*
X133885378Y-78773851D01*
X133885379Y-78773852D01*
X134004325Y-78905955D01*
X134008747Y-78910866D01*
X134163248Y-79023118D01*
X134169276Y-79025802D01*
X134169278Y-79025803D01*
X134331681Y-79098109D01*
X134337712Y-79100794D01*
X134431113Y-79120647D01*
X134518056Y-79139128D01*
X134518061Y-79139128D01*
X134524513Y-79140500D01*
X134715487Y-79140500D01*
X134721939Y-79139128D01*
X134721944Y-79139128D01*
X134808887Y-79120647D01*
X134902288Y-79100794D01*
X134908319Y-79098109D01*
X135070722Y-79025803D01*
X135070724Y-79025802D01*
X135076752Y-79023118D01*
X135231253Y-78910866D01*
X135235675Y-78905955D01*
X135354621Y-78773852D01*
X135354622Y-78773851D01*
X135359040Y-78768944D01*
X135454527Y-78603556D01*
X135509387Y-78434714D01*
X135540125Y-78384556D01*
X136765986Y-77158695D01*
X145195251Y-77158695D01*
X145195548Y-77163848D01*
X145195548Y-77163851D01*
X145207043Y-77363206D01*
X145208110Y-77381715D01*
X145209247Y-77386761D01*
X145209248Y-77386767D01*
X145227906Y-77469554D01*
X145257222Y-77599639D01*
X145341266Y-77806616D01*
X145457987Y-77997088D01*
X145604250Y-78165938D01*
X145776126Y-78308632D01*
X145969000Y-78421338D01*
X146177692Y-78501030D01*
X146182760Y-78502061D01*
X146182763Y-78502062D01*
X146290017Y-78523883D01*
X146396597Y-78545567D01*
X146401772Y-78545757D01*
X146401774Y-78545757D01*
X146614673Y-78553564D01*
X146614677Y-78553564D01*
X146619837Y-78553753D01*
X146624957Y-78553097D01*
X146624959Y-78553097D01*
X146836288Y-78526025D01*
X146836289Y-78526025D01*
X146841416Y-78525368D01*
X146846366Y-78523883D01*
X147050429Y-78462661D01*
X147050434Y-78462659D01*
X147055384Y-78461174D01*
X147255994Y-78362896D01*
X147437860Y-78233173D01*
X147449732Y-78221343D01*
X147546479Y-78124933D01*
X147608851Y-78091017D01*
X147679658Y-78096205D01*
X147736419Y-78138851D01*
X147753401Y-78169954D01*
X147794676Y-78280054D01*
X147803214Y-78295649D01*
X147879715Y-78397724D01*
X147892276Y-78410285D01*
X147994351Y-78486786D01*
X148009946Y-78495324D01*
X148130394Y-78540478D01*
X148145649Y-78544105D01*
X148196514Y-78549631D01*
X148203328Y-78550000D01*
X148825885Y-78550000D01*
X148841124Y-78545525D01*
X148842329Y-78544135D01*
X148844000Y-78536452D01*
X148844000Y-78531884D01*
X149352000Y-78531884D01*
X149356475Y-78547123D01*
X149357865Y-78548328D01*
X149365548Y-78549999D01*
X149992669Y-78549999D01*
X149999490Y-78549629D01*
X150050352Y-78544105D01*
X150065604Y-78540479D01*
X150186054Y-78495324D01*
X150201649Y-78486786D01*
X150303724Y-78410285D01*
X150316285Y-78397724D01*
X150392786Y-78295649D01*
X150401324Y-78280054D01*
X150442225Y-78170952D01*
X150484867Y-78114188D01*
X150551428Y-78089488D01*
X150620777Y-78104696D01*
X150655444Y-78132684D01*
X150680865Y-78162031D01*
X150680869Y-78162035D01*
X150684250Y-78165938D01*
X150856126Y-78308632D01*
X151049000Y-78421338D01*
X151257692Y-78501030D01*
X151262760Y-78502061D01*
X151262763Y-78502062D01*
X151370017Y-78523883D01*
X151476597Y-78545567D01*
X151481772Y-78545757D01*
X151481774Y-78545757D01*
X151694673Y-78553564D01*
X151694677Y-78553564D01*
X151699837Y-78553753D01*
X151704957Y-78553097D01*
X151704959Y-78553097D01*
X151916288Y-78526025D01*
X151916289Y-78526025D01*
X151921416Y-78525368D01*
X151926366Y-78523883D01*
X152130429Y-78462661D01*
X152130434Y-78462659D01*
X152135384Y-78461174D01*
X152335994Y-78362896D01*
X152517860Y-78233173D01*
X152529732Y-78221343D01*
X152626479Y-78124933D01*
X152676096Y-78075489D01*
X152695393Y-78048635D01*
X152803435Y-77898277D01*
X152806453Y-77894077D01*
X152810106Y-77886687D01*
X152903136Y-77698453D01*
X152903137Y-77698451D01*
X152905430Y-77693811D01*
X152949351Y-77549251D01*
X152968865Y-77485023D01*
X152968865Y-77485021D01*
X152970370Y-77480069D01*
X152999529Y-77258590D01*
X153001156Y-77192000D01*
X152982852Y-76969361D01*
X152928431Y-76752702D01*
X152839354Y-76547840D01*
X152718014Y-76360277D01*
X152567670Y-76195051D01*
X152563619Y-76191852D01*
X152563615Y-76191848D01*
X152396414Y-76059800D01*
X152396410Y-76059798D01*
X152392359Y-76056598D01*
X152196789Y-75948638D01*
X152191920Y-75946914D01*
X152191916Y-75946912D01*
X151991087Y-75875795D01*
X151991083Y-75875794D01*
X151986212Y-75874069D01*
X151981119Y-75873162D01*
X151981116Y-75873161D01*
X151771373Y-75835800D01*
X151771367Y-75835799D01*
X151766284Y-75834894D01*
X151692452Y-75833992D01*
X151548081Y-75832228D01*
X151548079Y-75832228D01*
X151542911Y-75832165D01*
X151322091Y-75865955D01*
X151109756Y-75935357D01*
X150911607Y-76038507D01*
X150907474Y-76041610D01*
X150907471Y-76041612D01*
X150737100Y-76169530D01*
X150732965Y-76172635D01*
X150729393Y-76176373D01*
X150651898Y-76257466D01*
X150590374Y-76292895D01*
X150519462Y-76289438D01*
X150461676Y-76248192D01*
X150442823Y-76214644D01*
X150401324Y-76103946D01*
X150392786Y-76088351D01*
X150316285Y-75986276D01*
X150303724Y-75973715D01*
X150201649Y-75897214D01*
X150186054Y-75888676D01*
X150065606Y-75843522D01*
X150050351Y-75839895D01*
X149999486Y-75834369D01*
X149992672Y-75834000D01*
X149370115Y-75834000D01*
X149354876Y-75838475D01*
X149353671Y-75839865D01*
X149352000Y-75847548D01*
X149352000Y-78531884D01*
X148844000Y-78531884D01*
X148844000Y-75852116D01*
X148839525Y-75836877D01*
X148838135Y-75835672D01*
X148830452Y-75834001D01*
X148203331Y-75834001D01*
X148196510Y-75834371D01*
X148145648Y-75839895D01*
X148130396Y-75843521D01*
X148009946Y-75888676D01*
X147994351Y-75897214D01*
X147892276Y-75973715D01*
X147879715Y-75986276D01*
X147803214Y-76088351D01*
X147794676Y-76103946D01*
X147753297Y-76214322D01*
X147710655Y-76271087D01*
X147644093Y-76295786D01*
X147574744Y-76280578D01*
X147542121Y-76254891D01*
X147491151Y-76198876D01*
X147491145Y-76198870D01*
X147487670Y-76195051D01*
X147483619Y-76191852D01*
X147483615Y-76191848D01*
X147316414Y-76059800D01*
X147316410Y-76059798D01*
X147312359Y-76056598D01*
X147116789Y-75948638D01*
X147111920Y-75946914D01*
X147111916Y-75946912D01*
X146911087Y-75875795D01*
X146911083Y-75875794D01*
X146906212Y-75874069D01*
X146901119Y-75873162D01*
X146901116Y-75873161D01*
X146691373Y-75835800D01*
X146691367Y-75835799D01*
X146686284Y-75834894D01*
X146612452Y-75833992D01*
X146468081Y-75832228D01*
X146468079Y-75832228D01*
X146462911Y-75832165D01*
X146242091Y-75865955D01*
X146029756Y-75935357D01*
X145831607Y-76038507D01*
X145827474Y-76041610D01*
X145827471Y-76041612D01*
X145657100Y-76169530D01*
X145652965Y-76172635D01*
X145498629Y-76334138D01*
X145372743Y-76518680D01*
X145278688Y-76721305D01*
X145218989Y-76936570D01*
X145195251Y-77158695D01*
X136765986Y-77158695D01*
X138961276Y-74963405D01*
X139023588Y-74929379D01*
X139050371Y-74926500D01*
X148522930Y-74926500D01*
X148541880Y-74927933D01*
X148556115Y-74930099D01*
X148556119Y-74930099D01*
X148563349Y-74931199D01*
X148570641Y-74930606D01*
X148570644Y-74930606D01*
X148616018Y-74926915D01*
X148626233Y-74926500D01*
X148634293Y-74926500D01*
X148647583Y-74924951D01*
X148662507Y-74923211D01*
X148666882Y-74922778D01*
X148732339Y-74917454D01*
X148732342Y-74917453D01*
X148739637Y-74916860D01*
X148746601Y-74914604D01*
X148752560Y-74913413D01*
X148758415Y-74912029D01*
X148765681Y-74911182D01*
X148834327Y-74886265D01*
X148838455Y-74884848D01*
X148900936Y-74864607D01*
X148900938Y-74864606D01*
X148907899Y-74862351D01*
X148914154Y-74858555D01*
X148919628Y-74856049D01*
X148925058Y-74853330D01*
X148931937Y-74850833D01*
X148992976Y-74810814D01*
X148996680Y-74808477D01*
X149059107Y-74770595D01*
X149067484Y-74763197D01*
X149067508Y-74763224D01*
X149070500Y-74760571D01*
X149073733Y-74757868D01*
X149079852Y-74753856D01*
X149133128Y-74697617D01*
X149135506Y-74695175D01*
X150270331Y-73560350D01*
X150333228Y-73526199D01*
X150389824Y-73514169D01*
X150389833Y-73514166D01*
X150396288Y-73512794D01*
X150436331Y-73494966D01*
X150564722Y-73437803D01*
X150564724Y-73437802D01*
X150570752Y-73435118D01*
X150587064Y-73423267D01*
X150686114Y-73351302D01*
X150725253Y-73322866D01*
X150814979Y-73223215D01*
X150848621Y-73185852D01*
X150848622Y-73185851D01*
X150853040Y-73180944D01*
X150906366Y-73088581D01*
X150957746Y-73039590D01*
X151027459Y-73026153D01*
X151093371Y-73052540D01*
X151104578Y-73062488D01*
X151112977Y-73070887D01*
X151320071Y-73225916D01*
X151324025Y-73228075D01*
X151543173Y-73347739D01*
X151543181Y-73347743D01*
X151547121Y-73349894D01*
X151551333Y-73351465D01*
X151785295Y-73438729D01*
X151785301Y-73438731D01*
X151789503Y-73440298D01*
X151793889Y-73441252D01*
X151793892Y-73441253D01*
X151932445Y-73471393D01*
X152042284Y-73495287D01*
X152300318Y-73513742D01*
X152304806Y-73513421D01*
X152305967Y-73513338D01*
X152558352Y-73495287D01*
X152668191Y-73471393D01*
X152806744Y-73441253D01*
X152806747Y-73441252D01*
X152811133Y-73440298D01*
X152815335Y-73438731D01*
X152815341Y-73438729D01*
X153049303Y-73351465D01*
X153053515Y-73349894D01*
X153057455Y-73347743D01*
X153057463Y-73347739D01*
X153276611Y-73228075D01*
X153280565Y-73225916D01*
X153487659Y-73070887D01*
X153670583Y-72887963D01*
X153825612Y-72680869D01*
X153923963Y-72500752D01*
X153947435Y-72457767D01*
X153947439Y-72457759D01*
X153949590Y-72453819D01*
X154010571Y-72290323D01*
X154038425Y-72215645D01*
X154038427Y-72215639D01*
X154039994Y-72211437D01*
X154041164Y-72206061D01*
X154094027Y-71963050D01*
X154094983Y-71958656D01*
X154111110Y-71733166D01*
X154112536Y-71721251D01*
X154113087Y-71717977D01*
X154113088Y-71717963D01*
X154113894Y-71713174D01*
X154114047Y-71700622D01*
X154113358Y-71695810D01*
X154113357Y-71695796D01*
X154110087Y-71672965D01*
X154108814Y-71655113D01*
X154108776Y-71238714D01*
X154128772Y-71170592D01*
X154182423Y-71124094D01*
X154234845Y-71112703D01*
X159385594Y-71115506D01*
X160665889Y-71116203D01*
X160733996Y-71136242D01*
X160780460Y-71189923D01*
X160791818Y-71242203D01*
X160791818Y-71647475D01*
X160790079Y-71668339D01*
X160786738Y-71688237D01*
X160786589Y-71700789D01*
X160787281Y-71705611D01*
X160787350Y-71706665D01*
X160788055Y-71713226D01*
X160793848Y-71793848D01*
X160805367Y-71954168D01*
X160805701Y-71958819D01*
X160860773Y-72211584D01*
X160890170Y-72290323D01*
X160949639Y-72449607D01*
X160951256Y-72453939D01*
X161075309Y-72680950D01*
X161078006Y-72684550D01*
X161227682Y-72884359D01*
X161230406Y-72887996D01*
X161413390Y-73070862D01*
X161416994Y-73073558D01*
X161616931Y-73223128D01*
X161616937Y-73223132D01*
X161620537Y-73225825D01*
X161624488Y-73227981D01*
X161624490Y-73227982D01*
X161645541Y-73239468D01*
X161847628Y-73349731D01*
X161851843Y-73351302D01*
X161851844Y-73351302D01*
X162085824Y-73438487D01*
X162085828Y-73438488D01*
X162090041Y-73440058D01*
X162342842Y-73494966D01*
X162347328Y-73495285D01*
X162347332Y-73495286D01*
X162449330Y-73502548D01*
X162600884Y-73513338D01*
X162605366Y-73513016D01*
X162605373Y-73513016D01*
X162854425Y-73495123D01*
X162854432Y-73495122D01*
X162858914Y-73494800D01*
X163111680Y-73439729D01*
X163291496Y-73372595D01*
X163349820Y-73350820D01*
X163349824Y-73350818D01*
X163354035Y-73349246D01*
X163581047Y-73225194D01*
X163788093Y-73070097D01*
X163970959Y-72887113D01*
X164125923Y-72679967D01*
X164249830Y-72452876D01*
X164274719Y-72386081D01*
X164310400Y-72290323D01*
X164352929Y-72233474D01*
X164419441Y-72208642D01*
X164428478Y-72208318D01*
X166565484Y-72208458D01*
X166633604Y-72228465D01*
X166680093Y-72282123D01*
X166691476Y-72334463D01*
X166690303Y-104948285D01*
X166689603Y-124428868D01*
X166689593Y-124695436D01*
X166669588Y-124763556D01*
X166615931Y-124810047D01*
X166545657Y-124820148D01*
X166481077Y-124790652D01*
X166442696Y-124730925D01*
X166439804Y-124718073D01*
X166439609Y-124715597D01*
X166380505Y-124469409D01*
X166378611Y-124464836D01*
X166285511Y-124240072D01*
X166285509Y-124240068D01*
X166283616Y-124235498D01*
X166151328Y-124019624D01*
X165986898Y-123827102D01*
X165794376Y-123662672D01*
X165578502Y-123530384D01*
X165573932Y-123528491D01*
X165573928Y-123528489D01*
X165349164Y-123435389D01*
X165349162Y-123435388D01*
X165344591Y-123433495D01*
X165259968Y-123413179D01*
X165103216Y-123375546D01*
X165103210Y-123375545D01*
X165098403Y-123374391D01*
X164998584Y-123366535D01*
X164911655Y-123359693D01*
X164911648Y-123359693D01*
X164909199Y-123359500D01*
X164782801Y-123359500D01*
X164780352Y-123359693D01*
X164780345Y-123359693D01*
X164693416Y-123366535D01*
X164593597Y-123374391D01*
X164588790Y-123375545D01*
X164588784Y-123375546D01*
X164432032Y-123413179D01*
X164347409Y-123433495D01*
X164342838Y-123435388D01*
X164342836Y-123435389D01*
X164118072Y-123528489D01*
X164118068Y-123528491D01*
X164113498Y-123530384D01*
X163897624Y-123662672D01*
X163705102Y-123827102D01*
X163540672Y-124019624D01*
X163408384Y-124235498D01*
X163406491Y-124240068D01*
X163406489Y-124240072D01*
X163313389Y-124464836D01*
X163311495Y-124469409D01*
X163252391Y-124715597D01*
X163232526Y-124968000D01*
X163252391Y-125220403D01*
X163253545Y-125225210D01*
X163253546Y-125225216D01*
X163291179Y-125381968D01*
X163311495Y-125466591D01*
X163313388Y-125471162D01*
X163313389Y-125471164D01*
X163369791Y-125607329D01*
X163408384Y-125700502D01*
X163540672Y-125916376D01*
X163705102Y-126108898D01*
X163897624Y-126273328D01*
X164113498Y-126405616D01*
X164118068Y-126407509D01*
X164118072Y-126407511D01*
X164347409Y-126502505D01*
X164346675Y-126504276D01*
X164398543Y-126539749D01*
X164426174Y-126605148D01*
X164414061Y-126675103D01*
X164366051Y-126727406D01*
X164300994Y-126745500D01*
X151976118Y-126745500D01*
X151907997Y-126725498D01*
X151861504Y-126671842D01*
X151851400Y-126601568D01*
X151880894Y-126536988D01*
X151940620Y-126498604D01*
X151960108Y-126494521D01*
X151961404Y-126494355D01*
X152116847Y-126474442D01*
X152121795Y-126472957D01*
X152121802Y-126472956D01*
X152333747Y-126409369D01*
X152338690Y-126407886D01*
X152343324Y-126405616D01*
X152542049Y-126308262D01*
X152542052Y-126308260D01*
X152546684Y-126305991D01*
X152735243Y-126171494D01*
X152899303Y-126008005D01*
X153034458Y-125819917D01*
X153081641Y-125724450D01*
X153134784Y-125616922D01*
X153134785Y-125616920D01*
X153137078Y-125612280D01*
X153204408Y-125390671D01*
X153234640Y-125161041D01*
X153236327Y-125092000D01*
X153225727Y-124963070D01*
X153217773Y-124866318D01*
X153217772Y-124866312D01*
X153217349Y-124861167D01*
X153182024Y-124720531D01*
X153162184Y-124641544D01*
X153162183Y-124641540D01*
X153160925Y-124636533D01*
X153158866Y-124631797D01*
X153070630Y-124428868D01*
X153070628Y-124428865D01*
X153068570Y-124424131D01*
X152942764Y-124229665D01*
X152800805Y-124073653D01*
X152769754Y-124009810D01*
X152768000Y-123988856D01*
X152768000Y-122276761D01*
X152768479Y-122265780D01*
X152785828Y-122067475D01*
X152786307Y-122062000D01*
X152768479Y-121858220D01*
X152768000Y-121847239D01*
X152768000Y-121234000D01*
X152526977Y-121234000D01*
X152458856Y-121213998D01*
X152437882Y-121197095D01*
X152335038Y-121094251D01*
X152154654Y-120967944D01*
X151955076Y-120874880D01*
X151742371Y-120817885D01*
X151523000Y-120798693D01*
X151303629Y-120817885D01*
X151090924Y-120874880D01*
X150997562Y-120918415D01*
X150896334Y-120965618D01*
X150896329Y-120965621D01*
X150891347Y-120967944D01*
X150886840Y-120971100D01*
X150886838Y-120971101D01*
X150715473Y-121091092D01*
X150715470Y-121091094D01*
X150710962Y-121094251D01*
X150608118Y-121197095D01*
X150545806Y-121231121D01*
X150519023Y-121234000D01*
X147676977Y-121234000D01*
X147608856Y-121213998D01*
X147587882Y-121197095D01*
X147485038Y-121094251D01*
X147304654Y-120967944D01*
X147105076Y-120874880D01*
X146892371Y-120817885D01*
X146673000Y-120798693D01*
X146453629Y-120817885D01*
X146240924Y-120874880D01*
X146147562Y-120918415D01*
X146046334Y-120965618D01*
X146046329Y-120965621D01*
X146041347Y-120967944D01*
X146036840Y-120971100D01*
X146036838Y-120971101D01*
X145865473Y-121091092D01*
X145865470Y-121091094D01*
X145860962Y-121094251D01*
X145758118Y-121197095D01*
X145695806Y-121231121D01*
X145669023Y-121234000D01*
X145168000Y-121234000D01*
X145168000Y-124320008D01*
X145148151Y-124384319D01*
X145149586Y-124385134D01*
X145147035Y-124389625D01*
X145144119Y-124393899D01*
X145046602Y-124603981D01*
X144984707Y-124827169D01*
X144960095Y-125057469D01*
X144960392Y-125062622D01*
X144960392Y-125062625D01*
X144966067Y-125161041D01*
X144973427Y-125288697D01*
X144974564Y-125293743D01*
X144974565Y-125293749D01*
X145006741Y-125436523D01*
X145024346Y-125514642D01*
X145026288Y-125519424D01*
X145026289Y-125519428D01*
X145099816Y-125700502D01*
X145111484Y-125729237D01*
X145114183Y-125733641D01*
X145149433Y-125791164D01*
X145168000Y-125856999D01*
X145168000Y-126034000D01*
X145267876Y-126034000D01*
X145335997Y-126054002D01*
X145363113Y-126077502D01*
X145380761Y-126097876D01*
X145380766Y-126097881D01*
X145384147Y-126101784D01*
X145562349Y-126249730D01*
X145762322Y-126366584D01*
X145978694Y-126449209D01*
X145983760Y-126450240D01*
X145983761Y-126450240D01*
X146036846Y-126461040D01*
X146205656Y-126495385D01*
X146205458Y-126496357D01*
X146266126Y-126522310D01*
X146305942Y-126581091D01*
X146307658Y-126652067D01*
X146270728Y-126712703D01*
X146206879Y-126743748D01*
X146185939Y-126745500D01*
X141104860Y-126745500D01*
X141036739Y-126725498D01*
X140990246Y-126671842D01*
X140980142Y-126601568D01*
X141009636Y-126536988D01*
X141029295Y-126518674D01*
X141136080Y-126438643D01*
X141136081Y-126438642D01*
X141143261Y-126433261D01*
X141230615Y-126316705D01*
X141281745Y-126180316D01*
X141288500Y-126118134D01*
X141288500Y-124321866D01*
X141281745Y-124259684D01*
X141230615Y-124123295D01*
X141143261Y-124006739D01*
X141088935Y-123966024D01*
X141046420Y-123909165D01*
X141038500Y-123865198D01*
X141038500Y-119974802D01*
X141058502Y-119906681D01*
X141088935Y-119873976D01*
X141136081Y-119838642D01*
X141143261Y-119833261D01*
X141230615Y-119716705D01*
X141281745Y-119580316D01*
X141288500Y-119518134D01*
X141288500Y-117721866D01*
X141281745Y-117659684D01*
X141230615Y-117523295D01*
X141143261Y-117406739D01*
X141088935Y-117366024D01*
X141046420Y-117309165D01*
X141038500Y-117265198D01*
X141038500Y-116922802D01*
X141058502Y-116854681D01*
X141088935Y-116821976D01*
X141136081Y-116786642D01*
X141143261Y-116781261D01*
X141230615Y-116664705D01*
X141281745Y-116528316D01*
X141288500Y-116466134D01*
X141288500Y-115925493D01*
X141308502Y-115857372D01*
X141362158Y-115810879D01*
X141432432Y-115800775D01*
X141488561Y-115823557D01*
X141529248Y-115853118D01*
X141535276Y-115855802D01*
X141535278Y-115855803D01*
X141697681Y-115928109D01*
X141703712Y-115930794D01*
X141797112Y-115950647D01*
X141884056Y-115969128D01*
X141884061Y-115969128D01*
X141890513Y-115970500D01*
X142081487Y-115970500D01*
X142087939Y-115969128D01*
X142087944Y-115969128D01*
X142174888Y-115950647D01*
X142268288Y-115930794D01*
X142274319Y-115928109D01*
X142436722Y-115855803D01*
X142436724Y-115855802D01*
X142442752Y-115853118D01*
X142597253Y-115740866D01*
X142725040Y-115598944D01*
X142820527Y-115433556D01*
X142875387Y-115264714D01*
X142906125Y-115214556D01*
X146024774Y-112095907D01*
X146087086Y-112061881D01*
X146157901Y-112066946D01*
X146205037Y-112098028D01*
X146213326Y-112106718D01*
X146405100Y-112249402D01*
X146409851Y-112251818D01*
X146409855Y-112251820D01*
X146613414Y-112355314D01*
X146618172Y-112357733D01*
X146732062Y-112393097D01*
X146841349Y-112427032D01*
X146841355Y-112427033D01*
X146846452Y-112428616D01*
X146973883Y-112445506D01*
X147078127Y-112459323D01*
X147078131Y-112459323D01*
X147083411Y-112460023D01*
X147088740Y-112459823D01*
X147088741Y-112459823D01*
X147186509Y-112456152D01*
X147322274Y-112451055D01*
X147422126Y-112430104D01*
X147550984Y-112403067D01*
X147550987Y-112403066D01*
X147556211Y-112401970D01*
X147778533Y-112314171D01*
X147982883Y-112190168D01*
X148089063Y-112098030D01*
X148159386Y-112037007D01*
X148159388Y-112037005D01*
X148163419Y-112033507D01*
X148202715Y-111985582D01*
X148304284Y-111861710D01*
X148362944Y-111821715D01*
X148433914Y-111819784D01*
X148494662Y-111856528D01*
X148506238Y-111871234D01*
X148545148Y-111929029D01*
X148548334Y-111933762D01*
X148713326Y-112106718D01*
X148905100Y-112249402D01*
X148909851Y-112251818D01*
X148909855Y-112251820D01*
X149113414Y-112355314D01*
X149118172Y-112357733D01*
X149232062Y-112393097D01*
X149341349Y-112427032D01*
X149341355Y-112427033D01*
X149346452Y-112428616D01*
X149473883Y-112445506D01*
X149578127Y-112459323D01*
X149578131Y-112459323D01*
X149583411Y-112460023D01*
X149588740Y-112459823D01*
X149588741Y-112459823D01*
X149686509Y-112456152D01*
X149822274Y-112451055D01*
X149922126Y-112430104D01*
X150050984Y-112403067D01*
X150050987Y-112403066D01*
X150056211Y-112401970D01*
X150236201Y-112330889D01*
X150276973Y-112327188D01*
X150300288Y-112300970D01*
X150478323Y-112192935D01*
X150482883Y-112190168D01*
X150589063Y-112098030D01*
X150659386Y-112037007D01*
X150659388Y-112037005D01*
X150663419Y-112033507D01*
X150702715Y-111985582D01*
X150804284Y-111861710D01*
X150862944Y-111821715D01*
X150933914Y-111819784D01*
X150994662Y-111856528D01*
X151006238Y-111871234D01*
X151045148Y-111929029D01*
X151048334Y-111933762D01*
X151213326Y-112106718D01*
X151405100Y-112249402D01*
X151409851Y-112251818D01*
X151409855Y-112251820D01*
X151496128Y-112295683D01*
X151547786Y-112344386D01*
X151564912Y-112413286D01*
X151542070Y-112480508D01*
X151486511Y-112524709D01*
X151439023Y-112534000D01*
X150368000Y-112534000D01*
X150368000Y-119634000D01*
X152568000Y-119634000D01*
X152568000Y-112534000D01*
X152562680Y-112534000D01*
X152559691Y-112523820D01*
X152559691Y-112452824D01*
X152598074Y-112393097D01*
X152634306Y-112371129D01*
X152736200Y-112330889D01*
X152778533Y-112314171D01*
X152982883Y-112190168D01*
X153089063Y-112098030D01*
X153159386Y-112037007D01*
X153159388Y-112037005D01*
X153163419Y-112033507D01*
X153202715Y-111985582D01*
X153304284Y-111861710D01*
X153362944Y-111821715D01*
X153433914Y-111819784D01*
X153494662Y-111856528D01*
X153506238Y-111871234D01*
X153545148Y-111929029D01*
X153548334Y-111933762D01*
X153713326Y-112106718D01*
X153905100Y-112249402D01*
X153909851Y-112251818D01*
X153909855Y-112251820D01*
X154113414Y-112355314D01*
X154118172Y-112357733D01*
X154232062Y-112393097D01*
X154341349Y-112427032D01*
X154341355Y-112427033D01*
X154346452Y-112428616D01*
X154473883Y-112445506D01*
X154578127Y-112459323D01*
X154578131Y-112459323D01*
X154583411Y-112460023D01*
X154588740Y-112459823D01*
X154588741Y-112459823D01*
X154686509Y-112456152D01*
X154822274Y-112451055D01*
X154922126Y-112430104D01*
X155050984Y-112403067D01*
X155050987Y-112403066D01*
X155056211Y-112401970D01*
X155278533Y-112314171D01*
X155482883Y-112190168D01*
X155589063Y-112098030D01*
X155659386Y-112037007D01*
X155659388Y-112037005D01*
X155663419Y-112033507D01*
X155702715Y-111985582D01*
X155804284Y-111861710D01*
X155862944Y-111821715D01*
X155933914Y-111819784D01*
X155994662Y-111856528D01*
X156006238Y-111871234D01*
X156045148Y-111929029D01*
X156048334Y-111933762D01*
X156213326Y-112106718D01*
X156405100Y-112249402D01*
X156409851Y-112251818D01*
X156409855Y-112251820D01*
X156613414Y-112355314D01*
X156618172Y-112357733D01*
X156732062Y-112393097D01*
X156841349Y-112427032D01*
X156841355Y-112427033D01*
X156846452Y-112428616D01*
X156973883Y-112445506D01*
X157078127Y-112459323D01*
X157078131Y-112459323D01*
X157083411Y-112460023D01*
X157088740Y-112459823D01*
X157088741Y-112459823D01*
X157186509Y-112456152D01*
X157322274Y-112451055D01*
X157422126Y-112430104D01*
X157550984Y-112403067D01*
X157550987Y-112403066D01*
X157556211Y-112401970D01*
X157778533Y-112314171D01*
X157982883Y-112190168D01*
X158089063Y-112098030D01*
X158159386Y-112037007D01*
X158159388Y-112037005D01*
X158163419Y-112033507D01*
X158166802Y-112029381D01*
X158166806Y-112029377D01*
X158304614Y-111861307D01*
X158363273Y-111821313D01*
X158434244Y-111819381D01*
X158494992Y-111856125D01*
X158506568Y-111870830D01*
X158545751Y-111929029D01*
X158552406Y-111937307D01*
X158709971Y-112102478D01*
X158717942Y-112109530D01*
X158901082Y-112245790D01*
X158910119Y-112251394D01*
X159113606Y-112354851D01*
X159123459Y-112358852D01*
X159341461Y-112426544D01*
X159351848Y-112428828D01*
X159378043Y-112432300D01*
X159392207Y-112430104D01*
X159396000Y-112416919D01*
X159396000Y-112415282D01*
X159904000Y-112415282D01*
X159907973Y-112428813D01*
X159918580Y-112430338D01*
X160050840Y-112402587D01*
X160061037Y-112399527D01*
X160273340Y-112315685D01*
X160282876Y-112310951D01*
X160478025Y-112192532D01*
X160486618Y-112186266D01*
X160659027Y-112036658D01*
X160666447Y-112029028D01*
X160811180Y-111852512D01*
X160817206Y-111843745D01*
X160930129Y-111645367D01*
X160934595Y-111635703D01*
X161012481Y-111421132D01*
X161015251Y-111410865D01*
X161056081Y-111185068D01*
X161057016Y-111176838D01*
X161057930Y-111157450D01*
X161058000Y-111154474D01*
X161058000Y-110220115D01*
X161053525Y-110204876D01*
X161052135Y-110203671D01*
X161044452Y-110202000D01*
X159922115Y-110202000D01*
X159906876Y-110206475D01*
X159905671Y-110207865D01*
X159904000Y-110215548D01*
X159904000Y-112415282D01*
X159396000Y-112415282D01*
X159396000Y-109675885D01*
X159904000Y-109675885D01*
X159908475Y-109691124D01*
X159909865Y-109692329D01*
X159917548Y-109694000D01*
X161039885Y-109694000D01*
X161055124Y-109689525D01*
X161056329Y-109688135D01*
X161058000Y-109680452D01*
X161058000Y-108790660D01*
X161057775Y-108785351D01*
X161043340Y-108615229D01*
X161041548Y-108604741D01*
X160984199Y-108383789D01*
X160980667Y-108373761D01*
X160886915Y-108165637D01*
X160881735Y-108156331D01*
X160754253Y-107966976D01*
X160747594Y-107958693D01*
X160590029Y-107793522D01*
X160582058Y-107786470D01*
X160398918Y-107650210D01*
X160389881Y-107644606D01*
X160186394Y-107541149D01*
X160176541Y-107537148D01*
X159958539Y-107469456D01*
X159948152Y-107467172D01*
X159921957Y-107463700D01*
X159907793Y-107465896D01*
X159904000Y-107479081D01*
X159904000Y-109675885D01*
X159396000Y-109675885D01*
X159396000Y-107480718D01*
X159392027Y-107467187D01*
X159381420Y-107465662D01*
X159249160Y-107493413D01*
X159238963Y-107496473D01*
X159026660Y-107580315D01*
X159017124Y-107585049D01*
X158821975Y-107703468D01*
X158813382Y-107709734D01*
X158640973Y-107859342D01*
X158633553Y-107866973D01*
X158496007Y-108034722D01*
X158437347Y-108074717D01*
X158366377Y-108076648D01*
X158305629Y-108039904D01*
X158294053Y-108025198D01*
X158282262Y-108007684D01*
X158251666Y-107962238D01*
X158238154Y-107948073D01*
X158153175Y-107858993D01*
X158086674Y-107789282D01*
X157894900Y-107646598D01*
X157890149Y-107644182D01*
X157890145Y-107644180D01*
X157686586Y-107540686D01*
X157686585Y-107540686D01*
X157681828Y-107538267D01*
X157536744Y-107493217D01*
X157458651Y-107468968D01*
X157458645Y-107468967D01*
X157453548Y-107467384D01*
X157313645Y-107448841D01*
X157221873Y-107436677D01*
X157221869Y-107436677D01*
X157216589Y-107435977D01*
X157211260Y-107436177D01*
X157211259Y-107436177D01*
X157161774Y-107438035D01*
X157092951Y-107420603D01*
X157067952Y-107401219D01*
X147484405Y-97817672D01*
X147450379Y-97755360D01*
X147447500Y-97728577D01*
X147447500Y-82629020D01*
X147448030Y-82617786D01*
X147449708Y-82610281D01*
X147447562Y-82541988D01*
X147447500Y-82538031D01*
X147447500Y-82510017D01*
X147446992Y-82505996D01*
X147446058Y-82494144D01*
X147444914Y-82457718D01*
X147444914Y-82457717D01*
X147444665Y-82449795D01*
X147438987Y-82430251D01*
X147434977Y-82410888D01*
X147433420Y-82398560D01*
X147433420Y-82398558D01*
X147432427Y-82390701D01*
X147429511Y-82383337D01*
X147429510Y-82383332D01*
X147416093Y-82349444D01*
X147412248Y-82338215D01*
X147402080Y-82303219D01*
X147399869Y-82295607D01*
X147389510Y-82278091D01*
X147380813Y-82260341D01*
X147373319Y-82241412D01*
X147347240Y-82205517D01*
X147340722Y-82195595D01*
X147322170Y-82164224D01*
X147322166Y-82164219D01*
X147318134Y-82157401D01*
X147303747Y-82143014D01*
X147290906Y-82127980D01*
X147283602Y-82117927D01*
X147278942Y-82111513D01*
X147244750Y-82083227D01*
X147235971Y-82075238D01*
X143266594Y-78105861D01*
X143236698Y-78058203D01*
X143216774Y-78000990D01*
X143182368Y-77902189D01*
X143176383Y-77892610D01*
X143152706Y-77854721D01*
X143092192Y-77757879D01*
X142972286Y-77637132D01*
X142956039Y-77626821D01*
X142905260Y-77594596D01*
X142828608Y-77545951D01*
X142668300Y-77488868D01*
X142499329Y-77468720D01*
X142492326Y-77469456D01*
X142492325Y-77469456D01*
X142337101Y-77485770D01*
X142337097Y-77485771D01*
X142330093Y-77486507D01*
X142323422Y-77488778D01*
X142175673Y-77539075D01*
X142175670Y-77539076D01*
X142169003Y-77541346D01*
X142163005Y-77545036D01*
X142163003Y-77545037D01*
X142030065Y-77626821D01*
X142030063Y-77626823D01*
X142024066Y-77630512D01*
X141902486Y-77749573D01*
X141898675Y-77755487D01*
X141898673Y-77755489D01*
X141834722Y-77854721D01*
X141810304Y-77892610D01*
X141752103Y-78052516D01*
X141730775Y-78221343D01*
X141747381Y-78390699D01*
X141801094Y-78552167D01*
X141889246Y-78697723D01*
X142007455Y-78820132D01*
X142149846Y-78913310D01*
X142156450Y-78915766D01*
X142156452Y-78915767D01*
X142302731Y-78970168D01*
X142302733Y-78970169D01*
X142309341Y-78972626D01*
X142311502Y-78972914D01*
X142368344Y-79005076D01*
X146139595Y-82776327D01*
X146173621Y-82838639D01*
X146176500Y-82865422D01*
X146176500Y-88839577D01*
X146156498Y-88907698D01*
X146102842Y-88954191D01*
X146032568Y-88964295D01*
X145967988Y-88934801D01*
X145961405Y-88928672D01*
X143012594Y-85979861D01*
X142982698Y-85932203D01*
X142930686Y-85782846D01*
X142928368Y-85776189D01*
X142922383Y-85766610D01*
X142900420Y-85731464D01*
X142838192Y-85631879D01*
X142718286Y-85511132D01*
X142702039Y-85500821D01*
X142663406Y-85476304D01*
X142574608Y-85419951D01*
X142414300Y-85362868D01*
X142245329Y-85342720D01*
X142238326Y-85343456D01*
X142238325Y-85343456D01*
X142083101Y-85359770D01*
X142083097Y-85359771D01*
X142076093Y-85360507D01*
X142069422Y-85362778D01*
X141921673Y-85413075D01*
X141921670Y-85413076D01*
X141915003Y-85415346D01*
X141909005Y-85419036D01*
X141909003Y-85419037D01*
X141776065Y-85500821D01*
X141776063Y-85500823D01*
X141770066Y-85504512D01*
X141648486Y-85623573D01*
X141556304Y-85766610D01*
X141498103Y-85926516D01*
X141476775Y-86095343D01*
X141493381Y-86264699D01*
X141547094Y-86426167D01*
X141635246Y-86571723D01*
X141753455Y-86694132D01*
X141895846Y-86787310D01*
X141902450Y-86789766D01*
X141902452Y-86789767D01*
X142048731Y-86844168D01*
X142048733Y-86844169D01*
X142055341Y-86846626D01*
X142057502Y-86846914D01*
X142114344Y-86879076D01*
X144869595Y-89634327D01*
X144903621Y-89696639D01*
X144906500Y-89723422D01*
X144906500Y-91125577D01*
X144886498Y-91193698D01*
X144832842Y-91240191D01*
X144762568Y-91250295D01*
X144697988Y-91220801D01*
X144691405Y-91214672D01*
X142758594Y-89281861D01*
X142728698Y-89234203D01*
X142691559Y-89127554D01*
X142674368Y-89078189D01*
X142668383Y-89068610D01*
X142635133Y-89015401D01*
X142584192Y-88933879D01*
X142464286Y-88813132D01*
X142448039Y-88802821D01*
X142409406Y-88778304D01*
X142320608Y-88721951D01*
X142160300Y-88664868D01*
X141991329Y-88644720D01*
X141984326Y-88645456D01*
X141984325Y-88645456D01*
X141829101Y-88661770D01*
X141829097Y-88661771D01*
X141822093Y-88662507D01*
X141815422Y-88664778D01*
X141667673Y-88715075D01*
X141667670Y-88715076D01*
X141661003Y-88717346D01*
X141655005Y-88721036D01*
X141655003Y-88721037D01*
X141522065Y-88802821D01*
X141522063Y-88802823D01*
X141516066Y-88806512D01*
X141394486Y-88925573D01*
X141390675Y-88931487D01*
X141390673Y-88931489D01*
X141369531Y-88964295D01*
X141302304Y-89068610D01*
X141244103Y-89228516D01*
X141222775Y-89397343D01*
X141239381Y-89566699D01*
X141293094Y-89728167D01*
X141381246Y-89873723D01*
X141499455Y-89996132D01*
X141641846Y-90089310D01*
X141648450Y-90091766D01*
X141648452Y-90091767D01*
X141794731Y-90146168D01*
X141794733Y-90146169D01*
X141801341Y-90148626D01*
X141803502Y-90148914D01*
X141860344Y-90181076D01*
X143599595Y-91920327D01*
X143633621Y-91982639D01*
X143636500Y-92009422D01*
X143636500Y-99488980D01*
X143635970Y-99500214D01*
X143634292Y-99507719D01*
X143634541Y-99515638D01*
X143636438Y-99576012D01*
X143636500Y-99579969D01*
X143636500Y-99607983D01*
X143636996Y-99611908D01*
X143636996Y-99611909D01*
X143637008Y-99612004D01*
X143637941Y-99623849D01*
X143639335Y-99668205D01*
X143641547Y-99675817D01*
X143645013Y-99687748D01*
X143649023Y-99707112D01*
X143651573Y-99727299D01*
X143654489Y-99734663D01*
X143654490Y-99734668D01*
X143667907Y-99768556D01*
X143671752Y-99779785D01*
X143684131Y-99822393D01*
X143688169Y-99829220D01*
X143688170Y-99829223D01*
X143694488Y-99839906D01*
X143703188Y-99857664D01*
X143707761Y-99869215D01*
X143707765Y-99869221D01*
X143710681Y-99876588D01*
X143715339Y-99882999D01*
X143715340Y-99883001D01*
X143736764Y-99912488D01*
X143743281Y-99922410D01*
X143761826Y-99953768D01*
X143761829Y-99953772D01*
X143765866Y-99960598D01*
X143780250Y-99974982D01*
X143793091Y-99990016D01*
X143805058Y-100006487D01*
X143811166Y-100011540D01*
X143839255Y-100034777D01*
X143848035Y-100042767D01*
X151325487Y-107520219D01*
X151359513Y-107582531D01*
X151354448Y-107653346D01*
X151315791Y-107704304D01*
X151317117Y-107705832D01*
X151161426Y-107840934D01*
X151136581Y-107862493D01*
X151129364Y-107871295D01*
X150995716Y-108034290D01*
X150937056Y-108074285D01*
X150866086Y-108076216D01*
X150805338Y-108039472D01*
X150793762Y-108024766D01*
X150754646Y-107966664D01*
X150754644Y-107966662D01*
X150751666Y-107962238D01*
X150738154Y-107948073D01*
X150653175Y-107858993D01*
X150586674Y-107789282D01*
X150394900Y-107646598D01*
X150390149Y-107644182D01*
X150390145Y-107644180D01*
X150314218Y-107605577D01*
X150262560Y-107556874D01*
X150254259Y-107539864D01*
X150254175Y-107539653D01*
X150250249Y-107528223D01*
X150237868Y-107485607D01*
X150227511Y-107468093D01*
X150218815Y-107450343D01*
X150214239Y-107438785D01*
X150214236Y-107438780D01*
X150211319Y-107431412D01*
X150185233Y-107395507D01*
X150178716Y-107385585D01*
X150160172Y-107354228D01*
X150160170Y-107354225D01*
X150156134Y-107347401D01*
X150141747Y-107333014D01*
X150128906Y-107317980D01*
X150121602Y-107307927D01*
X150116942Y-107301513D01*
X150108545Y-107294566D01*
X150082751Y-107273228D01*
X150073971Y-107265238D01*
X142912405Y-100103672D01*
X142878379Y-100041360D01*
X142875500Y-100014577D01*
X142875500Y-97361020D01*
X142876030Y-97349786D01*
X142877708Y-97342281D01*
X142875562Y-97273988D01*
X142875500Y-97270031D01*
X142875500Y-97242017D01*
X142874992Y-97237996D01*
X142874058Y-97226144D01*
X142872914Y-97189718D01*
X142872914Y-97189717D01*
X142872665Y-97181795D01*
X142866987Y-97162251D01*
X142862977Y-97142888D01*
X142861420Y-97130560D01*
X142861420Y-97130558D01*
X142860427Y-97122701D01*
X142857511Y-97115337D01*
X142857510Y-97115332D01*
X142844093Y-97081444D01*
X142840248Y-97070215D01*
X142830081Y-97035222D01*
X142827869Y-97027607D01*
X142823830Y-97020777D01*
X142817512Y-97010094D01*
X142808812Y-96992336D01*
X142804239Y-96980785D01*
X142804235Y-96980779D01*
X142801319Y-96973412D01*
X142775234Y-96937509D01*
X142768719Y-96927590D01*
X142750174Y-96896232D01*
X142750171Y-96896228D01*
X142746134Y-96889402D01*
X142731750Y-96875018D01*
X142718909Y-96859984D01*
X142711602Y-96849927D01*
X142706942Y-96843513D01*
X142672744Y-96815222D01*
X142663965Y-96807233D01*
X133614594Y-87757861D01*
X133584698Y-87710203D01*
X133532686Y-87560846D01*
X133530368Y-87554189D01*
X133524383Y-87544610D01*
X133502420Y-87509464D01*
X133440192Y-87409879D01*
X133320286Y-87289132D01*
X133304039Y-87278821D01*
X133265406Y-87254304D01*
X133176608Y-87197951D01*
X133016300Y-87140868D01*
X132847329Y-87120720D01*
X132840326Y-87121456D01*
X132840325Y-87121456D01*
X132685101Y-87137770D01*
X132685097Y-87137771D01*
X132678093Y-87138507D01*
X132671422Y-87140778D01*
X132523673Y-87191075D01*
X132523670Y-87191076D01*
X132517003Y-87193346D01*
X132511005Y-87197036D01*
X132511003Y-87197037D01*
X132378065Y-87278821D01*
X132378063Y-87278823D01*
X132372066Y-87282512D01*
X132250486Y-87401573D01*
X132158304Y-87544610D01*
X132100103Y-87704516D01*
X132078775Y-87873343D01*
X132095381Y-88042699D01*
X132149094Y-88204167D01*
X132237246Y-88349723D01*
X132355455Y-88472132D01*
X132497846Y-88565310D01*
X132504450Y-88567766D01*
X132504452Y-88567767D01*
X132650731Y-88622168D01*
X132650733Y-88622169D01*
X132657341Y-88624626D01*
X132659502Y-88624914D01*
X132716344Y-88657076D01*
X141567595Y-97508328D01*
X141601621Y-97570640D01*
X141604500Y-97597423D01*
X141604500Y-100250980D01*
X141603970Y-100262214D01*
X141602292Y-100269719D01*
X141602541Y-100277638D01*
X141604438Y-100338012D01*
X141604500Y-100341969D01*
X141604500Y-100369983D01*
X141604996Y-100373908D01*
X141604996Y-100373909D01*
X141605008Y-100374004D01*
X141605941Y-100385849D01*
X141607335Y-100430205D01*
X141609547Y-100437817D01*
X141613013Y-100449748D01*
X141617023Y-100469112D01*
X141619573Y-100489299D01*
X141622489Y-100496663D01*
X141622490Y-100496668D01*
X141635907Y-100530556D01*
X141639752Y-100541785D01*
X141652131Y-100584393D01*
X141656169Y-100591220D01*
X141656170Y-100591223D01*
X141662488Y-100601906D01*
X141671188Y-100619664D01*
X141675761Y-100631215D01*
X141675765Y-100631221D01*
X141678681Y-100638588D01*
X141683339Y-100644999D01*
X141683340Y-100645001D01*
X141704764Y-100674488D01*
X141711281Y-100684410D01*
X141729826Y-100715768D01*
X141729829Y-100715772D01*
X141733866Y-100722598D01*
X141748250Y-100736982D01*
X141761091Y-100752016D01*
X141773058Y-100768487D01*
X141779166Y-100773540D01*
X141807255Y-100796777D01*
X141816035Y-100804767D01*
X148667941Y-107656673D01*
X148701967Y-107718985D01*
X148696902Y-107789800D01*
X148661426Y-107840933D01*
X148636581Y-107862493D01*
X148629364Y-107871295D01*
X148495716Y-108034290D01*
X148437056Y-108074285D01*
X148366086Y-108076216D01*
X148305338Y-108039472D01*
X148293762Y-108024766D01*
X148254646Y-107966664D01*
X148254644Y-107966662D01*
X148251666Y-107962238D01*
X148238154Y-107948073D01*
X148153175Y-107858993D01*
X148086674Y-107789282D01*
X147894900Y-107646598D01*
X147890149Y-107644182D01*
X147890145Y-107644180D01*
X147686586Y-107540686D01*
X147686585Y-107540686D01*
X147681828Y-107538267D01*
X147536744Y-107493217D01*
X147458651Y-107468968D01*
X147458645Y-107468967D01*
X147453548Y-107467384D01*
X147313645Y-107448841D01*
X147221873Y-107436677D01*
X147221869Y-107436677D01*
X147216589Y-107435977D01*
X147211260Y-107436177D01*
X147211259Y-107436177D01*
X147113491Y-107439848D01*
X146977726Y-107444945D01*
X146926378Y-107455719D01*
X146749016Y-107492933D01*
X146749013Y-107492934D01*
X146743789Y-107494030D01*
X146521467Y-107581829D01*
X146317117Y-107705832D01*
X146313087Y-107709329D01*
X146161426Y-107840934D01*
X146136581Y-107862493D01*
X146133198Y-107866619D01*
X146133194Y-107866623D01*
X146054795Y-107962238D01*
X145985022Y-108047333D01*
X145982383Y-108051969D01*
X145982381Y-108051972D01*
X145928953Y-108145832D01*
X145877871Y-108195138D01*
X145819451Y-108209500D01*
X141414500Y-108209500D01*
X141346379Y-108189498D01*
X141299886Y-108135842D01*
X141288500Y-108083500D01*
X141288500Y-108069866D01*
X141281745Y-108007684D01*
X141230615Y-107871295D01*
X141143261Y-107754739D01*
X141088935Y-107714024D01*
X141046420Y-107657165D01*
X141038500Y-107613198D01*
X141038500Y-107270802D01*
X141058502Y-107202681D01*
X141088935Y-107169976D01*
X141094830Y-107165558D01*
X141143261Y-107129261D01*
X141230615Y-107012705D01*
X141281745Y-106876316D01*
X141288500Y-106814134D01*
X141288500Y-105017866D01*
X141281745Y-104955684D01*
X141230615Y-104819295D01*
X141143261Y-104702739D01*
X141088935Y-104662024D01*
X141046420Y-104605165D01*
X141038500Y-104561198D01*
X141038500Y-100670802D01*
X141058502Y-100602681D01*
X141088935Y-100569976D01*
X141136081Y-100534642D01*
X141143261Y-100529261D01*
X141230615Y-100412705D01*
X141281745Y-100276316D01*
X141288500Y-100214134D01*
X141288500Y-98417866D01*
X141281745Y-98355684D01*
X141230615Y-98219295D01*
X141143261Y-98102739D01*
X141026705Y-98015385D01*
X140890316Y-97964255D01*
X140828134Y-97957500D01*
X139731866Y-97957500D01*
X139669684Y-97964255D01*
X139533295Y-98015385D01*
X139416739Y-98102739D01*
X139329385Y-98219295D01*
X139278255Y-98355684D01*
X139271500Y-98417866D01*
X139271500Y-100214134D01*
X139278255Y-100276316D01*
X139329385Y-100412705D01*
X139416739Y-100529261D01*
X139423919Y-100534642D01*
X139471065Y-100569976D01*
X139513580Y-100626835D01*
X139521500Y-100670802D01*
X139521500Y-104561198D01*
X139501498Y-104629319D01*
X139471065Y-104662024D01*
X139416739Y-104702739D01*
X139329385Y-104819295D01*
X139278255Y-104955684D01*
X139271500Y-105017866D01*
X139271500Y-106814134D01*
X139278255Y-106876316D01*
X139329385Y-107012705D01*
X139416739Y-107129261D01*
X139465170Y-107165558D01*
X139471065Y-107169976D01*
X139513580Y-107226835D01*
X139521500Y-107270802D01*
X139521500Y-107613198D01*
X139501498Y-107681319D01*
X139471065Y-107714024D01*
X139416739Y-107754739D01*
X139329385Y-107871295D01*
X139278255Y-108007684D01*
X139271500Y-108069866D01*
X139271500Y-109866134D01*
X139278255Y-109928316D01*
X139329385Y-110064705D01*
X139416739Y-110181261D01*
X139450382Y-110206475D01*
X139471065Y-110221976D01*
X139513580Y-110278835D01*
X139521500Y-110322802D01*
X139521500Y-114213198D01*
X139501498Y-114281319D01*
X139471065Y-114314024D01*
X139416739Y-114354739D01*
X139329385Y-114471295D01*
X139278255Y-114607684D01*
X139271500Y-114669866D01*
X139271500Y-116466134D01*
X139278255Y-116528316D01*
X139329385Y-116664705D01*
X139416739Y-116781261D01*
X139423919Y-116786642D01*
X139471065Y-116821976D01*
X139513580Y-116878835D01*
X139521500Y-116922802D01*
X139521500Y-117265198D01*
X139501498Y-117333319D01*
X139471065Y-117366024D01*
X139416739Y-117406739D01*
X139329385Y-117523295D01*
X139278255Y-117659684D01*
X139271500Y-117721866D01*
X139271500Y-119518134D01*
X139278255Y-119580316D01*
X139329385Y-119716705D01*
X139416739Y-119833261D01*
X139423919Y-119838642D01*
X139471065Y-119873976D01*
X139513580Y-119930835D01*
X139521500Y-119974802D01*
X139521500Y-123865198D01*
X139501498Y-123933319D01*
X139471065Y-123966024D01*
X139416739Y-124006739D01*
X139329385Y-124123295D01*
X139278255Y-124259684D01*
X139271500Y-124321866D01*
X139271500Y-126118134D01*
X139278255Y-126180316D01*
X139329385Y-126316705D01*
X139416739Y-126433261D01*
X139423919Y-126438642D01*
X139423920Y-126438643D01*
X139530705Y-126518674D01*
X139573220Y-126575533D01*
X139578246Y-126646352D01*
X139544186Y-126708645D01*
X139481855Y-126742635D01*
X139455140Y-126745500D01*
X137404860Y-126745500D01*
X137336739Y-126725498D01*
X137290246Y-126671842D01*
X137280142Y-126601568D01*
X137309636Y-126536988D01*
X137329295Y-126518674D01*
X137436080Y-126438643D01*
X137436081Y-126438642D01*
X137443261Y-126433261D01*
X137530615Y-126316705D01*
X137581745Y-126180316D01*
X137588500Y-126118134D01*
X137588500Y-124321866D01*
X137581745Y-124259684D01*
X137530615Y-124123295D01*
X137443261Y-124006739D01*
X137326705Y-123919385D01*
X137297269Y-123908350D01*
X137240505Y-123865708D01*
X137215806Y-123799146D01*
X137215500Y-123790368D01*
X137215500Y-120049632D01*
X137235502Y-119981511D01*
X137289158Y-119935018D01*
X137297269Y-119931650D01*
X137299443Y-119930835D01*
X137326705Y-119920615D01*
X137443261Y-119833261D01*
X137530615Y-119716705D01*
X137581745Y-119580316D01*
X137588500Y-119518134D01*
X137588500Y-117721866D01*
X137581745Y-117659684D01*
X137530615Y-117523295D01*
X137443261Y-117406739D01*
X137326705Y-117319385D01*
X137190316Y-117268255D01*
X137128134Y-117261500D01*
X136031866Y-117261500D01*
X136028474Y-117261868D01*
X136028464Y-117261869D01*
X136009225Y-117263959D01*
X135939343Y-117251430D01*
X135906523Y-117227791D01*
X135787082Y-117108349D01*
X135753057Y-117046037D01*
X135758123Y-116975221D01*
X135800669Y-116918385D01*
X135867190Y-116893575D01*
X135920407Y-116901272D01*
X135969684Y-116919745D01*
X136031866Y-116926500D01*
X137128134Y-116926500D01*
X137190316Y-116919745D01*
X137326705Y-116868615D01*
X137443261Y-116781261D01*
X137530615Y-116664705D01*
X137581745Y-116528316D01*
X137588500Y-116466134D01*
X137588500Y-114669866D01*
X137581745Y-114607684D01*
X137530615Y-114471295D01*
X137443261Y-114354739D01*
X137326705Y-114267385D01*
X137297269Y-114256350D01*
X137240505Y-114213708D01*
X137215806Y-114147146D01*
X137215500Y-114138368D01*
X137215500Y-110397632D01*
X137235502Y-110329511D01*
X137289158Y-110283018D01*
X137297269Y-110279650D01*
X137299443Y-110278835D01*
X137326705Y-110268615D01*
X137443261Y-110181261D01*
X137530615Y-110064705D01*
X137581745Y-109928316D01*
X137588500Y-109866134D01*
X137588500Y-108069866D01*
X137581745Y-108007684D01*
X137530615Y-107871295D01*
X137443261Y-107754739D01*
X137326705Y-107667385D01*
X137190316Y-107616255D01*
X137128134Y-107609500D01*
X136172423Y-107609500D01*
X136104302Y-107589498D01*
X136083328Y-107572595D01*
X136000328Y-107489595D01*
X135966302Y-107427283D01*
X135971367Y-107356468D01*
X136013914Y-107299632D01*
X136080434Y-107274821D01*
X136089423Y-107274500D01*
X137128134Y-107274500D01*
X137190316Y-107267745D01*
X137326705Y-107216615D01*
X137443261Y-107129261D01*
X137530615Y-107012705D01*
X137581745Y-106876316D01*
X137588500Y-106814134D01*
X137588500Y-105017866D01*
X137581745Y-104955684D01*
X137530615Y-104819295D01*
X137443261Y-104702739D01*
X137326705Y-104615385D01*
X137297269Y-104604350D01*
X137240505Y-104561708D01*
X137215806Y-104495146D01*
X137215500Y-104486368D01*
X137215500Y-103385032D01*
X137216030Y-103373793D01*
X137217709Y-103366281D01*
X137215562Y-103297969D01*
X137215500Y-103294012D01*
X137215500Y-100745632D01*
X137235502Y-100677511D01*
X137289158Y-100631018D01*
X137297269Y-100627650D01*
X137299443Y-100626835D01*
X137326705Y-100616615D01*
X137443261Y-100529261D01*
X137530615Y-100412705D01*
X137581745Y-100276316D01*
X137588500Y-100214134D01*
X137588500Y-98417866D01*
X137581745Y-98355684D01*
X137530615Y-98219295D01*
X137443261Y-98102739D01*
X137326705Y-98015385D01*
X137190316Y-97964255D01*
X137128134Y-97957500D01*
X136031866Y-97957500D01*
X135969684Y-97964255D01*
X135833295Y-98015385D01*
X135716739Y-98102739D01*
X135629385Y-98219295D01*
X135578255Y-98355684D01*
X135571500Y-98417866D01*
X135571500Y-100214134D01*
X135578255Y-100276316D01*
X135629385Y-100412705D01*
X135716739Y-100529261D01*
X135833295Y-100616615D01*
X135860557Y-100626835D01*
X135862731Y-100627650D01*
X135919495Y-100670292D01*
X135944194Y-100736854D01*
X135944500Y-100745632D01*
X135944500Y-101492953D01*
X135924498Y-101561074D01*
X135870842Y-101607567D01*
X135803582Y-101618067D01*
X135641329Y-101598720D01*
X135634326Y-101599456D01*
X135634325Y-101599456D01*
X135479101Y-101615770D01*
X135479097Y-101615771D01*
X135472093Y-101616507D01*
X135465422Y-101618778D01*
X135317673Y-101669075D01*
X135317670Y-101669076D01*
X135311003Y-101671346D01*
X135305005Y-101675036D01*
X135305003Y-101675037D01*
X135172065Y-101756821D01*
X135172063Y-101756823D01*
X135166066Y-101760512D01*
X135044486Y-101879573D01*
X134952304Y-102022610D01*
X134894103Y-102182516D01*
X134872775Y-102351343D01*
X134889381Y-102520699D01*
X134943094Y-102682167D01*
X135031246Y-102827723D01*
X135149455Y-102950132D01*
X135291846Y-103043310D01*
X135298450Y-103045766D01*
X135298452Y-103045767D01*
X135444731Y-103100168D01*
X135444733Y-103100169D01*
X135451341Y-103102626D01*
X135453498Y-103102914D01*
X135510343Y-103135075D01*
X135907596Y-103532329D01*
X135941621Y-103594641D01*
X135944500Y-103621424D01*
X135944500Y-104486368D01*
X135924498Y-104554489D01*
X135870842Y-104600982D01*
X135862733Y-104604349D01*
X135833295Y-104615385D01*
X135716739Y-104702739D01*
X135629385Y-104819295D01*
X135578255Y-104955684D01*
X135571500Y-105017866D01*
X135571500Y-105346110D01*
X135551498Y-105414231D01*
X135497842Y-105460724D01*
X135427568Y-105470828D01*
X135403237Y-105464810D01*
X135302300Y-105428868D01*
X135133329Y-105408720D01*
X135126326Y-105409456D01*
X135126325Y-105409456D01*
X134971101Y-105425770D01*
X134971097Y-105425771D01*
X134964093Y-105426507D01*
X134957422Y-105428778D01*
X134809673Y-105479075D01*
X134809670Y-105479076D01*
X134803003Y-105481346D01*
X134797005Y-105485036D01*
X134797003Y-105485037D01*
X134664065Y-105566821D01*
X134664063Y-105566823D01*
X134658066Y-105570512D01*
X134536486Y-105689573D01*
X134444304Y-105832610D01*
X134386103Y-105992516D01*
X134364775Y-106161343D01*
X134381381Y-106330699D01*
X134435094Y-106492167D01*
X134438743Y-106498192D01*
X134474276Y-106556864D01*
X134492500Y-106622136D01*
X134492500Y-107436980D01*
X134491970Y-107448214D01*
X134490292Y-107455719D01*
X134491496Y-107494030D01*
X134492438Y-107524012D01*
X134492500Y-107527969D01*
X134492500Y-107555983D01*
X134492996Y-107559908D01*
X134492996Y-107559909D01*
X134493008Y-107560004D01*
X134493941Y-107571849D01*
X134495335Y-107616205D01*
X134497547Y-107623817D01*
X134501013Y-107635748D01*
X134505023Y-107655112D01*
X134507573Y-107675299D01*
X134510489Y-107682663D01*
X134510490Y-107682668D01*
X134523907Y-107716556D01*
X134527752Y-107727785D01*
X134540131Y-107770393D01*
X134544169Y-107777220D01*
X134544170Y-107777223D01*
X134550488Y-107787906D01*
X134559188Y-107805664D01*
X134563761Y-107817215D01*
X134563765Y-107817221D01*
X134566681Y-107824588D01*
X134571339Y-107830999D01*
X134571340Y-107831001D01*
X134592764Y-107860488D01*
X134599281Y-107870410D01*
X134617826Y-107901768D01*
X134617829Y-107901772D01*
X134621866Y-107908598D01*
X134636250Y-107922982D01*
X134649091Y-107938016D01*
X134661058Y-107954487D01*
X134675778Y-107966664D01*
X134695250Y-107982773D01*
X134704031Y-107990763D01*
X135534596Y-108821329D01*
X135568621Y-108883641D01*
X135571500Y-108910424D01*
X135571500Y-109866134D01*
X135578255Y-109928316D01*
X135629385Y-110064705D01*
X135716739Y-110181261D01*
X135833295Y-110268615D01*
X135860557Y-110278835D01*
X135862731Y-110279650D01*
X135919495Y-110322292D01*
X135944194Y-110388854D01*
X135944500Y-110397632D01*
X135944500Y-114138368D01*
X135924498Y-114206489D01*
X135870842Y-114252982D01*
X135862733Y-114256349D01*
X135833295Y-114267385D01*
X135716739Y-114354739D01*
X135629385Y-114471295D01*
X135578255Y-114607684D01*
X135571500Y-114669866D01*
X135571500Y-116414183D01*
X135551498Y-116482304D01*
X135497842Y-116528797D01*
X135427568Y-116538901D01*
X135362988Y-116509407D01*
X135357894Y-116504648D01*
X135357247Y-116504128D01*
X135352286Y-116499132D01*
X135336039Y-116488821D01*
X135294905Y-116462717D01*
X135208608Y-116407951D01*
X135048300Y-116350868D01*
X134879329Y-116330720D01*
X134872326Y-116331456D01*
X134872325Y-116331456D01*
X134717101Y-116347770D01*
X134717097Y-116347771D01*
X134710093Y-116348507D01*
X134703422Y-116350778D01*
X134555673Y-116401075D01*
X134555670Y-116401076D01*
X134549003Y-116403346D01*
X134543005Y-116407036D01*
X134543003Y-116407037D01*
X134410065Y-116488821D01*
X134410063Y-116488823D01*
X134404066Y-116492512D01*
X134282486Y-116611573D01*
X134190304Y-116754610D01*
X134132103Y-116914516D01*
X134110775Y-117083343D01*
X134127381Y-117252699D01*
X134129605Y-117259384D01*
X134129605Y-117259385D01*
X134146165Y-117309165D01*
X134181094Y-117414167D01*
X134269246Y-117559723D01*
X134387455Y-117682132D01*
X134529846Y-117775310D01*
X134536450Y-117777766D01*
X134536452Y-117777767D01*
X134682731Y-117832168D01*
X134682733Y-117832169D01*
X134689341Y-117834626D01*
X134691498Y-117834914D01*
X134748343Y-117867075D01*
X135534596Y-118653329D01*
X135568621Y-118715641D01*
X135571500Y-118742424D01*
X135571500Y-119518134D01*
X135578255Y-119580316D01*
X135629385Y-119716705D01*
X135716739Y-119833261D01*
X135833295Y-119920615D01*
X135860557Y-119930835D01*
X135862731Y-119931650D01*
X135919495Y-119974292D01*
X135944194Y-120040854D01*
X135944500Y-120049632D01*
X135944500Y-123790368D01*
X135924498Y-123858489D01*
X135870842Y-123904982D01*
X135862733Y-123908349D01*
X135833295Y-123919385D01*
X135716739Y-124006739D01*
X135629385Y-124123295D01*
X135578255Y-124259684D01*
X135571500Y-124321866D01*
X135571500Y-126118134D01*
X135578255Y-126180316D01*
X135629385Y-126316705D01*
X135716739Y-126433261D01*
X135723919Y-126438642D01*
X135723920Y-126438643D01*
X135830705Y-126518674D01*
X135873220Y-126575533D01*
X135878246Y-126646352D01*
X135844186Y-126708645D01*
X135781855Y-126742635D01*
X135755140Y-126745500D01*
X131632524Y-126745500D01*
X131564403Y-126725498D01*
X131517910Y-126671842D01*
X131506524Y-126619495D01*
X131508355Y-75721822D01*
X131528360Y-75653702D01*
X131582017Y-75607211D01*
X131652291Y-75597110D01*
X131716871Y-75626606D01*
X131756873Y-75692412D01*
X131815495Y-75936591D01*
X131817388Y-75941162D01*
X131817389Y-75941164D01*
X131884816Y-76103946D01*
X131912384Y-76170502D01*
X132044672Y-76386376D01*
X132209102Y-76578898D01*
X132401624Y-76743328D01*
X132617498Y-76875616D01*
X132622068Y-76877509D01*
X132622072Y-76877511D01*
X132846836Y-76970611D01*
X132851409Y-76972505D01*
X132936032Y-76992821D01*
X133092784Y-77030454D01*
X133092790Y-77030455D01*
X133097597Y-77031609D01*
X133197416Y-77039465D01*
X133284345Y-77046307D01*
X133284352Y-77046307D01*
X133286801Y-77046500D01*
X133413199Y-77046500D01*
X133415648Y-77046307D01*
X133415655Y-77046307D01*
X133502584Y-77039465D01*
X133602403Y-77031609D01*
X133607210Y-77030455D01*
X133607216Y-77030454D01*
X133763968Y-76992821D01*
X133848591Y-76972505D01*
X133853164Y-76970611D01*
X134077928Y-76877511D01*
X134077932Y-76877509D01*
X134082502Y-76875616D01*
X134298376Y-76743328D01*
X134490898Y-76578898D01*
X134655328Y-76386376D01*
X134787616Y-76170502D01*
X134815185Y-76103946D01*
X134882611Y-75941164D01*
X134882612Y-75941162D01*
X134884505Y-75936591D01*
X134909046Y-75834369D01*
X134942454Y-75695216D01*
X134942455Y-75695210D01*
X134943609Y-75690403D01*
X134963474Y-75438000D01*
X134943609Y-75185597D01*
X134936044Y-75154083D01*
X134885660Y-74944221D01*
X134884505Y-74939409D01*
X134882611Y-74934836D01*
X134789511Y-74710072D01*
X134789509Y-74710068D01*
X134787616Y-74705498D01*
X134655328Y-74489624D01*
X134490898Y-74297102D01*
X134298376Y-74132672D01*
X134082502Y-74000384D01*
X134077932Y-73998491D01*
X134077928Y-73998489D01*
X133853164Y-73905389D01*
X133853162Y-73905388D01*
X133848591Y-73903495D01*
X133763968Y-73883179D01*
X133607216Y-73845546D01*
X133607210Y-73845545D01*
X133602403Y-73844391D01*
X133502584Y-73836535D01*
X133415655Y-73829693D01*
X133415648Y-73829693D01*
X133413199Y-73829500D01*
X133286801Y-73829500D01*
X133284352Y-73829693D01*
X133284345Y-73829693D01*
X133197416Y-73836535D01*
X133097597Y-73844391D01*
X133092790Y-73845545D01*
X133092784Y-73845546D01*
X132936032Y-73883179D01*
X132851409Y-73903495D01*
X132846838Y-73905388D01*
X132846836Y-73905389D01*
X132622072Y-73998489D01*
X132622068Y-73998491D01*
X132617498Y-74000384D01*
X132401624Y-74132672D01*
X132209102Y-74297102D01*
X132044672Y-74489624D01*
X131912384Y-74705498D01*
X131910491Y-74710068D01*
X131910489Y-74710072D01*
X131817389Y-74934836D01*
X131815495Y-74939409D01*
X131756894Y-75183502D01*
X131721542Y-75245071D01*
X131658515Y-75277754D01*
X131587824Y-75271174D01*
X131531913Y-75227419D01*
X131508375Y-75154083D01*
X131508383Y-74922778D01*
X131508470Y-72500750D01*
X131528474Y-72432632D01*
X131582132Y-72386141D01*
X131652406Y-72376040D01*
X131716986Y-72405536D01*
X131749065Y-72448375D01*
X131749682Y-72449724D01*
X131751256Y-72453939D01*
X131875309Y-72680950D01*
X131878006Y-72684550D01*
X132027682Y-72884359D01*
X132030406Y-72887996D01*
X132213390Y-73070862D01*
X132216994Y-73073558D01*
X132416931Y-73223128D01*
X132416937Y-73223132D01*
X132420537Y-73225825D01*
X132424488Y-73227981D01*
X132424490Y-73227982D01*
X132445541Y-73239468D01*
X132647628Y-73349731D01*
X132651843Y-73351302D01*
X132651844Y-73351302D01*
X132885824Y-73438487D01*
X132885828Y-73438488D01*
X132890041Y-73440058D01*
X133142842Y-73494966D01*
X133147328Y-73495285D01*
X133147332Y-73495286D01*
X133249330Y-73502548D01*
X133400884Y-73513338D01*
X133405366Y-73513016D01*
X133405373Y-73513016D01*
X133654425Y-73495123D01*
X133654432Y-73495122D01*
X133658914Y-73494800D01*
X133911680Y-73439729D01*
X134091496Y-73372595D01*
X134149820Y-73350820D01*
X134149824Y-73350818D01*
X134154035Y-73349246D01*
X134381047Y-73225194D01*
X134588093Y-73070097D01*
X134770959Y-72887113D01*
X134925923Y-72679967D01*
X135049830Y-72452876D01*
X135074719Y-72386081D01*
X135138586Y-72214680D01*
X135138587Y-72214676D01*
X135140157Y-72210463D01*
X135181111Y-72021908D01*
X135194109Y-71962064D01*
X135194109Y-71962063D01*
X135195065Y-71957662D01*
X135202250Y-71856763D01*
X135211122Y-71732157D01*
X135212542Y-71720249D01*
X135212726Y-71719151D01*
X135213898Y-71712172D01*
X135214047Y-71699620D01*
X135210092Y-71672063D01*
X135208814Y-71654177D01*
X135208814Y-71647475D01*
X135208802Y-71523942D01*
X135208775Y-71228427D01*
X135228771Y-71160304D01*
X135282422Y-71113806D01*
X135334844Y-71102415D01*
X137543613Y-71103617D01*
G37*
%TD.AperFunction*%
%TA.AperFunction,Conductor*%
G36*
X145683621Y-109746502D02*
G01*
X145730114Y-109800158D01*
X145741500Y-109852500D01*
X145741500Y-110181629D01*
X145721498Y-110249750D01*
X145704595Y-110270724D01*
X141829669Y-114145650D01*
X141766772Y-114179801D01*
X141710176Y-114191831D01*
X141710167Y-114191834D01*
X141703712Y-114193206D01*
X141697682Y-114195891D01*
X141697681Y-114195891D01*
X141535278Y-114268197D01*
X141535276Y-114268198D01*
X141529248Y-114270882D01*
X141523907Y-114274762D01*
X141523906Y-114274763D01*
X141469868Y-114314024D01*
X141374747Y-114383134D01*
X141370334Y-114388036D01*
X141370332Y-114388037D01*
X141362578Y-114396649D01*
X141302132Y-114433888D01*
X141231148Y-114432536D01*
X141168116Y-114387903D01*
X141148642Y-114361919D01*
X141143261Y-114354739D01*
X141088935Y-114314024D01*
X141046420Y-114257165D01*
X141038500Y-114213198D01*
X141038500Y-110322802D01*
X141058502Y-110254681D01*
X141088935Y-110221976D01*
X141109618Y-110206475D01*
X141143261Y-110181261D01*
X141230615Y-110064705D01*
X141281745Y-109928316D01*
X141288500Y-109866134D01*
X141288500Y-109852500D01*
X141308502Y-109784379D01*
X141362158Y-109737886D01*
X141414500Y-109726500D01*
X145615500Y-109726500D01*
X145683621Y-109746502D01*
G37*
%TD.AperFunction*%
%TA.AperFunction,Conductor*%
G36*
X145855794Y-71108141D02*
G01*
X149386747Y-71110064D01*
X150365890Y-71110597D01*
X150433996Y-71130635D01*
X150480460Y-71184316D01*
X150491818Y-71236596D01*
X150491818Y-71639914D01*
X150471816Y-71708035D01*
X150418160Y-71754528D01*
X150347886Y-71764632D01*
X150339621Y-71763161D01*
X150215944Y-71736872D01*
X150215939Y-71736872D01*
X150209487Y-71735500D01*
X150018513Y-71735500D01*
X150012061Y-71736872D01*
X150012056Y-71736872D01*
X149928994Y-71754528D01*
X149831712Y-71775206D01*
X149825682Y-71777891D01*
X149825681Y-71777891D01*
X149663278Y-71850197D01*
X149663276Y-71850198D01*
X149657248Y-71852882D01*
X149651907Y-71856762D01*
X149651906Y-71856763D01*
X149640316Y-71865184D01*
X149502747Y-71965134D01*
X149498326Y-71970044D01*
X149498325Y-71970045D01*
X149451628Y-72021908D01*
X149374960Y-72107056D01*
X149279473Y-72272444D01*
X149227425Y-72432632D01*
X149224613Y-72441285D01*
X149193875Y-72491444D01*
X148312724Y-73372595D01*
X148250412Y-73406621D01*
X148223629Y-73409500D01*
X143113895Y-73409500D01*
X143045774Y-73389498D01*
X142999281Y-73335842D01*
X142989177Y-73265568D01*
X143018671Y-73200988D01*
X143038386Y-73182632D01*
X143184055Y-73073585D01*
X143184056Y-73073584D01*
X143187659Y-73070887D01*
X143370583Y-72887963D01*
X143525612Y-72680869D01*
X143623963Y-72500752D01*
X143647435Y-72457767D01*
X143647439Y-72457759D01*
X143649590Y-72453819D01*
X143710571Y-72290323D01*
X143738425Y-72215645D01*
X143738427Y-72215639D01*
X143739994Y-72211437D01*
X143741164Y-72206061D01*
X143794027Y-71963050D01*
X143794983Y-71958656D01*
X143811110Y-71733166D01*
X143812536Y-71721251D01*
X143813087Y-71717977D01*
X143813088Y-71717963D01*
X143813894Y-71713174D01*
X143814047Y-71700622D01*
X143813358Y-71695810D01*
X143813357Y-71695796D01*
X143810087Y-71672965D01*
X143808814Y-71655114D01*
X143808775Y-71233108D01*
X143828771Y-71164985D01*
X143882422Y-71118487D01*
X143934844Y-71107096D01*
X145855794Y-71108141D01*
G37*
%TD.AperFunction*%
%TD*%
M02*
