%TF.GenerationSoftware,KiCad,Pcbnew,(6.0.5)*%
%TF.CreationDate,2023-02-05T19:42:52+01:00*%
%TF.ProjectId,PicoMemcard-pico,5069636f-4d65-46d6-9361-72642d706963,1.1.2*%
%TF.SameCoordinates,Original*%
%TF.FileFunction,Legend,Bot*%
%TF.FilePolarity,Positive*%
%FSLAX46Y46*%
G04 Gerber Fmt 4.6, Leading zero omitted, Abs format (unit mm)*
G04 Created by KiCad (PCBNEW (6.0.5)) date 2023-02-05 19:42:52*
%MOMM*%
%LPD*%
G01*
G04 APERTURE LIST*
%ADD10C,0.150000*%
%ADD11C,0.100000*%
%ADD12C,0.120000*%
%ADD13C,0.250000*%
%ADD14C,0.160000*%
G04 APERTURE END LIST*
D10*
%TO.C,J2*%
X159002380Y-117914666D02*
X159716666Y-117914666D01*
X159859523Y-117867047D01*
X159954761Y-117771809D01*
X160002380Y-117628952D01*
X160002380Y-117533714D01*
X159097619Y-118343238D02*
X159050000Y-118390857D01*
X159002380Y-118486095D01*
X159002380Y-118724190D01*
X159050000Y-118819428D01*
X159097619Y-118867047D01*
X159192857Y-118914666D01*
X159288095Y-118914666D01*
X159430952Y-118867047D01*
X160002380Y-118295619D01*
X160002380Y-118914666D01*
D11*
X156923809Y-114133714D02*
X157423809Y-114133714D01*
X157066666Y-113967047D01*
X157423809Y-113800380D01*
X156923809Y-113800380D01*
X156923809Y-113562285D02*
X157423809Y-113562285D01*
X156947619Y-113348000D02*
X156923809Y-113276571D01*
X156923809Y-113157523D01*
X156947619Y-113109904D01*
X156971428Y-113086095D01*
X157019047Y-113062285D01*
X157066666Y-113062285D01*
X157114285Y-113086095D01*
X157138095Y-113109904D01*
X157161904Y-113157523D01*
X157185714Y-113252761D01*
X157209523Y-113300380D01*
X157233333Y-113324190D01*
X157280952Y-113348000D01*
X157328571Y-113348000D01*
X157376190Y-113324190D01*
X157400000Y-113300380D01*
X157423809Y-113252761D01*
X157423809Y-113133714D01*
X157400000Y-113062285D01*
X157423809Y-112752761D02*
X157423809Y-112657523D01*
X157400000Y-112609904D01*
X157352380Y-112562285D01*
X157257142Y-112538476D01*
X157090476Y-112538476D01*
X156995238Y-112562285D01*
X156947619Y-112609904D01*
X156923809Y-112657523D01*
X156923809Y-112752761D01*
X156947619Y-112800380D01*
X156995238Y-112848000D01*
X157090476Y-112871809D01*
X157257142Y-112871809D01*
X157352380Y-112848000D01*
X157400000Y-112800380D01*
X157423809Y-112752761D01*
X147423809Y-113943238D02*
X147423809Y-113633714D01*
X147233333Y-113800380D01*
X147233333Y-113728952D01*
X147209523Y-113681333D01*
X147185714Y-113657523D01*
X147138095Y-113633714D01*
X147019047Y-113633714D01*
X146971428Y-113657523D01*
X146947619Y-113681333D01*
X146923809Y-113728952D01*
X146923809Y-113871809D01*
X146947619Y-113919428D01*
X146971428Y-113943238D01*
X147257142Y-113467047D02*
X146923809Y-113348000D01*
X147257142Y-113228952D01*
X147423809Y-113086095D02*
X147423809Y-112776571D01*
X147233333Y-112943238D01*
X147233333Y-112871809D01*
X147209523Y-112824190D01*
X147185714Y-112800380D01*
X147138095Y-112776571D01*
X147019047Y-112776571D01*
X146971428Y-112800380D01*
X146947619Y-112824190D01*
X146923809Y-112871809D01*
X146923809Y-113014666D01*
X146947619Y-113062285D01*
X146971428Y-113086095D01*
X154547619Y-113990857D02*
X154523809Y-113919428D01*
X154523809Y-113800380D01*
X154547619Y-113752761D01*
X154571428Y-113728952D01*
X154619047Y-113705142D01*
X154666666Y-113705142D01*
X154714285Y-113728952D01*
X154738095Y-113752761D01*
X154761904Y-113800380D01*
X154785714Y-113895619D01*
X154809523Y-113943238D01*
X154833333Y-113967047D01*
X154880952Y-113990857D01*
X154928571Y-113990857D01*
X154976190Y-113967047D01*
X155000000Y-113943238D01*
X155023809Y-113895619D01*
X155023809Y-113776571D01*
X155000000Y-113705142D01*
X154571428Y-113205142D02*
X154547619Y-113228952D01*
X154523809Y-113300380D01*
X154523809Y-113348000D01*
X154547619Y-113419428D01*
X154595238Y-113467047D01*
X154642857Y-113490857D01*
X154738095Y-113514666D01*
X154809523Y-113514666D01*
X154904761Y-113490857D01*
X154952380Y-113467047D01*
X155000000Y-113419428D01*
X155023809Y-113348000D01*
X155023809Y-113300380D01*
X155000000Y-113228952D01*
X154976190Y-113205142D01*
X154523809Y-112990857D02*
X155023809Y-112990857D01*
X154523809Y-112705142D02*
X154809523Y-112919428D01*
X155023809Y-112705142D02*
X154738095Y-112990857D01*
X149471428Y-113331333D02*
X149447619Y-113355142D01*
X149423809Y-113426571D01*
X149423809Y-113474190D01*
X149447619Y-113545619D01*
X149495238Y-113593238D01*
X149542857Y-113617047D01*
X149638095Y-113640857D01*
X149709523Y-113640857D01*
X149804761Y-113617047D01*
X149852380Y-113593238D01*
X149900000Y-113545619D01*
X149923809Y-113474190D01*
X149923809Y-113426571D01*
X149900000Y-113355142D01*
X149876190Y-113331333D01*
X149447619Y-113140857D02*
X149423809Y-113069428D01*
X149423809Y-112950380D01*
X149447619Y-112902761D01*
X149471428Y-112878952D01*
X149519047Y-112855142D01*
X149566666Y-112855142D01*
X149614285Y-112878952D01*
X149638095Y-112902761D01*
X149661904Y-112950380D01*
X149685714Y-113045619D01*
X149709523Y-113093238D01*
X149733333Y-113117047D01*
X149780952Y-113140857D01*
X149828571Y-113140857D01*
X149876190Y-113117047D01*
X149900000Y-113093238D01*
X149923809Y-113045619D01*
X149923809Y-112926571D01*
X149900000Y-112855142D01*
X159900000Y-113728952D02*
X159923809Y-113776571D01*
X159923809Y-113848000D01*
X159900000Y-113919428D01*
X159852380Y-113967047D01*
X159804761Y-113990857D01*
X159709523Y-114014666D01*
X159638095Y-114014666D01*
X159542857Y-113990857D01*
X159495238Y-113967047D01*
X159447619Y-113919428D01*
X159423809Y-113848000D01*
X159423809Y-113800380D01*
X159447619Y-113728952D01*
X159471428Y-113705142D01*
X159638095Y-113705142D01*
X159638095Y-113800380D01*
X159423809Y-113490857D02*
X159923809Y-113490857D01*
X159423809Y-113205142D01*
X159923809Y-113205142D01*
X159423809Y-112967047D02*
X159923809Y-112967047D01*
X159923809Y-112848000D01*
X159900000Y-112776571D01*
X159852380Y-112728952D01*
X159804761Y-112705142D01*
X159709523Y-112681333D01*
X159638095Y-112681333D01*
X159542857Y-112705142D01*
X159495238Y-112728952D01*
X159447619Y-112776571D01*
X159423809Y-112848000D01*
X159423809Y-112967047D01*
X151923809Y-114133714D02*
X152423809Y-114133714D01*
X152066666Y-113967047D01*
X152423809Y-113800380D01*
X151923809Y-113800380D01*
X152423809Y-113467047D02*
X152423809Y-113371809D01*
X152400000Y-113324190D01*
X152352380Y-113276571D01*
X152257142Y-113252761D01*
X152090476Y-113252761D01*
X151995238Y-113276571D01*
X151947619Y-113324190D01*
X151923809Y-113371809D01*
X151923809Y-113467047D01*
X151947619Y-113514666D01*
X151995238Y-113562285D01*
X152090476Y-113586095D01*
X152257142Y-113586095D01*
X152352380Y-113562285D01*
X152400000Y-113514666D01*
X152423809Y-113467047D01*
X151947619Y-113062285D02*
X151923809Y-112990857D01*
X151923809Y-112871809D01*
X151947619Y-112824190D01*
X151971428Y-112800380D01*
X152019047Y-112776571D01*
X152066666Y-112776571D01*
X152114285Y-112800380D01*
X152138095Y-112824190D01*
X152161904Y-112871809D01*
X152185714Y-112967047D01*
X152209523Y-113014666D01*
X152233333Y-113038476D01*
X152280952Y-113062285D01*
X152328571Y-113062285D01*
X152376190Y-113038476D01*
X152400000Y-113014666D01*
X152423809Y-112967047D01*
X152423809Y-112848000D01*
X152400000Y-112776571D01*
X151923809Y-112562285D02*
X152423809Y-112562285D01*
D10*
%TO.C,1*%
X138144285Y-103068380D02*
X138715714Y-103068380D01*
X138430000Y-103068380D02*
X138430000Y-102068380D01*
X138525238Y-102211238D01*
X138620476Y-102306476D01*
X138715714Y-102354095D01*
%TO.C,2*%
X138715714Y-111815619D02*
X138668095Y-111768000D01*
X138572857Y-111720380D01*
X138334761Y-111720380D01*
X138239523Y-111768000D01*
X138191904Y-111815619D01*
X138144285Y-111910857D01*
X138144285Y-112006095D01*
X138191904Y-112148952D01*
X138763333Y-112720380D01*
X138144285Y-112720380D01*
%TO.C,3*%
X138763333Y-121372380D02*
X138144285Y-121372380D01*
X138477619Y-121753333D01*
X138334761Y-121753333D01*
X138239523Y-121800952D01*
X138191904Y-121848571D01*
X138144285Y-121943809D01*
X138144285Y-122181904D01*
X138191904Y-122277142D01*
X138239523Y-122324761D01*
X138334761Y-122372380D01*
X138620476Y-122372380D01*
X138715714Y-122324761D01*
X138763333Y-122277142D01*
D12*
%TO.C,J2*%
X143450000Y-107648000D02*
X161350000Y-107648000D01*
X161350000Y-127048000D02*
X143450000Y-127048000D01*
X143450000Y-107648000D02*
X143450000Y-127048000D01*
X161350000Y-127048000D02*
X161350000Y-107648000D01*
X160750000Y-127048000D02*
X145950000Y-127048000D01*
X145950000Y-127048000D02*
X145950000Y-112248000D01*
X145950000Y-112248000D02*
X160750000Y-112248000D01*
X160750000Y-112248000D02*
X160750000Y-127048000D01*
D13*
%TO.C,1*%
X139600000Y-105166000D02*
X137260000Y-105166000D01*
X136770000Y-100446000D02*
X135880000Y-101336000D01*
X136770000Y-104786000D02*
X135880000Y-103896000D01*
X140980000Y-103896000D02*
X140090000Y-104786000D01*
X140980000Y-101336000D02*
X140090000Y-100446000D01*
X137530000Y-100816000D02*
X136530000Y-101816000D01*
X139330000Y-100816000D02*
X137530000Y-100816000D01*
X140230000Y-103616000D02*
X140230000Y-101716000D01*
X140230000Y-101716000D02*
X139330000Y-100816000D01*
X136530000Y-103516000D02*
X137430000Y-104416000D01*
X139430000Y-104416000D02*
X140230000Y-103616000D01*
X140980000Y-103896000D02*
X140980000Y-101336000D01*
X136530000Y-101816000D02*
X136530000Y-103516000D01*
X139600000Y-100066000D02*
X137260000Y-100066000D01*
X135880000Y-103896000D02*
X135880000Y-101336000D01*
X137430000Y-104416000D02*
X139430000Y-104416000D01*
D14*
X141110000Y-105916000D02*
G75*
G03*
X141110000Y-105916000I-80000J0D01*
G01*
D13*
X139710000Y-102616000D02*
G75*
G03*
X139710000Y-102616000I-1280000J0D01*
G01*
%TO.C,2*%
X137530000Y-110468000D02*
X136530000Y-111468000D01*
X140980000Y-113548000D02*
X140980000Y-110988000D01*
X139430000Y-114068000D02*
X140230000Y-113268000D01*
X140980000Y-113548000D02*
X140090000Y-114438000D01*
X137430000Y-114068000D02*
X139430000Y-114068000D01*
X139600000Y-109718000D02*
X137260000Y-109718000D01*
X136770000Y-114438000D02*
X135880000Y-113548000D01*
X140230000Y-113268000D02*
X140230000Y-111368000D01*
X139330000Y-110468000D02*
X137530000Y-110468000D01*
X136770000Y-110098000D02*
X135880000Y-110988000D01*
X135880000Y-113548000D02*
X135880000Y-110988000D01*
X140230000Y-111368000D02*
X139330000Y-110468000D01*
X136530000Y-113168000D02*
X137430000Y-114068000D01*
X136530000Y-111468000D02*
X136530000Y-113168000D01*
X140980000Y-110988000D02*
X140090000Y-110098000D01*
X139600000Y-114818000D02*
X137260000Y-114818000D01*
X139710000Y-112268000D02*
G75*
G03*
X139710000Y-112268000I-1280000J0D01*
G01*
D14*
X141110000Y-115568000D02*
G75*
G03*
X141110000Y-115568000I-80000J0D01*
G01*
D13*
%TO.C,3*%
X137430000Y-123720000D02*
X139430000Y-123720000D01*
X140230000Y-122920000D02*
X140230000Y-121020000D01*
X135880000Y-123200000D02*
X135880000Y-120640000D01*
X136770000Y-119750000D02*
X135880000Y-120640000D01*
X136530000Y-122820000D02*
X137430000Y-123720000D01*
X140980000Y-123200000D02*
X140090000Y-124090000D01*
X140980000Y-123200000D02*
X140980000Y-120640000D01*
X139600000Y-119370000D02*
X137260000Y-119370000D01*
X139430000Y-123720000D02*
X140230000Y-122920000D01*
X140980000Y-120640000D02*
X140090000Y-119750000D01*
X139330000Y-120120000D02*
X137530000Y-120120000D01*
X136770000Y-124090000D02*
X135880000Y-123200000D01*
X137530000Y-120120000D02*
X136530000Y-121120000D01*
X136530000Y-121120000D02*
X136530000Y-122820000D01*
X139600000Y-124470000D02*
X137260000Y-124470000D01*
X140230000Y-121020000D02*
X139330000Y-120120000D01*
X139710000Y-121920000D02*
G75*
G03*
X139710000Y-121920000I-1280000J0D01*
G01*
D14*
X141110000Y-125220000D02*
G75*
G03*
X141110000Y-125220000I-80000J0D01*
G01*
%TD*%
M02*
