M48
; DRILL file {KiCad (6.0.5)} date Sun Feb  5 19:42:50 2023
; FORMAT={-:-/ absolute / metric / decimal}
; #@! TF.CreationDate,2023-02-05T19:42:50+01:00
; #@! TF.GenerationSoftware,Kicad,Pcbnew,(6.0.5)
; #@! TF.FileFunction,Plated,1,2,PTH
FMAT,2
METRIC
; #@! TA.AperFunction,Plated,PTH,ViaDrill
T1C0.200
; #@! TA.AperFunction,Plated,PTH,ViaDrill
T2C0.400
; #@! TA.AperFunction,Plated,PTH,ComponentDrill
T3C1.020
%
G90
G05
T1
X132.842Y-87.884
X133.604Y-110.49
X134.366Y-80.772
X134.366Y-92.71
X134.366Y-124.714
X134.62Y-119.888
X134.874Y-117.094
X135.128Y-85.598
X135.128Y-106.172
X135.636Y-102.362
X136.398Y-73.406
X141.986Y-89.408
X142.24Y-86.106
X142.494Y-78.232
X142.494Y-110.998
X142.494Y-123.698
X144.018Y-104.648
X144.526Y-75.692
X144.78Y-72.898
X148.082Y-115.316
X152.654Y-80.772
X152.654Y-89.662
X152.654Y-100.076
X154.432Y-124.714
X154.94Y-115.57
X162.56Y-100.33
X162.56Y-115.824
X162.814Y-81.026
T2
X134.62Y-78.232
X141.986Y-115.062
X150.114Y-72.644
T3
X146.558Y-77.192
X149.098Y-77.192
X151.638Y-77.192
T0
M30
