%TF.GenerationSoftware,KiCad,Pcbnew,(6.0.5)*%
%TF.CreationDate,2023-02-05T19:42:52+01:00*%
%TF.ProjectId,PicoMemcard-pico,5069636f-4d65-46d6-9361-72642d706963,1.1.2*%
%TF.SameCoordinates,Original*%
%TF.FileFunction,Profile,NP*%
%FSLAX46Y46*%
G04 Gerber Fmt 4.6, Leading zero omitted, Abs format (unit mm)*
G04 Created by KiCad (PCBNEW (6.0.5)) date 2023-02-05 19:42:52*
%MOMM*%
%LPD*%
G01*
G04 APERTURE LIST*
%TA.AperFunction,Profile*%
%ADD10C,0.200000*%
%TD*%
G04 APERTURE END LIST*
D10*
X161300318Y-64900622D02*
X161300318Y-71700622D01*
X131000000Y-71700000D02*
X130998000Y-127254000D01*
X151000318Y-71700622D02*
G75*
G03*
X153600318Y-71700622I1300000J0D01*
G01*
X140700376Y-64900624D02*
G75*
G03*
X140000725Y-64199987I-673676J26924D01*
G01*
X140700318Y-71700622D02*
G75*
G03*
X143300318Y-71700622I1300000J0D01*
G01*
X167200000Y-71700000D02*
X167198000Y-127254000D01*
X154300318Y-64200623D02*
G75*
G03*
X153599683Y-64900216I-27018J-673577D01*
G01*
X154300318Y-64200622D02*
X160600725Y-64199987D01*
X130998000Y-127254000D02*
X167198000Y-127254000D01*
X144000318Y-64200622D02*
X150300725Y-64199987D01*
X161300376Y-64900624D02*
G75*
G03*
X160600725Y-64199987I-673676J26924D01*
G01*
X135400318Y-64200623D02*
G75*
G03*
X134699683Y-64900216I-27018J-673577D01*
G01*
X144000318Y-64200623D02*
G75*
G03*
X143299683Y-64900216I-27018J-673577D01*
G01*
X163900318Y-71699784D02*
X167200000Y-71700000D01*
X151000376Y-64900624D02*
G75*
G03*
X150300725Y-64199987I-673676J26924D01*
G01*
X132100318Y-71700622D02*
X131000000Y-71700000D01*
X134700318Y-71699784D02*
X134699683Y-64900216D01*
X151000318Y-64900622D02*
X151000318Y-71700622D01*
X135400318Y-64200622D02*
X140000725Y-64199987D01*
X161300282Y-71700622D02*
G75*
G03*
X163900318Y-71699784I1300018J422D01*
G01*
X143300318Y-71700622D02*
X143299683Y-64900216D01*
X140700318Y-64900622D02*
X140700318Y-71700622D01*
X132100282Y-71700622D02*
G75*
G03*
X134700318Y-71699784I1300018J422D01*
G01*
X153600318Y-71700622D02*
X153599683Y-64900216D01*
M02*
