%TF.GenerationSoftware,KiCad,Pcbnew,(6.0.5)*%
%TF.CreationDate,2023-02-05T19:42:25+01:00*%
%TF.ProjectId,PicoMemcard-rp2040zero,5069636f-4d65-46d6-9361-72642d727032,1.3.1*%
%TF.SameCoordinates,Original*%
%TF.FileFunction,Legend,Top*%
%TF.FilePolarity,Positive*%
%FSLAX46Y46*%
G04 Gerber Fmt 4.6, Leading zero omitted, Abs format (unit mm)*
G04 Created by KiCad (PCBNEW (6.0.5)) date 2023-02-05 19:42:25*
%MOMM*%
%LPD*%
G01*
G04 APERTURE LIST*
%ADD10C,0.220000*%
%ADD11C,0.300000*%
%ADD12C,0.200000*%
%ADD13C,0.150000*%
G04 APERTURE END LIST*
D10*
X145375809Y-102823714D02*
X145375809Y-103633238D01*
X145328190Y-103728476D01*
X145280571Y-103776095D01*
X145185333Y-103823714D01*
X145042476Y-103823714D01*
X144947238Y-103776095D01*
X145375809Y-103442761D02*
X145280571Y-103490380D01*
X145090095Y-103490380D01*
X144994857Y-103442761D01*
X144947238Y-103395142D01*
X144899619Y-103299904D01*
X144899619Y-103014190D01*
X144947238Y-102918952D01*
X144994857Y-102871333D01*
X145090095Y-102823714D01*
X145280571Y-102823714D01*
X145375809Y-102871333D01*
X145852000Y-103490380D02*
X145852000Y-102823714D01*
X145852000Y-102490380D02*
X145804380Y-102538000D01*
X145852000Y-102585619D01*
X145899619Y-102538000D01*
X145852000Y-102490380D01*
X145852000Y-102585619D01*
X146185333Y-102823714D02*
X146566285Y-102823714D01*
X146328190Y-102490380D02*
X146328190Y-103347523D01*
X146375809Y-103442761D01*
X146471047Y-103490380D01*
X146566285Y-103490380D01*
X146899619Y-103490380D02*
X146899619Y-102490380D01*
X147328190Y-103490380D02*
X147328190Y-102966571D01*
X147280571Y-102871333D01*
X147185333Y-102823714D01*
X147042476Y-102823714D01*
X146947238Y-102871333D01*
X146899619Y-102918952D01*
X148232952Y-102823714D02*
X148232952Y-103490380D01*
X147804380Y-102823714D02*
X147804380Y-103347523D01*
X147852000Y-103442761D01*
X147947238Y-103490380D01*
X148090095Y-103490380D01*
X148185333Y-103442761D01*
X148232952Y-103395142D01*
X148709142Y-103490380D02*
X148709142Y-102490380D01*
X148709142Y-102871333D02*
X148804380Y-102823714D01*
X148994857Y-102823714D01*
X149090095Y-102871333D01*
X149137714Y-102918952D01*
X149185333Y-103014190D01*
X149185333Y-103299904D01*
X149137714Y-103395142D01*
X149090095Y-103442761D01*
X148994857Y-103490380D01*
X148804380Y-103490380D01*
X148709142Y-103442761D01*
X149613904Y-103395142D02*
X149661523Y-103442761D01*
X149613904Y-103490380D01*
X149566285Y-103442761D01*
X149613904Y-103395142D01*
X149613904Y-103490380D01*
X150518666Y-103442761D02*
X150423428Y-103490380D01*
X150232952Y-103490380D01*
X150137714Y-103442761D01*
X150090095Y-103395142D01*
X150042476Y-103299904D01*
X150042476Y-103014190D01*
X150090095Y-102918952D01*
X150137714Y-102871333D01*
X150232952Y-102823714D01*
X150423428Y-102823714D01*
X150518666Y-102871333D01*
X151090095Y-103490380D02*
X150994857Y-103442761D01*
X150947238Y-103395142D01*
X150899619Y-103299904D01*
X150899619Y-103014190D01*
X150947238Y-102918952D01*
X150994857Y-102871333D01*
X151090095Y-102823714D01*
X151232952Y-102823714D01*
X151328190Y-102871333D01*
X151375809Y-102918952D01*
X151423428Y-103014190D01*
X151423428Y-103299904D01*
X151375809Y-103395142D01*
X151328190Y-103442761D01*
X151232952Y-103490380D01*
X151090095Y-103490380D01*
X151852000Y-103490380D02*
X151852000Y-102823714D01*
X151852000Y-102918952D02*
X151899619Y-102871333D01*
X151994857Y-102823714D01*
X152137714Y-102823714D01*
X152232952Y-102871333D01*
X152280571Y-102966571D01*
X152280571Y-103490380D01*
X152280571Y-102966571D02*
X152328190Y-102871333D01*
X152423428Y-102823714D01*
X152566285Y-102823714D01*
X152661523Y-102871333D01*
X152709142Y-102966571D01*
X152709142Y-103490380D01*
X153899619Y-102442761D02*
X153042476Y-103728476D01*
X146994857Y-105100380D02*
X146994857Y-104100380D01*
X146994857Y-105052761D02*
X146899619Y-105100380D01*
X146709142Y-105100380D01*
X146613904Y-105052761D01*
X146566285Y-105005142D01*
X146518666Y-104909904D01*
X146518666Y-104624190D01*
X146566285Y-104528952D01*
X146613904Y-104481333D01*
X146709142Y-104433714D01*
X146899619Y-104433714D01*
X146994857Y-104481333D01*
X147899619Y-105100380D02*
X147899619Y-104576571D01*
X147852000Y-104481333D01*
X147756761Y-104433714D01*
X147566285Y-104433714D01*
X147471047Y-104481333D01*
X147899619Y-105052761D02*
X147804380Y-105100380D01*
X147566285Y-105100380D01*
X147471047Y-105052761D01*
X147423428Y-104957523D01*
X147423428Y-104862285D01*
X147471047Y-104767047D01*
X147566285Y-104719428D01*
X147804380Y-104719428D01*
X147899619Y-104671809D01*
X148375809Y-104433714D02*
X148375809Y-105100380D01*
X148375809Y-104528952D02*
X148423428Y-104481333D01*
X148518666Y-104433714D01*
X148661523Y-104433714D01*
X148756761Y-104481333D01*
X148804380Y-104576571D01*
X148804380Y-105100380D01*
X149709142Y-104433714D02*
X149709142Y-105243238D01*
X149661523Y-105338476D01*
X149613904Y-105386095D01*
X149518666Y-105433714D01*
X149375809Y-105433714D01*
X149280571Y-105386095D01*
X149709142Y-105052761D02*
X149613904Y-105100380D01*
X149423428Y-105100380D01*
X149328190Y-105052761D01*
X149280571Y-105005142D01*
X149232952Y-104909904D01*
X149232952Y-104624190D01*
X149280571Y-104528952D01*
X149328190Y-104481333D01*
X149423428Y-104433714D01*
X149613904Y-104433714D01*
X149709142Y-104481333D01*
X150185333Y-105100380D02*
X150185333Y-104433714D01*
X150185333Y-104100380D02*
X150137714Y-104148000D01*
X150185333Y-104195619D01*
X150232952Y-104148000D01*
X150185333Y-104100380D01*
X150185333Y-104195619D01*
X151090095Y-104433714D02*
X151090095Y-105100380D01*
X150661523Y-104433714D02*
X150661523Y-104957523D01*
X150709142Y-105052761D01*
X150804380Y-105100380D01*
X150947238Y-105100380D01*
X151042476Y-105052761D01*
X151090095Y-105005142D01*
X152280571Y-104052761D02*
X151423428Y-105338476D01*
X144661523Y-106710380D02*
X144661523Y-105710380D01*
X145042476Y-105710380D01*
X145137714Y-105758000D01*
X145185333Y-105805619D01*
X145232952Y-105900857D01*
X145232952Y-106043714D01*
X145185333Y-106138952D01*
X145137714Y-106186571D01*
X145042476Y-106234190D01*
X144661523Y-106234190D01*
X145661523Y-106710380D02*
X145661523Y-106043714D01*
X145661523Y-105710380D02*
X145613904Y-105758000D01*
X145661523Y-105805619D01*
X145709142Y-105758000D01*
X145661523Y-105710380D01*
X145661523Y-105805619D01*
X146566285Y-106662761D02*
X146471047Y-106710380D01*
X146280571Y-106710380D01*
X146185333Y-106662761D01*
X146137714Y-106615142D01*
X146090095Y-106519904D01*
X146090095Y-106234190D01*
X146137714Y-106138952D01*
X146185333Y-106091333D01*
X146280571Y-106043714D01*
X146471047Y-106043714D01*
X146566285Y-106091333D01*
X147137714Y-106710380D02*
X147042476Y-106662761D01*
X146994857Y-106615142D01*
X146947238Y-106519904D01*
X146947238Y-106234190D01*
X146994857Y-106138952D01*
X147042476Y-106091333D01*
X147137714Y-106043714D01*
X147280571Y-106043714D01*
X147375809Y-106091333D01*
X147423428Y-106138952D01*
X147471047Y-106234190D01*
X147471047Y-106519904D01*
X147423428Y-106615142D01*
X147375809Y-106662761D01*
X147280571Y-106710380D01*
X147137714Y-106710380D01*
X147899619Y-106710380D02*
X147899619Y-105710380D01*
X148232952Y-106424666D01*
X148566285Y-105710380D01*
X148566285Y-106710380D01*
X149423428Y-106662761D02*
X149328190Y-106710380D01*
X149137714Y-106710380D01*
X149042476Y-106662761D01*
X148994857Y-106567523D01*
X148994857Y-106186571D01*
X149042476Y-106091333D01*
X149137714Y-106043714D01*
X149328190Y-106043714D01*
X149423428Y-106091333D01*
X149471047Y-106186571D01*
X149471047Y-106281809D01*
X148994857Y-106377047D01*
X149899619Y-106710380D02*
X149899619Y-106043714D01*
X149899619Y-106138952D02*
X149947238Y-106091333D01*
X150042476Y-106043714D01*
X150185333Y-106043714D01*
X150280571Y-106091333D01*
X150328190Y-106186571D01*
X150328190Y-106710380D01*
X150328190Y-106186571D02*
X150375809Y-106091333D01*
X150471047Y-106043714D01*
X150613904Y-106043714D01*
X150709142Y-106091333D01*
X150756761Y-106186571D01*
X150756761Y-106710380D01*
X151661523Y-106662761D02*
X151566285Y-106710380D01*
X151375809Y-106710380D01*
X151280571Y-106662761D01*
X151232952Y-106615142D01*
X151185333Y-106519904D01*
X151185333Y-106234190D01*
X151232952Y-106138952D01*
X151280571Y-106091333D01*
X151375809Y-106043714D01*
X151566285Y-106043714D01*
X151661523Y-106091333D01*
X152518666Y-106710380D02*
X152518666Y-106186571D01*
X152471047Y-106091333D01*
X152375809Y-106043714D01*
X152185333Y-106043714D01*
X152090095Y-106091333D01*
X152518666Y-106662761D02*
X152423428Y-106710380D01*
X152185333Y-106710380D01*
X152090095Y-106662761D01*
X152042476Y-106567523D01*
X152042476Y-106472285D01*
X152090095Y-106377047D01*
X152185333Y-106329428D01*
X152423428Y-106329428D01*
X152518666Y-106281809D01*
X152994857Y-106710380D02*
X152994857Y-106043714D01*
X152994857Y-106234190D02*
X153042476Y-106138952D01*
X153090095Y-106091333D01*
X153185333Y-106043714D01*
X153280571Y-106043714D01*
X154042476Y-106710380D02*
X154042476Y-105710380D01*
X154042476Y-106662761D02*
X153947238Y-106710380D01*
X153756761Y-106710380D01*
X153661523Y-106662761D01*
X153613904Y-106615142D01*
X153566285Y-106519904D01*
X153566285Y-106234190D01*
X153613904Y-106138952D01*
X153661523Y-106091333D01*
X153756761Y-106043714D01*
X153947238Y-106043714D01*
X154042476Y-106091333D01*
D11*
X145629714Y-108898571D02*
X145986857Y-109898571D01*
X146344000Y-108898571D01*
X147701142Y-109898571D02*
X146844000Y-109898571D01*
X147272571Y-109898571D02*
X147272571Y-108398571D01*
X147129714Y-108612857D01*
X146986857Y-108755714D01*
X146844000Y-108827142D01*
X148344000Y-109755714D02*
X148415428Y-109827142D01*
X148344000Y-109898571D01*
X148272571Y-109827142D01*
X148344000Y-109755714D01*
X148344000Y-109898571D01*
X148915428Y-108398571D02*
X149844000Y-108398571D01*
X149344000Y-108970000D01*
X149558285Y-108970000D01*
X149701142Y-109041428D01*
X149772571Y-109112857D01*
X149844000Y-109255714D01*
X149844000Y-109612857D01*
X149772571Y-109755714D01*
X149701142Y-109827142D01*
X149558285Y-109898571D01*
X149129714Y-109898571D01*
X148986857Y-109827142D01*
X148915428Y-109755714D01*
X150486857Y-109755714D02*
X150558285Y-109827142D01*
X150486857Y-109898571D01*
X150415428Y-109827142D01*
X150486857Y-109755714D01*
X150486857Y-109898571D01*
X151986857Y-109898571D02*
X151129714Y-109898571D01*
X151558285Y-109898571D02*
X151558285Y-108398571D01*
X151415428Y-108612857D01*
X151272571Y-108755714D01*
X151129714Y-108827142D01*
D12*
X153368952Y-112482380D02*
X153368952Y-113196666D01*
X153321333Y-113339523D01*
X153226095Y-113434761D01*
X153083238Y-113482380D01*
X152988000Y-113482380D01*
X154321333Y-113482380D02*
X153845142Y-113482380D01*
X153845142Y-112482380D01*
X155226095Y-113387142D02*
X155178476Y-113434761D01*
X155035619Y-113482380D01*
X154940380Y-113482380D01*
X154797523Y-113434761D01*
X154702285Y-113339523D01*
X154654666Y-113244285D01*
X154607047Y-113053809D01*
X154607047Y-112910952D01*
X154654666Y-112720476D01*
X154702285Y-112625238D01*
X154797523Y-112530000D01*
X154940380Y-112482380D01*
X155035619Y-112482380D01*
X155178476Y-112530000D01*
X155226095Y-112577619D01*
X155940380Y-112482380D02*
X155940380Y-113196666D01*
X155892761Y-113339523D01*
X155797523Y-113434761D01*
X155654666Y-113482380D01*
X155559428Y-113482380D01*
X156892761Y-113482380D02*
X156416571Y-113482380D01*
X156416571Y-112482380D01*
X157797523Y-113387142D02*
X157749904Y-113434761D01*
X157607047Y-113482380D01*
X157511809Y-113482380D01*
X157368952Y-113434761D01*
X157273714Y-113339523D01*
X157226095Y-113244285D01*
X157178476Y-113053809D01*
X157178476Y-112910952D01*
X157226095Y-112720476D01*
X157273714Y-112625238D01*
X157368952Y-112530000D01*
X157511809Y-112482380D01*
X157607047Y-112482380D01*
X157749904Y-112530000D01*
X157797523Y-112577619D01*
X158511809Y-112482380D02*
X158511809Y-113196666D01*
X158464190Y-113339523D01*
X158368952Y-113434761D01*
X158226095Y-113482380D01*
X158130857Y-113482380D01*
X159464190Y-113482380D02*
X158988000Y-113482380D01*
X158988000Y-112482380D01*
X160368952Y-113387142D02*
X160321333Y-113434761D01*
X160178476Y-113482380D01*
X160083238Y-113482380D01*
X159940380Y-113434761D01*
X159845142Y-113339523D01*
X159797523Y-113244285D01*
X159749904Y-113053809D01*
X159749904Y-112910952D01*
X159797523Y-112720476D01*
X159845142Y-112625238D01*
X159940380Y-112530000D01*
X160083238Y-112482380D01*
X160178476Y-112482380D01*
X160321333Y-112530000D01*
X160368952Y-112577619D01*
X161083238Y-112482380D02*
X161083238Y-113196666D01*
X161035619Y-113339523D01*
X160940380Y-113434761D01*
X160797523Y-113482380D01*
X160702285Y-113482380D01*
X162035619Y-113482380D02*
X161559428Y-113482380D01*
X161559428Y-112482380D01*
X162940380Y-113387142D02*
X162892761Y-113434761D01*
X162749904Y-113482380D01*
X162654666Y-113482380D01*
X162511809Y-113434761D01*
X162416571Y-113339523D01*
X162368952Y-113244285D01*
X162321333Y-113053809D01*
X162321333Y-112910952D01*
X162368952Y-112720476D01*
X162416571Y-112625238D01*
X162511809Y-112530000D01*
X162654666Y-112482380D01*
X162749904Y-112482380D01*
X162892761Y-112530000D01*
X162940380Y-112577619D01*
D13*
%TO.C,J1*%
X147486666Y-71552380D02*
X147486666Y-72266666D01*
X147439047Y-72409523D01*
X147343809Y-72504761D01*
X147200952Y-72552380D01*
X147105714Y-72552380D01*
X148486666Y-72552380D02*
X147915238Y-72552380D01*
X148200952Y-72552380D02*
X148200952Y-71552380D01*
X148105714Y-71695238D01*
X148010476Y-71790476D01*
X147915238Y-71838095D01*
%TD*%
M02*
