%TF.GenerationSoftware,KiCad,Pcbnew,(6.0.5)*%
%TF.CreationDate,2023-02-05T19:42:25+01:00*%
%TF.ProjectId,PicoMemcard-rp2040zero,5069636f-4d65-46d6-9361-72642d727032,1.3.1*%
%TF.SameCoordinates,Original*%
%TF.FileFunction,Legend,Bot*%
%TF.FilePolarity,Positive*%
%FSLAX46Y46*%
G04 Gerber Fmt 4.6, Leading zero omitted, Abs format (unit mm)*
G04 Created by KiCad (PCBNEW (6.0.5)) date 2023-02-05 19:42:25*
%MOMM*%
%LPD*%
G01*
G04 APERTURE LIST*
%ADD10C,0.150000*%
%ADD11C,0.100000*%
%ADD12C,0.250000*%
%ADD13C,0.160000*%
%ADD14C,0.120000*%
G04 APERTURE END LIST*
D10*
%TO.C,3*%
X138509333Y-108672380D02*
X137890285Y-108672380D01*
X138223619Y-109053333D01*
X138080761Y-109053333D01*
X137985523Y-109100952D01*
X137937904Y-109148571D01*
X137890285Y-109243809D01*
X137890285Y-109481904D01*
X137937904Y-109577142D01*
X137985523Y-109624761D01*
X138080761Y-109672380D01*
X138366476Y-109672380D01*
X138461714Y-109624761D01*
X138509333Y-109577142D01*
%TO.C,1*%
X137850285Y-88802380D02*
X138421714Y-88802380D01*
X138136000Y-88802380D02*
X138136000Y-87802380D01*
X138231238Y-87945238D01*
X138326476Y-88040476D01*
X138421714Y-88088095D01*
%TO.C,2*%
X138461714Y-98407619D02*
X138414095Y-98360000D01*
X138318857Y-98312380D01*
X138080761Y-98312380D01*
X137985523Y-98360000D01*
X137937904Y-98407619D01*
X137890285Y-98502857D01*
X137890285Y-98598095D01*
X137937904Y-98740952D01*
X138509333Y-99312380D01*
X137890285Y-99312380D01*
%TO.C,J2*%
X157224380Y-105214666D02*
X157938666Y-105214666D01*
X158081523Y-105167047D01*
X158176761Y-105071809D01*
X158224380Y-104928952D01*
X158224380Y-104833714D01*
X157319619Y-105643238D02*
X157272000Y-105690857D01*
X157224380Y-105786095D01*
X157224380Y-106024190D01*
X157272000Y-106119428D01*
X157319619Y-106167047D01*
X157414857Y-106214666D01*
X157510095Y-106214666D01*
X157652952Y-106167047D01*
X158224380Y-105595619D01*
X158224380Y-106214666D01*
D11*
X152769619Y-101290857D02*
X152745809Y-101219428D01*
X152745809Y-101100380D01*
X152769619Y-101052761D01*
X152793428Y-101028952D01*
X152841047Y-101005142D01*
X152888666Y-101005142D01*
X152936285Y-101028952D01*
X152960095Y-101052761D01*
X152983904Y-101100380D01*
X153007714Y-101195619D01*
X153031523Y-101243238D01*
X153055333Y-101267047D01*
X153102952Y-101290857D01*
X153150571Y-101290857D01*
X153198190Y-101267047D01*
X153222000Y-101243238D01*
X153245809Y-101195619D01*
X153245809Y-101076571D01*
X153222000Y-101005142D01*
X152793428Y-100505142D02*
X152769619Y-100528952D01*
X152745809Y-100600380D01*
X152745809Y-100648000D01*
X152769619Y-100719428D01*
X152817238Y-100767047D01*
X152864857Y-100790857D01*
X152960095Y-100814666D01*
X153031523Y-100814666D01*
X153126761Y-100790857D01*
X153174380Y-100767047D01*
X153222000Y-100719428D01*
X153245809Y-100648000D01*
X153245809Y-100600380D01*
X153222000Y-100528952D01*
X153198190Y-100505142D01*
X152745809Y-100290857D02*
X153245809Y-100290857D01*
X152745809Y-100005142D02*
X153031523Y-100219428D01*
X153245809Y-100005142D02*
X152960095Y-100290857D01*
X155145809Y-101433714D02*
X155645809Y-101433714D01*
X155288666Y-101267047D01*
X155645809Y-101100380D01*
X155145809Y-101100380D01*
X155145809Y-100862285D02*
X155645809Y-100862285D01*
X155169619Y-100648000D02*
X155145809Y-100576571D01*
X155145809Y-100457523D01*
X155169619Y-100409904D01*
X155193428Y-100386095D01*
X155241047Y-100362285D01*
X155288666Y-100362285D01*
X155336285Y-100386095D01*
X155360095Y-100409904D01*
X155383904Y-100457523D01*
X155407714Y-100552761D01*
X155431523Y-100600380D01*
X155455333Y-100624190D01*
X155502952Y-100648000D01*
X155550571Y-100648000D01*
X155598190Y-100624190D01*
X155622000Y-100600380D01*
X155645809Y-100552761D01*
X155645809Y-100433714D01*
X155622000Y-100362285D01*
X155645809Y-100052761D02*
X155645809Y-99957523D01*
X155622000Y-99909904D01*
X155574380Y-99862285D01*
X155479142Y-99838476D01*
X155312476Y-99838476D01*
X155217238Y-99862285D01*
X155169619Y-99909904D01*
X155145809Y-99957523D01*
X155145809Y-100052761D01*
X155169619Y-100100380D01*
X155217238Y-100148000D01*
X155312476Y-100171809D01*
X155479142Y-100171809D01*
X155574380Y-100148000D01*
X155622000Y-100100380D01*
X155645809Y-100052761D01*
X147693428Y-100631333D02*
X147669619Y-100655142D01*
X147645809Y-100726571D01*
X147645809Y-100774190D01*
X147669619Y-100845619D01*
X147717238Y-100893238D01*
X147764857Y-100917047D01*
X147860095Y-100940857D01*
X147931523Y-100940857D01*
X148026761Y-100917047D01*
X148074380Y-100893238D01*
X148122000Y-100845619D01*
X148145809Y-100774190D01*
X148145809Y-100726571D01*
X148122000Y-100655142D01*
X148098190Y-100631333D01*
X147669619Y-100440857D02*
X147645809Y-100369428D01*
X147645809Y-100250380D01*
X147669619Y-100202761D01*
X147693428Y-100178952D01*
X147741047Y-100155142D01*
X147788666Y-100155142D01*
X147836285Y-100178952D01*
X147860095Y-100202761D01*
X147883904Y-100250380D01*
X147907714Y-100345619D01*
X147931523Y-100393238D01*
X147955333Y-100417047D01*
X148002952Y-100440857D01*
X148050571Y-100440857D01*
X148098190Y-100417047D01*
X148122000Y-100393238D01*
X148145809Y-100345619D01*
X148145809Y-100226571D01*
X148122000Y-100155142D01*
X150145809Y-101433714D02*
X150645809Y-101433714D01*
X150288666Y-101267047D01*
X150645809Y-101100380D01*
X150145809Y-101100380D01*
X150645809Y-100767047D02*
X150645809Y-100671809D01*
X150622000Y-100624190D01*
X150574380Y-100576571D01*
X150479142Y-100552761D01*
X150312476Y-100552761D01*
X150217238Y-100576571D01*
X150169619Y-100624190D01*
X150145809Y-100671809D01*
X150145809Y-100767047D01*
X150169619Y-100814666D01*
X150217238Y-100862285D01*
X150312476Y-100886095D01*
X150479142Y-100886095D01*
X150574380Y-100862285D01*
X150622000Y-100814666D01*
X150645809Y-100767047D01*
X150169619Y-100362285D02*
X150145809Y-100290857D01*
X150145809Y-100171809D01*
X150169619Y-100124190D01*
X150193428Y-100100380D01*
X150241047Y-100076571D01*
X150288666Y-100076571D01*
X150336285Y-100100380D01*
X150360095Y-100124190D01*
X150383904Y-100171809D01*
X150407714Y-100267047D01*
X150431523Y-100314666D01*
X150455333Y-100338476D01*
X150502952Y-100362285D01*
X150550571Y-100362285D01*
X150598190Y-100338476D01*
X150622000Y-100314666D01*
X150645809Y-100267047D01*
X150645809Y-100148000D01*
X150622000Y-100076571D01*
X150145809Y-99862285D02*
X150645809Y-99862285D01*
X158122000Y-101028952D02*
X158145809Y-101076571D01*
X158145809Y-101148000D01*
X158122000Y-101219428D01*
X158074380Y-101267047D01*
X158026761Y-101290857D01*
X157931523Y-101314666D01*
X157860095Y-101314666D01*
X157764857Y-101290857D01*
X157717238Y-101267047D01*
X157669619Y-101219428D01*
X157645809Y-101148000D01*
X157645809Y-101100380D01*
X157669619Y-101028952D01*
X157693428Y-101005142D01*
X157860095Y-101005142D01*
X157860095Y-101100380D01*
X157645809Y-100790857D02*
X158145809Y-100790857D01*
X157645809Y-100505142D01*
X158145809Y-100505142D01*
X157645809Y-100267047D02*
X158145809Y-100267047D01*
X158145809Y-100148000D01*
X158122000Y-100076571D01*
X158074380Y-100028952D01*
X158026761Y-100005142D01*
X157931523Y-99981333D01*
X157860095Y-99981333D01*
X157764857Y-100005142D01*
X157717238Y-100028952D01*
X157669619Y-100076571D01*
X157645809Y-100148000D01*
X157645809Y-100267047D01*
X145645809Y-101243238D02*
X145645809Y-100933714D01*
X145455333Y-101100380D01*
X145455333Y-101028952D01*
X145431523Y-100981333D01*
X145407714Y-100957523D01*
X145360095Y-100933714D01*
X145241047Y-100933714D01*
X145193428Y-100957523D01*
X145169619Y-100981333D01*
X145145809Y-101028952D01*
X145145809Y-101171809D01*
X145169619Y-101219428D01*
X145193428Y-101243238D01*
X145479142Y-100767047D02*
X145145809Y-100648000D01*
X145479142Y-100528952D01*
X145645809Y-100386095D02*
X145645809Y-100076571D01*
X145455333Y-100243238D01*
X145455333Y-100171809D01*
X145431523Y-100124190D01*
X145407714Y-100100380D01*
X145360095Y-100076571D01*
X145241047Y-100076571D01*
X145193428Y-100100380D01*
X145169619Y-100124190D01*
X145145809Y-100171809D01*
X145145809Y-100314666D01*
X145169619Y-100362285D01*
X145193428Y-100386095D01*
D12*
%TO.C,3*%
X136516000Y-107050000D02*
X135626000Y-107940000D01*
X139076000Y-107420000D02*
X137276000Y-107420000D01*
X140726000Y-110500000D02*
X140726000Y-107940000D01*
X139346000Y-111770000D02*
X137006000Y-111770000D01*
X137276000Y-107420000D02*
X136276000Y-108420000D01*
X136276000Y-108420000D02*
X136276000Y-110120000D01*
X139346000Y-106670000D02*
X137006000Y-106670000D01*
X137176000Y-111020000D02*
X139176000Y-111020000D01*
X140726000Y-107940000D02*
X139836000Y-107050000D01*
X136516000Y-111390000D02*
X135626000Y-110500000D01*
X139976000Y-110220000D02*
X139976000Y-108320000D01*
X135626000Y-110500000D02*
X135626000Y-107940000D01*
X136276000Y-110120000D02*
X137176000Y-111020000D01*
X140726000Y-110500000D02*
X139836000Y-111390000D01*
X139976000Y-108320000D02*
X139076000Y-107420000D01*
X139176000Y-111020000D02*
X139976000Y-110220000D01*
X139456000Y-109220000D02*
G75*
G03*
X139456000Y-109220000I-1280000J0D01*
G01*
D13*
X140856000Y-112520000D02*
G75*
G03*
X140856000Y-112520000I-80000J0D01*
G01*
D12*
%TO.C,1*%
X137276000Y-86470000D02*
X136276000Y-87470000D01*
X139976000Y-87370000D02*
X139076000Y-86470000D01*
X136516000Y-90440000D02*
X135626000Y-89550000D01*
X139176000Y-90070000D02*
X139976000Y-89270000D01*
X140726000Y-89550000D02*
X139836000Y-90440000D01*
X136276000Y-89170000D02*
X137176000Y-90070000D01*
X139346000Y-85720000D02*
X137006000Y-85720000D01*
X139346000Y-90820000D02*
X137006000Y-90820000D01*
X136276000Y-87470000D02*
X136276000Y-89170000D01*
X140726000Y-86990000D02*
X139836000Y-86100000D01*
X136516000Y-86100000D02*
X135626000Y-86990000D01*
X139076000Y-86470000D02*
X137276000Y-86470000D01*
X135626000Y-89550000D02*
X135626000Y-86990000D01*
X140726000Y-89550000D02*
X140726000Y-86990000D01*
X139976000Y-89270000D02*
X139976000Y-87370000D01*
X137176000Y-90070000D02*
X139176000Y-90070000D01*
D13*
X140856000Y-91570000D02*
G75*
G03*
X140856000Y-91570000I-80000J0D01*
G01*
D12*
X139456000Y-88270000D02*
G75*
G03*
X139456000Y-88270000I-1280000J0D01*
G01*
%TO.C,2*%
X137276000Y-97060000D02*
X136276000Y-98060000D01*
X135626000Y-100140000D02*
X135626000Y-97580000D01*
X139176000Y-100660000D02*
X139976000Y-99860000D01*
X139346000Y-96310000D02*
X137006000Y-96310000D01*
X139976000Y-99860000D02*
X139976000Y-97960000D01*
X136276000Y-99760000D02*
X137176000Y-100660000D01*
X136276000Y-98060000D02*
X136276000Y-99760000D01*
X139346000Y-101410000D02*
X137006000Y-101410000D01*
X140726000Y-97580000D02*
X139836000Y-96690000D01*
X139976000Y-97960000D02*
X139076000Y-97060000D01*
X136516000Y-101030000D02*
X135626000Y-100140000D01*
X139076000Y-97060000D02*
X137276000Y-97060000D01*
X137176000Y-100660000D02*
X139176000Y-100660000D01*
X140726000Y-100140000D02*
X139836000Y-101030000D01*
X140726000Y-100140000D02*
X140726000Y-97580000D01*
X136516000Y-96690000D02*
X135626000Y-97580000D01*
D13*
X140856000Y-102160000D02*
G75*
G03*
X140856000Y-102160000I-80000J0D01*
G01*
D12*
X139456000Y-98860000D02*
G75*
G03*
X139456000Y-98860000I-1280000J0D01*
G01*
D14*
%TO.C,J2*%
X141672000Y-94948000D02*
X141672000Y-114348000D01*
X159572000Y-114348000D02*
X141672000Y-114348000D01*
X141672000Y-94948000D02*
X159572000Y-94948000D01*
X159572000Y-114348000D02*
X159572000Y-94948000D01*
X158972000Y-114348000D02*
X144172000Y-114348000D01*
X144172000Y-114348000D02*
X144172000Y-99548000D01*
X144172000Y-99548000D02*
X158972000Y-99548000D01*
X158972000Y-99548000D02*
X158972000Y-114348000D01*
%TD*%
M02*
