%TF.GenerationSoftware,KiCad,Pcbnew,(6.0.5)*%
%TF.CreationDate,2023-02-05T19:42:25+01:00*%
%TF.ProjectId,PicoMemcard-rp2040zero,5069636f-4d65-46d6-9361-72642d727032,1.3.1*%
%TF.SameCoordinates,Original*%
%TF.FileFunction,Profile,NP*%
%FSLAX46Y46*%
G04 Gerber Fmt 4.6, Leading zero omitted, Abs format (unit mm)*
G04 Created by KiCad (PCBNEW (6.0.5)) date 2023-02-05 19:42:25*
%MOMM*%
%LPD*%
G01*
G04 APERTURE LIST*
%TA.AperFunction,Profile*%
%ADD10C,0.100000*%
%TD*%
G04 APERTURE END LIST*
D10*
X140550386Y-64100624D02*
G75*
G03*
X139850725Y-63399987I-681186J19424D01*
G01*
X130850000Y-70900000D02*
X131950000Y-70900000D01*
X150850272Y-64100620D02*
G75*
G03*
X150150725Y-63399987I-673572J27020D01*
G01*
X140550318Y-70900622D02*
G75*
G03*
X143150318Y-70900622I1300000J0D01*
G01*
X167050000Y-70899784D02*
X167050000Y-78810000D01*
X140550318Y-64100622D02*
X140550318Y-70900622D01*
X150850318Y-70900622D02*
G75*
G03*
X153450318Y-70900622I1300000J0D01*
G01*
X150850318Y-64100622D02*
X150850318Y-70900622D01*
X161150282Y-70900622D02*
G75*
G03*
X163750318Y-70899784I1300018J422D01*
G01*
X133700000Y-105600000D02*
X133700000Y-114620000D01*
X131950082Y-70900000D02*
G75*
G03*
X134550318Y-70899553I1300118J0D01*
G01*
X167050000Y-90810000D02*
X146010000Y-90810000D01*
X134550318Y-70899553D02*
X134550318Y-64100216D01*
X167050000Y-78810000D02*
X146010000Y-78810000D01*
X163750318Y-70899784D02*
X167050000Y-70899784D01*
X161150318Y-64100622D02*
X161150318Y-70900622D01*
X154150318Y-63400623D02*
G75*
G03*
X153449683Y-64100216I-26918J-673677D01*
G01*
X143150318Y-70900622D02*
X143149683Y-64100216D01*
X146010000Y-90810000D02*
X146010000Y-78810000D01*
X143850318Y-63400611D02*
G75*
G03*
X143149683Y-64100216I-19518J-681089D01*
G01*
X135250318Y-63400630D02*
G75*
G03*
X134550318Y-64100216I-19518J-680470D01*
G01*
X167050000Y-105600000D02*
X164200000Y-105600000D01*
X135250318Y-63400622D02*
X139850725Y-63399987D01*
X154150318Y-63400622D02*
X160450725Y-63399987D01*
X164200000Y-114620000D02*
X164200000Y-105600000D01*
X167050000Y-105600000D02*
X167050000Y-90810000D01*
X130850000Y-105600000D02*
X130850000Y-70900000D01*
X161150272Y-64100620D02*
G75*
G03*
X160450725Y-63399987I-673572J27020D01*
G01*
X130850000Y-105600000D02*
X133700000Y-105600000D01*
X153450318Y-70900622D02*
X153449683Y-64100216D01*
X143850318Y-63400622D02*
X150150725Y-63399987D01*
X164200000Y-114620000D02*
X133700000Y-114620000D01*
M02*
