%TF.GenerationSoftware,KiCad,Pcbnew,(6.0.5)*%
%TF.CreationDate,2023-02-05T19:42:25+01:00*%
%TF.ProjectId,PicoMemcard-rp2040zero,5069636f-4d65-46d6-9361-72642d727032,1.3.1*%
%TF.SameCoordinates,Original*%
%TF.FileFunction,Copper,L1,Top*%
%TF.FilePolarity,Positive*%
%FSLAX46Y46*%
G04 Gerber Fmt 4.6, Leading zero omitted, Abs format (unit mm)*
G04 Created by KiCad (PCBNEW (6.0.5)) date 2023-02-05 19:42:25*
%MOMM*%
%LPD*%
G01*
G04 APERTURE LIST*
%TA.AperFunction,SMDPad,CuDef*%
%ADD10O,1.500000X2.500000*%
%TD*%
%TA.AperFunction,SMDPad,CuDef*%
%ADD11O,2.500000X1.500000*%
%TD*%
%TA.AperFunction,SMDPad,CuDef*%
%ADD12R,1.400000X6.500000*%
%TD*%
%TA.AperFunction,SMDPad,CuDef*%
%ADD13R,1.400000X7.300000*%
%TD*%
%TA.AperFunction,ViaPad*%
%ADD14C,0.800000*%
%TD*%
%TA.AperFunction,ViaPad*%
%ADD15C,0.500000*%
%TD*%
%TA.AperFunction,Conductor*%
%ADD16C,0.254000*%
%TD*%
%TA.AperFunction,Conductor*%
%ADD17C,0.500000*%
%TD*%
G04 APERTURE END LIST*
D10*
%TO.P,U1,1,0*%
%TO.N,MISO*%
X165420000Y-92930000D03*
%TO.P,U1,2,1*%
%TO.N,CS*%
X162880000Y-92930000D03*
%TO.P,U1,3,2*%
%TO.N,SCK*%
X160340000Y-92930000D03*
%TO.P,U1,4,3*%
%TO.N,MOSI*%
X157800000Y-92930000D03*
%TO.P,U1,5,4*%
%TO.N,unconnected-(U1-Pad5)*%
X155260000Y-92930000D03*
%TO.P,U1,6,5*%
%TO.N,unconnected-(U1-Pad6)*%
X152720000Y-92930000D03*
%TO.P,U1,7,6*%
%TO.N,unconnected-(U1-Pad7)*%
X150180000Y-92930000D03*
%TO.P,U1,8,7*%
%TO.N,unconnected-(U1-Pad8)*%
X147640000Y-92930000D03*
%TO.P,U1,9,8*%
%TO.N,unconnected-(U1-Pad9)*%
X145100000Y-92930000D03*
D11*
%TO.P,U1,10,9*%
%TO.N,DAT*%
X144600000Y-89890000D03*
%TO.P,U1,11,10*%
%TO.N,CMD*%
X144600000Y-87350000D03*
%TO.P,U1,12,11*%
%TO.N,SEL*%
X144600000Y-84810000D03*
%TO.P,U1,13,12*%
%TO.N,CLK*%
X144600000Y-82270000D03*
%TO.P,U1,14,13*%
%TO.N,ACK*%
X144600000Y-79730000D03*
D10*
%TO.P,U1,15,14*%
%TO.N,unconnected-(U1-Pad15)*%
X145100000Y-76690000D03*
%TO.P,U1,16,15*%
%TO.N,unconnected-(U1-Pad16)*%
X147640000Y-76690000D03*
%TO.P,U1,17,26*%
%TO.N,GP26*%
X150180000Y-76690000D03*
%TO.P,U1,18,27*%
%TO.N,GP27*%
X152720000Y-76690000D03*
%TO.P,U1,19,28*%
%TO.N,GP28*%
X155260000Y-76690000D03*
%TO.P,U1,20,29*%
%TO.N,unconnected-(U1-Pad20)*%
X157800000Y-76690000D03*
%TO.P,U1,21,3V3*%
%TO.N,+3V3*%
X160340000Y-76690000D03*
%TO.P,U1,22,GND*%
%TO.N,GND*%
X162880000Y-76690000D03*
%TO.P,U1,23,5V*%
%TO.N,+5V*%
X165420000Y-76690000D03*
%TD*%
D12*
%TO.P,J1,1,DAT*%
%TO.N,DAT*%
X137520000Y-67600000D03*
%TO.P,J1,2,CMD*%
%TO.N,CMD*%
X139820000Y-67600000D03*
D13*
%TO.P,J1,3,7.5V*%
%TO.N,unconnected-(J1-Pad3)*%
X145520000Y-67200000D03*
%TO.P,J1,4,GND*%
%TO.N,GND*%
X147820000Y-67200000D03*
%TO.P,J1,5,5V*%
%TO.N,+5V*%
X150120000Y-67200000D03*
D12*
%TO.P,J1,6,SEL*%
%TO.N,SEL*%
X155820000Y-67600000D03*
%TO.P,J1,7,CLK*%
%TO.N,CLK*%
X158120000Y-67600000D03*
%TO.P,J1,8,ACK*%
%TO.N,ACK*%
X160420000Y-67600000D03*
%TD*%
D14*
%TO.N,GND*%
X133096000Y-80772000D03*
X146050000Y-111252000D03*
X142240000Y-92964000D03*
X141478000Y-73914000D03*
X161544000Y-75184000D03*
X156464000Y-102616000D03*
X146304000Y-72136000D03*
X163830000Y-96520000D03*
D15*
%TO.N,GP26*%
X148844000Y-76708000D03*
%TO.N,GP27*%
X151384000Y-75946000D03*
%TO.N,GP28*%
X153924000Y-75252500D03*
%TO.N,MISO*%
X156972000Y-100076000D03*
D14*
%TO.N,+5V*%
X163068000Y-74676000D03*
X150114000Y-71628000D03*
D15*
%TO.N,CS*%
X148844000Y-91186000D03*
%TO.N,SCK*%
X156972000Y-94673500D03*
%TO.N,MOSI*%
X156464000Y-91948000D03*
D14*
%TO.N,+3V3*%
X159004000Y-78232000D03*
%TD*%
D16*
%TO.N,DAT*%
X145100000Y-89890000D02*
X137520000Y-82310000D01*
X137520000Y-82310000D02*
X137520000Y-67600000D01*
%TO.N,CMD*%
X139820000Y-82070000D02*
X139820000Y-67600000D01*
X145100000Y-87350000D02*
X139820000Y-82070000D01*
D17*
%TO.N,GND*%
X161544000Y-75184000D02*
X162880000Y-76520000D01*
D16*
%TO.N,SEL*%
X142569960Y-75870040D02*
X144780000Y-73660000D01*
X144780000Y-73660000D02*
X153670000Y-73660000D01*
X142569960Y-82279960D02*
X142569960Y-75870040D01*
X145100000Y-84810000D02*
X142569960Y-82279960D01*
X155820000Y-71510000D02*
X155820000Y-67600000D01*
X153670000Y-73660000D02*
X155820000Y-71510000D01*
%TO.N,CLK*%
X153855022Y-74168000D02*
X158120000Y-69903022D01*
X143023480Y-80193480D02*
X143023480Y-76102717D01*
X144958197Y-74168000D02*
X153855022Y-74168000D01*
X145100000Y-82270000D02*
X143023480Y-80193480D01*
X143023480Y-76102717D02*
X144958197Y-74168000D01*
%TO.N,ACK*%
X145100000Y-79730000D02*
X144023480Y-78653480D01*
X144023480Y-75744091D02*
X145091571Y-74676000D01*
X145091571Y-74676000D02*
X155956000Y-74676000D01*
X144023480Y-78653480D02*
X144023480Y-75744091D01*
X155956000Y-74676000D02*
X160420000Y-70212000D01*
%TO.N,GP26*%
X148844000Y-76708000D02*
X149698000Y-76708000D01*
%TO.N,GP27*%
X151476000Y-75946000D02*
X152720000Y-77190000D01*
X151384000Y-75946000D02*
X151476000Y-75946000D01*
%TO.N,GP28*%
X154246500Y-75252500D02*
X155260000Y-76266000D01*
X153924000Y-75252500D02*
X154246500Y-75252500D01*
%TO.N,MISO*%
X157774000Y-100076000D02*
X156972000Y-100076000D01*
X165420000Y-92430000D02*
X157774000Y-100076000D01*
D17*
%TO.N,+5V*%
X163068000Y-74676000D02*
X163068000Y-74681623D01*
X150120000Y-67200000D02*
X150120000Y-71622000D01*
X150120000Y-71622000D02*
X150114000Y-71628000D01*
X163068000Y-74681623D02*
X165420000Y-77033623D01*
D16*
%TO.N,CS*%
X161636000Y-91186000D02*
X148844000Y-91186000D01*
X162880000Y-92430000D02*
X161636000Y-91186000D01*
%TO.N,SCK*%
X158096500Y-94673500D02*
X156972000Y-94673500D01*
X160340000Y-92430000D02*
X158096500Y-94673500D01*
%TO.N,MOSI*%
X157800000Y-92430000D02*
X156946000Y-92430000D01*
X156946000Y-92430000D02*
X156464000Y-91948000D01*
D17*
%TO.N,+3V3*%
X160046000Y-77190000D02*
X159004000Y-78232000D01*
%TD*%
%TA.AperFunction,Conductor*%
%TO.N,GND*%
G36*
X136253621Y-70770002D02*
G01*
X136300114Y-70823658D01*
X136311500Y-70876000D01*
X136311500Y-70898134D01*
X136318255Y-70960316D01*
X136369385Y-71096705D01*
X136456739Y-71213261D01*
X136573295Y-71300615D01*
X136709684Y-71351745D01*
X136768469Y-71358131D01*
X136771866Y-71358500D01*
X136771679Y-71360223D01*
X136832209Y-71381585D01*
X136875756Y-71437657D01*
X136884500Y-71483776D01*
X136884500Y-82230980D01*
X136883970Y-82242214D01*
X136882292Y-82249719D01*
X136882541Y-82257638D01*
X136884438Y-82318012D01*
X136884500Y-82321969D01*
X136884500Y-82349983D01*
X136884996Y-82353908D01*
X136884996Y-82353909D01*
X136885008Y-82354004D01*
X136885941Y-82365849D01*
X136887335Y-82410205D01*
X136891462Y-82424410D01*
X136893013Y-82429748D01*
X136897023Y-82449112D01*
X136899573Y-82469299D01*
X136902489Y-82476663D01*
X136902490Y-82476668D01*
X136915907Y-82510556D01*
X136919752Y-82521785D01*
X136932131Y-82564393D01*
X136936169Y-82571220D01*
X136936170Y-82571223D01*
X136942488Y-82581906D01*
X136951188Y-82599664D01*
X136955761Y-82611215D01*
X136955765Y-82611221D01*
X136958681Y-82618588D01*
X136963339Y-82624999D01*
X136963340Y-82625001D01*
X136984764Y-82654488D01*
X136991281Y-82664410D01*
X137009826Y-82695768D01*
X137009829Y-82695772D01*
X137013866Y-82702598D01*
X137028250Y-82716982D01*
X137041091Y-82732016D01*
X137053058Y-82748487D01*
X137059166Y-82753540D01*
X137087255Y-82776777D01*
X137096035Y-82784767D01*
X143172068Y-88860800D01*
X143206094Y-88923112D01*
X143201029Y-88993927D01*
X143173457Y-89037580D01*
X143118008Y-89094799D01*
X142992710Y-89281262D01*
X142902412Y-89486967D01*
X142849968Y-89705411D01*
X142837037Y-89929690D01*
X142864025Y-90152715D01*
X142930082Y-90367435D01*
X142932652Y-90372415D01*
X142932654Y-90372419D01*
X142986654Y-90477042D01*
X143033118Y-90567064D01*
X143169877Y-90745292D01*
X143336036Y-90896485D01*
X143340783Y-90899463D01*
X143340786Y-90899465D01*
X143521595Y-91012885D01*
X143526344Y-91015864D01*
X143734783Y-91099656D01*
X143954767Y-91145213D01*
X143959378Y-91145479D01*
X143959379Y-91145479D01*
X144009952Y-91148395D01*
X144009956Y-91148395D01*
X144011775Y-91148500D01*
X144331447Y-91148500D01*
X144399568Y-91168502D01*
X144446061Y-91222158D01*
X144456165Y-91292432D01*
X144426671Y-91357012D01*
X144408151Y-91374463D01*
X144244708Y-91499877D01*
X144093515Y-91666036D01*
X143974136Y-91856344D01*
X143890344Y-92064783D01*
X143844787Y-92284767D01*
X143841500Y-92341775D01*
X143841500Y-93486999D01*
X143856383Y-93653762D01*
X143915663Y-93870451D01*
X143918075Y-93875509D01*
X143918077Y-93875513D01*
X143943592Y-93929005D01*
X144012378Y-94073218D01*
X144143471Y-94255654D01*
X144147503Y-94259561D01*
X144249014Y-94357932D01*
X144304799Y-94411992D01*
X144491262Y-94537290D01*
X144696967Y-94627588D01*
X144702418Y-94628897D01*
X144702422Y-94628898D01*
X144909954Y-94678722D01*
X144915411Y-94680032D01*
X144999475Y-94684879D01*
X145134083Y-94692640D01*
X145134086Y-94692640D01*
X145139690Y-94692963D01*
X145362715Y-94665975D01*
X145577435Y-94599918D01*
X145582415Y-94597348D01*
X145582419Y-94597346D01*
X145772081Y-94499454D01*
X145772082Y-94499454D01*
X145777064Y-94496882D01*
X145781519Y-94493464D01*
X145811735Y-94470278D01*
X145955292Y-94360123D01*
X146106485Y-94193964D01*
X146225864Y-94003656D01*
X146252961Y-93936250D01*
X146296925Y-93880510D01*
X146364050Y-93857384D01*
X146433021Y-93874221D01*
X146483592Y-93929005D01*
X146552378Y-94073218D01*
X146683471Y-94255654D01*
X146687503Y-94259561D01*
X146789014Y-94357932D01*
X146844799Y-94411992D01*
X147031262Y-94537290D01*
X147236967Y-94627588D01*
X147242418Y-94628897D01*
X147242422Y-94628898D01*
X147449954Y-94678722D01*
X147455411Y-94680032D01*
X147539475Y-94684879D01*
X147674083Y-94692640D01*
X147674086Y-94692640D01*
X147679690Y-94692963D01*
X147902715Y-94665975D01*
X148117435Y-94599918D01*
X148122415Y-94597348D01*
X148122419Y-94597346D01*
X148312081Y-94499454D01*
X148312082Y-94499454D01*
X148317064Y-94496882D01*
X148321519Y-94493464D01*
X148351735Y-94470278D01*
X148495292Y-94360123D01*
X148646485Y-94193964D01*
X148765864Y-94003656D01*
X148792961Y-93936250D01*
X148836925Y-93880510D01*
X148904050Y-93857384D01*
X148973021Y-93874221D01*
X149023592Y-93929005D01*
X149092378Y-94073218D01*
X149223471Y-94255654D01*
X149227503Y-94259561D01*
X149329014Y-94357932D01*
X149384799Y-94411992D01*
X149571262Y-94537290D01*
X149776967Y-94627588D01*
X149782418Y-94628897D01*
X149782422Y-94628898D01*
X149989954Y-94678722D01*
X149995411Y-94680032D01*
X150079475Y-94684879D01*
X150214083Y-94692640D01*
X150214086Y-94692640D01*
X150219690Y-94692963D01*
X150442715Y-94665975D01*
X150657435Y-94599918D01*
X150662415Y-94597348D01*
X150662419Y-94597346D01*
X150852081Y-94499454D01*
X150852082Y-94499454D01*
X150857064Y-94496882D01*
X150861519Y-94493464D01*
X150891735Y-94470278D01*
X151035292Y-94360123D01*
X151186485Y-94193964D01*
X151305864Y-94003656D01*
X151332961Y-93936250D01*
X151376925Y-93880510D01*
X151444050Y-93857384D01*
X151513021Y-93874221D01*
X151563592Y-93929005D01*
X151632378Y-94073218D01*
X151763471Y-94255654D01*
X151767503Y-94259561D01*
X151869014Y-94357932D01*
X151924799Y-94411992D01*
X152111262Y-94537290D01*
X152316967Y-94627588D01*
X152322418Y-94628897D01*
X152322422Y-94628898D01*
X152529954Y-94678722D01*
X152535411Y-94680032D01*
X152619475Y-94684879D01*
X152754083Y-94692640D01*
X152754086Y-94692640D01*
X152759690Y-94692963D01*
X152982715Y-94665975D01*
X153197435Y-94599918D01*
X153202415Y-94597348D01*
X153202419Y-94597346D01*
X153392081Y-94499454D01*
X153392082Y-94499454D01*
X153397064Y-94496882D01*
X153401519Y-94493464D01*
X153431735Y-94470278D01*
X153575292Y-94360123D01*
X153726485Y-94193964D01*
X153845864Y-94003656D01*
X153872961Y-93936250D01*
X153916925Y-93880510D01*
X153984050Y-93857384D01*
X154053021Y-93874221D01*
X154103592Y-93929005D01*
X154172378Y-94073218D01*
X154303471Y-94255654D01*
X154307503Y-94259561D01*
X154409014Y-94357932D01*
X154464799Y-94411992D01*
X154651262Y-94537290D01*
X154856967Y-94627588D01*
X154862418Y-94628897D01*
X154862422Y-94628898D01*
X155069954Y-94678722D01*
X155075411Y-94680032D01*
X155159475Y-94684879D01*
X155294083Y-94692640D01*
X155294086Y-94692640D01*
X155299690Y-94692963D01*
X155522715Y-94665975D01*
X155737435Y-94599918D01*
X155742415Y-94597348D01*
X155742419Y-94597346D01*
X155932081Y-94499454D01*
X155932082Y-94499454D01*
X155937064Y-94496882D01*
X155941516Y-94493466D01*
X155941519Y-94493464D01*
X156021602Y-94432014D01*
X156087822Y-94406413D01*
X156157371Y-94420677D01*
X156208167Y-94470278D01*
X156224083Y-94539468D01*
X156223314Y-94547753D01*
X156208775Y-94662843D01*
X156225381Y-94832199D01*
X156279094Y-94993667D01*
X156282741Y-94999689D01*
X156282742Y-94999691D01*
X156347274Y-95106245D01*
X156367246Y-95139223D01*
X156485455Y-95261632D01*
X156627846Y-95354810D01*
X156634450Y-95357266D01*
X156634452Y-95357267D01*
X156670844Y-95370801D01*
X156787341Y-95414126D01*
X156956015Y-95436632D01*
X156963026Y-95435994D01*
X156963030Y-95435994D01*
X157118462Y-95421848D01*
X157125483Y-95421209D01*
X157132185Y-95419031D01*
X157132187Y-95419031D01*
X157280623Y-95370801D01*
X157280626Y-95370800D01*
X157287322Y-95368624D01*
X157357531Y-95326771D01*
X157422048Y-95309000D01*
X158017480Y-95309000D01*
X158028714Y-95309530D01*
X158036219Y-95311208D01*
X158104512Y-95309062D01*
X158108469Y-95309000D01*
X158136483Y-95309000D01*
X158140408Y-95308504D01*
X158140409Y-95308504D01*
X158140504Y-95308492D01*
X158152349Y-95307559D01*
X158182170Y-95306622D01*
X158188782Y-95306414D01*
X158188783Y-95306414D01*
X158196705Y-95306165D01*
X158216249Y-95300487D01*
X158235612Y-95296477D01*
X158247940Y-95294920D01*
X158247942Y-95294920D01*
X158255799Y-95293927D01*
X158263163Y-95291011D01*
X158263168Y-95291010D01*
X158297056Y-95277593D01*
X158308285Y-95273748D01*
X158336708Y-95265490D01*
X158350893Y-95261369D01*
X158357720Y-95257331D01*
X158357723Y-95257330D01*
X158368406Y-95251012D01*
X158386164Y-95242312D01*
X158397715Y-95237739D01*
X158397721Y-95237735D01*
X158405088Y-95234819D01*
X158440991Y-95208734D01*
X158450910Y-95202219D01*
X158482268Y-95183674D01*
X158482272Y-95183671D01*
X158489098Y-95179634D01*
X158503482Y-95165250D01*
X158518516Y-95152409D01*
X158528573Y-95145102D01*
X158534987Y-95140442D01*
X158563278Y-95106244D01*
X158571267Y-95097465D01*
X159310800Y-94357932D01*
X159373112Y-94323906D01*
X159443927Y-94328971D01*
X159487580Y-94356543D01*
X159544799Y-94411992D01*
X159731262Y-94537290D01*
X159936967Y-94627588D01*
X159942418Y-94628897D01*
X159942422Y-94628898D01*
X160149954Y-94678722D01*
X160155411Y-94680032D01*
X160239475Y-94684879D01*
X160374083Y-94692640D01*
X160374086Y-94692640D01*
X160379690Y-94692963D01*
X160602715Y-94665975D01*
X160817435Y-94599918D01*
X160822415Y-94597348D01*
X160822419Y-94597346D01*
X161012081Y-94499454D01*
X161012082Y-94499454D01*
X161017064Y-94496882D01*
X161021519Y-94493464D01*
X161051735Y-94470278D01*
X161195292Y-94360123D01*
X161346485Y-94193964D01*
X161465864Y-94003656D01*
X161492961Y-93936250D01*
X161536925Y-93880510D01*
X161604050Y-93857384D01*
X161673021Y-93874221D01*
X161723592Y-93929005D01*
X161792378Y-94073218D01*
X161923471Y-94255654D01*
X161927503Y-94259561D01*
X162029014Y-94357932D01*
X162084799Y-94411992D01*
X162097724Y-94420677D01*
X162229527Y-94509245D01*
X162274912Y-94563841D01*
X162283575Y-94634307D01*
X162248346Y-94702922D01*
X157547672Y-99403595D01*
X157485360Y-99437621D01*
X157458577Y-99440500D01*
X157422866Y-99440500D01*
X157355352Y-99420885D01*
X157312562Y-99393729D01*
X157312558Y-99393727D01*
X157306608Y-99389951D01*
X157146300Y-99332868D01*
X156977329Y-99312720D01*
X156970326Y-99313456D01*
X156970325Y-99313456D01*
X156815101Y-99329770D01*
X156815097Y-99329771D01*
X156808093Y-99330507D01*
X156801422Y-99332778D01*
X156653673Y-99383075D01*
X156653670Y-99383076D01*
X156647003Y-99385346D01*
X156641005Y-99389036D01*
X156641003Y-99389037D01*
X156508065Y-99470821D01*
X156508063Y-99470823D01*
X156502066Y-99474512D01*
X156380486Y-99593573D01*
X156288304Y-99736610D01*
X156230103Y-99896516D01*
X156208775Y-100065343D01*
X156225381Y-100234699D01*
X156279094Y-100396167D01*
X156282741Y-100402189D01*
X156282742Y-100402191D01*
X156347274Y-100508745D01*
X156367246Y-100541723D01*
X156485455Y-100664132D01*
X156627846Y-100757310D01*
X156634450Y-100759766D01*
X156634452Y-100759767D01*
X156670844Y-100773301D01*
X156787341Y-100816626D01*
X156956015Y-100839132D01*
X156963026Y-100838494D01*
X156963030Y-100838494D01*
X157118462Y-100824348D01*
X157125483Y-100823709D01*
X157132185Y-100821531D01*
X157132187Y-100821531D01*
X157280623Y-100773301D01*
X157280626Y-100773300D01*
X157287322Y-100771124D01*
X157357531Y-100729271D01*
X157422048Y-100711500D01*
X157694980Y-100711500D01*
X157706214Y-100712030D01*
X157713719Y-100713708D01*
X157782012Y-100711562D01*
X157785969Y-100711500D01*
X157813983Y-100711500D01*
X157817908Y-100711004D01*
X157817909Y-100711004D01*
X157818004Y-100710992D01*
X157829849Y-100710059D01*
X157859670Y-100709122D01*
X157866282Y-100708914D01*
X157866283Y-100708914D01*
X157874205Y-100708665D01*
X157893749Y-100702987D01*
X157913112Y-100698977D01*
X157925440Y-100697420D01*
X157925442Y-100697420D01*
X157933299Y-100696427D01*
X157940663Y-100693511D01*
X157940668Y-100693510D01*
X157974556Y-100680093D01*
X157985785Y-100676248D01*
X158014208Y-100667990D01*
X158028393Y-100663869D01*
X158035220Y-100659831D01*
X158035223Y-100659830D01*
X158045906Y-100653512D01*
X158063664Y-100644812D01*
X158075215Y-100640239D01*
X158075221Y-100640235D01*
X158082588Y-100637319D01*
X158097371Y-100626579D01*
X158118488Y-100611236D01*
X158128410Y-100604719D01*
X158159768Y-100586174D01*
X158159772Y-100586171D01*
X158166598Y-100582134D01*
X158180982Y-100567750D01*
X158196016Y-100554909D01*
X158206073Y-100547602D01*
X158212487Y-100542942D01*
X158240778Y-100508744D01*
X158248767Y-100499965D01*
X164390800Y-94357932D01*
X164453112Y-94323906D01*
X164523927Y-94328971D01*
X164567580Y-94356543D01*
X164624799Y-94411992D01*
X164811262Y-94537290D01*
X165016967Y-94627588D01*
X165022418Y-94628897D01*
X165022422Y-94628898D01*
X165229954Y-94678722D01*
X165235411Y-94680032D01*
X165319475Y-94684879D01*
X165454083Y-94692640D01*
X165454086Y-94692640D01*
X165459690Y-94692963D01*
X165682715Y-94665975D01*
X165897435Y-94599918D01*
X165902415Y-94597348D01*
X165902419Y-94597346D01*
X166092081Y-94499454D01*
X166092082Y-94499454D01*
X166097064Y-94496882D01*
X166101519Y-94493464D01*
X166131735Y-94470278D01*
X166275292Y-94360123D01*
X166279063Y-94355978D01*
X166279067Y-94355975D01*
X166322306Y-94308456D01*
X166382946Y-94271533D01*
X166453922Y-94273256D01*
X166512699Y-94313078D01*
X166540616Y-94378356D01*
X166541500Y-94393255D01*
X166541500Y-104965500D01*
X166521498Y-105033621D01*
X166467842Y-105080114D01*
X166415500Y-105091500D01*
X164208623Y-105091500D01*
X164207853Y-105091498D01*
X164207037Y-105091493D01*
X164130279Y-105091024D01*
X164107918Y-105097415D01*
X164101847Y-105099150D01*
X164085085Y-105102728D01*
X164055813Y-105106920D01*
X164047645Y-105110634D01*
X164047644Y-105110634D01*
X164032438Y-105117548D01*
X164014914Y-105123996D01*
X163990229Y-105131051D01*
X163982635Y-105135843D01*
X163982632Y-105135844D01*
X163965220Y-105146830D01*
X163950137Y-105154969D01*
X163923218Y-105167208D01*
X163916416Y-105173069D01*
X163903765Y-105183970D01*
X163888761Y-105195073D01*
X163867042Y-105208776D01*
X163861103Y-105215501D01*
X163861099Y-105215504D01*
X163847468Y-105230938D01*
X163835276Y-105242982D01*
X163819673Y-105256427D01*
X163819671Y-105256430D01*
X163812873Y-105262287D01*
X163807993Y-105269816D01*
X163807992Y-105269817D01*
X163798906Y-105283835D01*
X163787615Y-105298709D01*
X163776569Y-105311217D01*
X163770622Y-105317951D01*
X163764312Y-105331391D01*
X163758058Y-105344711D01*
X163749737Y-105359691D01*
X163738529Y-105376983D01*
X163738527Y-105376988D01*
X163733648Y-105384515D01*
X163731078Y-105393108D01*
X163731076Y-105393113D01*
X163726289Y-105409120D01*
X163719628Y-105426564D01*
X163712533Y-105441676D01*
X163708719Y-105449800D01*
X163707338Y-105458667D01*
X163707338Y-105458668D01*
X163704170Y-105479015D01*
X163700387Y-105495732D01*
X163694485Y-105515466D01*
X163694484Y-105515472D01*
X163691914Y-105524066D01*
X163691859Y-105533037D01*
X163691859Y-105533038D01*
X163691704Y-105558497D01*
X163691671Y-105559289D01*
X163691500Y-105560386D01*
X163691500Y-105591377D01*
X163691498Y-105592147D01*
X163691024Y-105669721D01*
X163691408Y-105671065D01*
X163691500Y-105672410D01*
X163691500Y-113985500D01*
X163671498Y-114053621D01*
X163617842Y-114100114D01*
X163565500Y-114111500D01*
X134334500Y-114111500D01*
X134266379Y-114091498D01*
X134219886Y-114037842D01*
X134208500Y-113985500D01*
X134208500Y-105608623D01*
X134208502Y-105607853D01*
X134208800Y-105559102D01*
X134208976Y-105530279D01*
X134200850Y-105501847D01*
X134197272Y-105485085D01*
X134194352Y-105464698D01*
X134193080Y-105455813D01*
X134182451Y-105432436D01*
X134176004Y-105414913D01*
X134171416Y-105398862D01*
X134168949Y-105390229D01*
X134164156Y-105382632D01*
X134153170Y-105365220D01*
X134145030Y-105350135D01*
X134142564Y-105344711D01*
X134132792Y-105323218D01*
X134116030Y-105303765D01*
X134104927Y-105288761D01*
X134091224Y-105267042D01*
X134084499Y-105261103D01*
X134084496Y-105261099D01*
X134069062Y-105247468D01*
X134057018Y-105235276D01*
X134043573Y-105219673D01*
X134043570Y-105219671D01*
X134037713Y-105212873D01*
X134024009Y-105203990D01*
X134016165Y-105198906D01*
X134001291Y-105187615D01*
X133988783Y-105176569D01*
X133988782Y-105176568D01*
X133982049Y-105170622D01*
X133955287Y-105158057D01*
X133940309Y-105149737D01*
X133923017Y-105138529D01*
X133923012Y-105138527D01*
X133915485Y-105133648D01*
X133906892Y-105131078D01*
X133906887Y-105131076D01*
X133890880Y-105126289D01*
X133873436Y-105119628D01*
X133858324Y-105112533D01*
X133858322Y-105112532D01*
X133850200Y-105108719D01*
X133841333Y-105107338D01*
X133841332Y-105107338D01*
X133830478Y-105105648D01*
X133820983Y-105104170D01*
X133804268Y-105100387D01*
X133784534Y-105094485D01*
X133784528Y-105094484D01*
X133775934Y-105091914D01*
X133766963Y-105091859D01*
X133766962Y-105091859D01*
X133756903Y-105091798D01*
X133741494Y-105091704D01*
X133740711Y-105091671D01*
X133739614Y-105091500D01*
X133708623Y-105091500D01*
X133707853Y-105091498D01*
X133634215Y-105091048D01*
X133634214Y-105091048D01*
X133630279Y-105091024D01*
X133628935Y-105091408D01*
X133627590Y-105091500D01*
X131484500Y-105091500D01*
X131416379Y-105071498D01*
X131369886Y-105017842D01*
X131358500Y-104965500D01*
X131358500Y-102202703D01*
X161420743Y-102202703D01*
X161458268Y-102487734D01*
X161534129Y-102765036D01*
X161646923Y-103029476D01*
X161794561Y-103276161D01*
X161974313Y-103500528D01*
X162182851Y-103698423D01*
X162416317Y-103866186D01*
X162420112Y-103868195D01*
X162420113Y-103868196D01*
X162441869Y-103879715D01*
X162670392Y-104000712D01*
X162940373Y-104099511D01*
X163221264Y-104160755D01*
X163249841Y-104163004D01*
X163444282Y-104178307D01*
X163444291Y-104178307D01*
X163446739Y-104178500D01*
X163602271Y-104178500D01*
X163604407Y-104178354D01*
X163604418Y-104178354D01*
X163812548Y-104164165D01*
X163812554Y-104164164D01*
X163816825Y-104163873D01*
X163821020Y-104163004D01*
X163821022Y-104163004D01*
X163957584Y-104134723D01*
X164098342Y-104105574D01*
X164369343Y-104009607D01*
X164624812Y-103877750D01*
X164628313Y-103875289D01*
X164628317Y-103875287D01*
X164742417Y-103795096D01*
X164860023Y-103712441D01*
X165070622Y-103516740D01*
X165252713Y-103294268D01*
X165402927Y-103049142D01*
X165518483Y-102785898D01*
X165597244Y-102509406D01*
X165637751Y-102224784D01*
X165637845Y-102206951D01*
X165639235Y-101941583D01*
X165639235Y-101941576D01*
X165639257Y-101937297D01*
X165601732Y-101652266D01*
X165525871Y-101374964D01*
X165413077Y-101110524D01*
X165265439Y-100863839D01*
X165085687Y-100639472D01*
X164877149Y-100441577D01*
X164643683Y-100273814D01*
X164621843Y-100262250D01*
X164556570Y-100227690D01*
X164389608Y-100139288D01*
X164119627Y-100040489D01*
X163838736Y-99979245D01*
X163807685Y-99976801D01*
X163615718Y-99961693D01*
X163615709Y-99961693D01*
X163613261Y-99961500D01*
X163457729Y-99961500D01*
X163455593Y-99961646D01*
X163455582Y-99961646D01*
X163247452Y-99975835D01*
X163247446Y-99975836D01*
X163243175Y-99976127D01*
X163238980Y-99976996D01*
X163238978Y-99976996D01*
X163102417Y-100005276D01*
X162961658Y-100034426D01*
X162690657Y-100130393D01*
X162435188Y-100262250D01*
X162431687Y-100264711D01*
X162431683Y-100264713D01*
X162421594Y-100271804D01*
X162199977Y-100427559D01*
X162184892Y-100441577D01*
X162070796Y-100547602D01*
X161989378Y-100623260D01*
X161807287Y-100845732D01*
X161657073Y-101090858D01*
X161541517Y-101354102D01*
X161462756Y-101630594D01*
X161422249Y-101915216D01*
X161422227Y-101919505D01*
X161422226Y-101919512D01*
X161420765Y-102198417D01*
X161420743Y-102202703D01*
X131358500Y-102202703D01*
X131358500Y-75862703D01*
X132260743Y-75862703D01*
X132298268Y-76147734D01*
X132374129Y-76425036D01*
X132486923Y-76689476D01*
X132634561Y-76936161D01*
X132814313Y-77160528D01*
X133022851Y-77358423D01*
X133256317Y-77526186D01*
X133260112Y-77528195D01*
X133260113Y-77528196D01*
X133281869Y-77539715D01*
X133510392Y-77660712D01*
X133780373Y-77759511D01*
X134061264Y-77820755D01*
X134089841Y-77823004D01*
X134284282Y-77838307D01*
X134284291Y-77838307D01*
X134286739Y-77838500D01*
X134442271Y-77838500D01*
X134444407Y-77838354D01*
X134444418Y-77838354D01*
X134652548Y-77824165D01*
X134652554Y-77824164D01*
X134656825Y-77823873D01*
X134661020Y-77823004D01*
X134661022Y-77823004D01*
X134914009Y-77770613D01*
X134938342Y-77765574D01*
X135209343Y-77669607D01*
X135464812Y-77537750D01*
X135468313Y-77535289D01*
X135468317Y-77535287D01*
X135641229Y-77413762D01*
X135700023Y-77372441D01*
X135801411Y-77278225D01*
X135907479Y-77179661D01*
X135907481Y-77179658D01*
X135910622Y-77176740D01*
X136092713Y-76954268D01*
X136242927Y-76709142D01*
X136358483Y-76445898D01*
X136437244Y-76169406D01*
X136477751Y-75884784D01*
X136477845Y-75866951D01*
X136479235Y-75601583D01*
X136479235Y-75601576D01*
X136479257Y-75597297D01*
X136478317Y-75590152D01*
X136457120Y-75429147D01*
X136441732Y-75312266D01*
X136428636Y-75264393D01*
X136395410Y-75142942D01*
X136365871Y-75034964D01*
X136325910Y-74941278D01*
X136254763Y-74774476D01*
X136254761Y-74774472D01*
X136253077Y-74770524D01*
X136105439Y-74523839D01*
X135925687Y-74299472D01*
X135717149Y-74101577D01*
X135483683Y-73933814D01*
X135461843Y-73922250D01*
X135413338Y-73896568D01*
X135229608Y-73799288D01*
X134959627Y-73700489D01*
X134678736Y-73639245D01*
X134647685Y-73636801D01*
X134455718Y-73621693D01*
X134455709Y-73621693D01*
X134453261Y-73621500D01*
X134297729Y-73621500D01*
X134295593Y-73621646D01*
X134295582Y-73621646D01*
X134087452Y-73635835D01*
X134087446Y-73635836D01*
X134083175Y-73636127D01*
X134078980Y-73636996D01*
X134078978Y-73636996D01*
X133942417Y-73665276D01*
X133801658Y-73694426D01*
X133530657Y-73790393D01*
X133275188Y-73922250D01*
X133271687Y-73924711D01*
X133271683Y-73924713D01*
X133261594Y-73931804D01*
X133039977Y-74087559D01*
X132829378Y-74283260D01*
X132647287Y-74505732D01*
X132497073Y-74750858D01*
X132495347Y-74754791D01*
X132495346Y-74754792D01*
X132413484Y-74941278D01*
X132381517Y-75014102D01*
X132380342Y-75018229D01*
X132380341Y-75018230D01*
X132379081Y-75022654D01*
X132302756Y-75290594D01*
X132262249Y-75575216D01*
X132262227Y-75579505D01*
X132262226Y-75579512D01*
X132260765Y-75858417D01*
X132260743Y-75862703D01*
X131358500Y-75862703D01*
X131358500Y-71701078D01*
X131378502Y-71632957D01*
X131432158Y-71586464D01*
X131502432Y-71576360D01*
X131567012Y-71605854D01*
X131599111Y-71648729D01*
X131599280Y-71649099D01*
X131600856Y-71653324D01*
X131603018Y-71657282D01*
X131603018Y-71657283D01*
X131694177Y-71824206D01*
X131724868Y-71880406D01*
X131727567Y-71884010D01*
X131727567Y-71884011D01*
X131876931Y-72083507D01*
X131879939Y-72087525D01*
X132062910Y-72270465D01*
X132066511Y-72273160D01*
X132066512Y-72273161D01*
X132111546Y-72306866D01*
X132270056Y-72425500D01*
X132273999Y-72427652D01*
X132274003Y-72427655D01*
X132493210Y-72547317D01*
X132497160Y-72549473D01*
X132501378Y-72551045D01*
X132501381Y-72551047D01*
X132735377Y-72638288D01*
X132735381Y-72638289D01*
X132739597Y-72639861D01*
X132743994Y-72640817D01*
X132743998Y-72640818D01*
X132988030Y-72693866D01*
X132988036Y-72693867D01*
X132992430Y-72694822D01*
X133250512Y-72713238D01*
X133255003Y-72712916D01*
X133255006Y-72712916D01*
X133500861Y-72695287D01*
X133508587Y-72694733D01*
X133761402Y-72639685D01*
X133997776Y-72551465D01*
X133999593Y-72550787D01*
X133999596Y-72550786D01*
X134003807Y-72549214D01*
X134007750Y-72547060D01*
X134007754Y-72547058D01*
X134225708Y-72427982D01*
X134230868Y-72425163D01*
X134234470Y-72422465D01*
X134234475Y-72422462D01*
X134433245Y-72273589D01*
X134437961Y-72270057D01*
X134441139Y-72266877D01*
X134441144Y-72266873D01*
X134617688Y-72090237D01*
X134617690Y-72090234D01*
X134620869Y-72087054D01*
X134772376Y-71884550D01*
X134773173Y-71883485D01*
X134773175Y-71883481D01*
X134775869Y-71879881D01*
X134880973Y-71687266D01*
X134897648Y-71656707D01*
X134897650Y-71656703D01*
X134899803Y-71652757D01*
X134977354Y-71444640D01*
X134988576Y-71414526D01*
X134988577Y-71414523D01*
X134990149Y-71410304D01*
X135045066Y-71157462D01*
X135061122Y-70931912D01*
X135062543Y-70919996D01*
X135062799Y-70918476D01*
X135063898Y-70911928D01*
X135064047Y-70899376D01*
X135063260Y-70893895D01*
X135063295Y-70893650D01*
X135063037Y-70889701D01*
X135063872Y-70889646D01*
X135073384Y-70823625D01*
X135119893Y-70769982D01*
X135187983Y-70750000D01*
X136185500Y-70750000D01*
X136253621Y-70770002D01*
G37*
%TD.AperFunction*%
%TA.AperFunction,Conductor*%
G36*
X144253621Y-70770002D02*
G01*
X144300114Y-70823658D01*
X144311500Y-70876000D01*
X144311500Y-70898134D01*
X144318255Y-70960316D01*
X144369385Y-71096705D01*
X144456739Y-71213261D01*
X144573295Y-71300615D01*
X144709684Y-71351745D01*
X144771866Y-71358500D01*
X146268134Y-71358500D01*
X146330316Y-71351745D01*
X146466705Y-71300615D01*
X146583261Y-71213261D01*
X146584392Y-71211752D01*
X146643574Y-71179435D01*
X146714389Y-71184500D01*
X146759452Y-71213461D01*
X146764276Y-71218285D01*
X146866351Y-71294786D01*
X146881946Y-71303324D01*
X147002394Y-71348478D01*
X147017649Y-71352105D01*
X147068514Y-71357631D01*
X147075328Y-71358000D01*
X147547885Y-71358000D01*
X147563124Y-71353525D01*
X147564329Y-71352135D01*
X147566000Y-71344452D01*
X147566000Y-70750000D01*
X148074000Y-70750000D01*
X148074000Y-71339884D01*
X148078475Y-71355123D01*
X148079865Y-71356328D01*
X148087548Y-71357999D01*
X148564669Y-71357999D01*
X148571490Y-71357629D01*
X148622352Y-71352105D01*
X148637604Y-71348479D01*
X148758054Y-71303324D01*
X148773649Y-71294786D01*
X148875724Y-71218285D01*
X148880548Y-71213461D01*
X148942860Y-71179435D01*
X149013675Y-71184500D01*
X149055171Y-71211168D01*
X149056739Y-71213261D01*
X149069139Y-71222554D01*
X149173295Y-71300615D01*
X149171404Y-71303139D01*
X149210533Y-71342346D01*
X149225554Y-71411736D01*
X149223131Y-71428816D01*
X149222499Y-71431792D01*
X149220458Y-71438072D01*
X149200496Y-71628000D01*
X149220458Y-71817928D01*
X149279473Y-71999556D01*
X149374960Y-72164944D01*
X149379378Y-72169851D01*
X149379379Y-72169852D01*
X149469604Y-72270057D01*
X149502747Y-72306866D01*
X149657248Y-72419118D01*
X149663276Y-72421802D01*
X149663278Y-72421803D01*
X149825681Y-72494109D01*
X149831712Y-72496794D01*
X149925112Y-72516647D01*
X150012056Y-72535128D01*
X150012061Y-72535128D01*
X150018513Y-72536500D01*
X150209487Y-72536500D01*
X150215939Y-72535128D01*
X150215944Y-72535128D01*
X150302888Y-72516647D01*
X150396288Y-72496794D01*
X150402319Y-72494109D01*
X150564722Y-72421803D01*
X150564724Y-72421802D01*
X150570752Y-72419118D01*
X150725253Y-72306866D01*
X150766088Y-72261514D01*
X150826534Y-72224274D01*
X150897517Y-72225626D01*
X150948819Y-72256729D01*
X150962977Y-72270887D01*
X151170071Y-72425916D01*
X151174025Y-72428075D01*
X151393173Y-72547739D01*
X151393181Y-72547743D01*
X151397121Y-72549894D01*
X151401333Y-72551465D01*
X151635295Y-72638729D01*
X151635301Y-72638731D01*
X151639503Y-72640298D01*
X151643889Y-72641252D01*
X151643892Y-72641253D01*
X151794027Y-72673913D01*
X151892284Y-72695287D01*
X152150318Y-72713742D01*
X152154806Y-72713421D01*
X152155967Y-72713338D01*
X152408352Y-72695287D01*
X152506609Y-72673913D01*
X152656744Y-72641253D01*
X152656747Y-72641252D01*
X152661133Y-72640298D01*
X152665335Y-72638731D01*
X152665341Y-72638729D01*
X152899303Y-72551465D01*
X152903515Y-72549894D01*
X152907455Y-72547743D01*
X152907463Y-72547739D01*
X153126611Y-72428075D01*
X153130565Y-72425916D01*
X153337659Y-72270887D01*
X153520583Y-72087963D01*
X153675612Y-71880869D01*
X153781249Y-71687409D01*
X153797435Y-71657767D01*
X153797439Y-71657759D01*
X153799590Y-71653819D01*
X153829512Y-71573595D01*
X153888425Y-71415645D01*
X153888427Y-71415639D01*
X153889994Y-71411437D01*
X153899191Y-71369162D01*
X153931223Y-71221908D01*
X153944983Y-71158656D01*
X153961110Y-70933166D01*
X153962536Y-70921251D01*
X153963087Y-70917977D01*
X153963088Y-70917963D01*
X153963894Y-70913174D01*
X153963968Y-70907135D01*
X153963988Y-70905487D01*
X153963988Y-70905483D01*
X153964047Y-70900622D01*
X153963357Y-70895802D01*
X153963079Y-70893860D01*
X153963184Y-70893136D01*
X153963041Y-70890947D01*
X153963504Y-70890917D01*
X153973223Y-70823592D01*
X154019747Y-70769963D01*
X154087807Y-70750000D01*
X154485500Y-70750000D01*
X154553621Y-70770002D01*
X154600114Y-70823658D01*
X154611500Y-70876000D01*
X154611500Y-70898134D01*
X154618255Y-70960316D01*
X154669385Y-71096705D01*
X154756739Y-71213261D01*
X154873295Y-71300615D01*
X154881703Y-71303767D01*
X154889575Y-71308077D01*
X154888299Y-71310407D01*
X154933987Y-71344718D01*
X154958696Y-71411275D01*
X154943500Y-71480627D01*
X154922099Y-71509168D01*
X153443672Y-72987595D01*
X153381360Y-73021621D01*
X153354577Y-73024500D01*
X144859032Y-73024500D01*
X144847793Y-73023970D01*
X144840281Y-73022291D01*
X144832356Y-73022540D01*
X144832355Y-73022540D01*
X144771970Y-73024438D01*
X144768012Y-73024500D01*
X144740017Y-73024500D01*
X144736083Y-73024997D01*
X144736081Y-73024997D01*
X144735994Y-73025008D01*
X144724160Y-73025940D01*
X144679796Y-73027335D01*
X144660257Y-73033012D01*
X144640896Y-73037021D01*
X144628568Y-73038578D01*
X144628558Y-73038581D01*
X144620701Y-73039573D01*
X144613333Y-73042490D01*
X144613330Y-73042491D01*
X144579446Y-73055906D01*
X144568221Y-73059750D01*
X144525607Y-73072131D01*
X144518781Y-73076168D01*
X144508091Y-73082490D01*
X144490341Y-73091187D01*
X144471412Y-73098681D01*
X144464998Y-73103341D01*
X144435514Y-73124762D01*
X144425594Y-73131278D01*
X144394229Y-73149827D01*
X144394226Y-73149829D01*
X144387402Y-73153865D01*
X144373014Y-73168253D01*
X144357980Y-73181094D01*
X144341513Y-73193058D01*
X144336460Y-73199166D01*
X144313228Y-73227249D01*
X144305238Y-73236029D01*
X142176477Y-75364790D01*
X142168151Y-75372366D01*
X142161657Y-75376487D01*
X142156234Y-75382262D01*
X142114875Y-75426305D01*
X142112120Y-75429147D01*
X142092321Y-75448946D01*
X142089897Y-75452071D01*
X142089889Y-75452080D01*
X142089823Y-75452166D01*
X142082115Y-75461191D01*
X142051743Y-75493534D01*
X142042127Y-75511026D01*
X142041938Y-75511369D01*
X142031087Y-75527887D01*
X142018610Y-75543973D01*
X142000984Y-75584706D01*
X141995767Y-75595354D01*
X141974391Y-75634237D01*
X141972420Y-75641912D01*
X141972418Y-75641918D01*
X141969329Y-75653951D01*
X141962926Y-75672653D01*
X141954843Y-75691332D01*
X141953604Y-75699157D01*
X141947900Y-75735167D01*
X141945495Y-75746780D01*
X141934460Y-75789758D01*
X141934460Y-75810105D01*
X141932909Y-75829816D01*
X141929725Y-75849919D01*
X141930471Y-75857811D01*
X141933901Y-75894096D01*
X141934460Y-75905954D01*
X141934460Y-82200940D01*
X141933930Y-82212174D01*
X141932252Y-82219679D01*
X141932501Y-82227598D01*
X141934398Y-82287972D01*
X141934460Y-82291929D01*
X141934460Y-82319943D01*
X141934956Y-82323868D01*
X141934956Y-82323869D01*
X141934968Y-82323964D01*
X141935901Y-82335809D01*
X141937295Y-82380165D01*
X141939507Y-82387777D01*
X141942973Y-82399708D01*
X141946983Y-82419072D01*
X141948332Y-82429748D01*
X141949533Y-82439259D01*
X141952449Y-82446623D01*
X141952450Y-82446628D01*
X141965867Y-82480516D01*
X141969712Y-82491745D01*
X141982091Y-82534353D01*
X141986129Y-82541180D01*
X141986130Y-82541183D01*
X141992448Y-82551866D01*
X142001148Y-82569624D01*
X142005721Y-82581175D01*
X142005725Y-82581181D01*
X142008641Y-82588548D01*
X142013299Y-82594959D01*
X142013300Y-82594961D01*
X142034724Y-82624448D01*
X142041241Y-82634370D01*
X142059786Y-82665728D01*
X142059789Y-82665732D01*
X142063826Y-82672558D01*
X142078210Y-82686942D01*
X142091051Y-82701976D01*
X142103018Y-82718447D01*
X142109126Y-82723500D01*
X142137215Y-82746737D01*
X142145995Y-82754727D01*
X143172068Y-83780800D01*
X143206094Y-83843112D01*
X143201029Y-83913927D01*
X143173457Y-83957580D01*
X143118008Y-84014799D01*
X143114881Y-84019453D01*
X143114875Y-84019460D01*
X143020754Y-84159526D01*
X142966158Y-84204911D01*
X142895692Y-84213574D01*
X142827078Y-84178345D01*
X140492405Y-81843672D01*
X140458379Y-81781360D01*
X140455500Y-81754577D01*
X140455500Y-72366583D01*
X140475502Y-72298462D01*
X140529158Y-72251969D01*
X140599432Y-72241865D01*
X140662976Y-72270888D01*
X140662977Y-72270887D01*
X140666581Y-72273585D01*
X140666586Y-72273589D01*
X140828037Y-72394450D01*
X140870071Y-72425916D01*
X140874025Y-72428075D01*
X141093173Y-72547739D01*
X141093181Y-72547743D01*
X141097121Y-72549894D01*
X141101333Y-72551465D01*
X141335295Y-72638729D01*
X141335301Y-72638731D01*
X141339503Y-72640298D01*
X141343889Y-72641252D01*
X141343892Y-72641253D01*
X141494027Y-72673913D01*
X141592284Y-72695287D01*
X141850318Y-72713742D01*
X141854806Y-72713421D01*
X141855967Y-72713338D01*
X142108352Y-72695287D01*
X142206609Y-72673913D01*
X142356744Y-72641253D01*
X142356747Y-72641252D01*
X142361133Y-72640298D01*
X142365335Y-72638731D01*
X142365341Y-72638729D01*
X142599303Y-72551465D01*
X142603515Y-72549894D01*
X142607455Y-72547743D01*
X142607463Y-72547739D01*
X142826611Y-72428075D01*
X142830565Y-72425916D01*
X143037659Y-72270887D01*
X143220583Y-72087963D01*
X143375612Y-71880869D01*
X143481249Y-71687409D01*
X143497435Y-71657767D01*
X143497439Y-71657759D01*
X143499590Y-71653819D01*
X143529512Y-71573595D01*
X143588425Y-71415645D01*
X143588427Y-71415639D01*
X143589994Y-71411437D01*
X143599191Y-71369162D01*
X143631223Y-71221908D01*
X143644983Y-71158656D01*
X143661110Y-70933166D01*
X143662536Y-70921251D01*
X143663087Y-70917977D01*
X143663088Y-70917963D01*
X143663894Y-70913174D01*
X143663968Y-70907135D01*
X143663988Y-70905487D01*
X143663988Y-70905483D01*
X143664047Y-70900622D01*
X143663357Y-70895802D01*
X143663079Y-70893860D01*
X143663184Y-70893136D01*
X143663041Y-70890947D01*
X143663504Y-70890917D01*
X143673223Y-70823592D01*
X143719747Y-70769963D01*
X143787807Y-70750000D01*
X144185500Y-70750000D01*
X144253621Y-70770002D01*
G37*
%TD.AperFunction*%
%TA.AperFunction,Conductor*%
G36*
X160671622Y-71378502D02*
G01*
X160718115Y-71432158D01*
X160721542Y-71440429D01*
X160799639Y-71649607D01*
X160801256Y-71653939D01*
X160803413Y-71657886D01*
X160922564Y-71875926D01*
X160925309Y-71880950D01*
X160928006Y-71884550D01*
X161077682Y-72084359D01*
X161080406Y-72087996D01*
X161263390Y-72270862D01*
X161266994Y-72273558D01*
X161466931Y-72423128D01*
X161466937Y-72423132D01*
X161470537Y-72425825D01*
X161474488Y-72427981D01*
X161474490Y-72427982D01*
X161558979Y-72474081D01*
X161697628Y-72549731D01*
X161701843Y-72551302D01*
X161701844Y-72551302D01*
X161935824Y-72638487D01*
X161935828Y-72638488D01*
X161940041Y-72640058D01*
X162192842Y-72694966D01*
X162197328Y-72695285D01*
X162197332Y-72695286D01*
X162299330Y-72702548D01*
X162450884Y-72713338D01*
X162455366Y-72713016D01*
X162455373Y-72713016D01*
X162704425Y-72695123D01*
X162704432Y-72695122D01*
X162708914Y-72694800D01*
X162961680Y-72639729D01*
X163102316Y-72587223D01*
X163199820Y-72550820D01*
X163199824Y-72550818D01*
X163204035Y-72549246D01*
X163431047Y-72425194D01*
X163583825Y-72310749D01*
X163634497Y-72272791D01*
X163634499Y-72272789D01*
X163638093Y-72270097D01*
X163820959Y-72087113D01*
X163882179Y-72005279D01*
X163973227Y-71883571D01*
X163973228Y-71883570D01*
X163975923Y-71879967D01*
X164099830Y-71652876D01*
X164109099Y-71628000D01*
X164160413Y-71490289D01*
X164202942Y-71433440D01*
X164269454Y-71408608D01*
X164278483Y-71408284D01*
X166415500Y-71408284D01*
X166483621Y-71428286D01*
X166530114Y-71481942D01*
X166541500Y-71534284D01*
X166541500Y-75226655D01*
X166521498Y-75294776D01*
X166467842Y-75341269D01*
X166397568Y-75351373D01*
X166327815Y-75317139D01*
X166327179Y-75316522D01*
X166268726Y-75259877D01*
X166219229Y-75211911D01*
X166219226Y-75211909D01*
X166215201Y-75208008D01*
X166028738Y-75082710D01*
X165823033Y-74992412D01*
X165817582Y-74991103D01*
X165817578Y-74991102D01*
X165610046Y-74941278D01*
X165610045Y-74941278D01*
X165604589Y-74939968D01*
X165520525Y-74935121D01*
X165385917Y-74927360D01*
X165385914Y-74927360D01*
X165380310Y-74927037D01*
X165157285Y-74954025D01*
X164942565Y-75020082D01*
X164937585Y-75022652D01*
X164937581Y-75022654D01*
X164747919Y-75120546D01*
X164742936Y-75123118D01*
X164738488Y-75126531D01*
X164733749Y-75129539D01*
X164732929Y-75128246D01*
X164673402Y-75151250D01*
X164603855Y-75136977D01*
X164573839Y-75114781D01*
X163990832Y-74531774D01*
X163960094Y-74481616D01*
X163904568Y-74310726D01*
X163902527Y-74304444D01*
X163890297Y-74283260D01*
X163810341Y-74144774D01*
X163807040Y-74139056D01*
X163679253Y-73997134D01*
X163573480Y-73920285D01*
X163530094Y-73888763D01*
X163530093Y-73888762D01*
X163524752Y-73884882D01*
X163518724Y-73882198D01*
X163518722Y-73882197D01*
X163356319Y-73809891D01*
X163356318Y-73809891D01*
X163350288Y-73807206D01*
X163256887Y-73787353D01*
X163169944Y-73768872D01*
X163169939Y-73768872D01*
X163163487Y-73767500D01*
X162972513Y-73767500D01*
X162966061Y-73768872D01*
X162966056Y-73768872D01*
X162879113Y-73787353D01*
X162785712Y-73807206D01*
X162779682Y-73809891D01*
X162779681Y-73809891D01*
X162617278Y-73882197D01*
X162617276Y-73882198D01*
X162611248Y-73884882D01*
X162605907Y-73888762D01*
X162605906Y-73888763D01*
X162562520Y-73920285D01*
X162456747Y-73997134D01*
X162328960Y-74139056D01*
X162325659Y-74144774D01*
X162245704Y-74283260D01*
X162233473Y-74304444D01*
X162174458Y-74486072D01*
X162173768Y-74492633D01*
X162173768Y-74492635D01*
X162155186Y-74669435D01*
X162154496Y-74676000D01*
X162174458Y-74865928D01*
X162219678Y-75005100D01*
X162221706Y-75076065D01*
X162185044Y-75136863D01*
X162176549Y-75143996D01*
X162029499Y-75256832D01*
X162021276Y-75264393D01*
X161877688Y-75422194D01*
X161870933Y-75431094D01*
X161757566Y-75611815D01*
X161752489Y-75621781D01*
X161727333Y-75684358D01*
X161683367Y-75740103D01*
X161616242Y-75763228D01*
X161547271Y-75746391D01*
X161496700Y-75691607D01*
X161493101Y-75684062D01*
X161427622Y-75546782D01*
X161296529Y-75364346D01*
X161188726Y-75259877D01*
X161139229Y-75211911D01*
X161139226Y-75211909D01*
X161135201Y-75208008D01*
X160948738Y-75082710D01*
X160743033Y-74992412D01*
X160737582Y-74991103D01*
X160737578Y-74991102D01*
X160530046Y-74941278D01*
X160530045Y-74941278D01*
X160524589Y-74939968D01*
X160440525Y-74935121D01*
X160305917Y-74927360D01*
X160305914Y-74927360D01*
X160300310Y-74927037D01*
X160077285Y-74954025D01*
X159862565Y-75020082D01*
X159857585Y-75022652D01*
X159857581Y-75022654D01*
X159667919Y-75120546D01*
X159662936Y-75123118D01*
X159484708Y-75259877D01*
X159333515Y-75426036D01*
X159330537Y-75430783D01*
X159330535Y-75430786D01*
X159239935Y-75575216D01*
X159214136Y-75616344D01*
X159187039Y-75683750D01*
X159143075Y-75739490D01*
X159075950Y-75762616D01*
X159006979Y-75745779D01*
X158956408Y-75690995D01*
X158953101Y-75684062D01*
X158887622Y-75546782D01*
X158756529Y-75364346D01*
X158648726Y-75259877D01*
X158599229Y-75211911D01*
X158599226Y-75211909D01*
X158595201Y-75208008D01*
X158408738Y-75082710D01*
X158203033Y-74992412D01*
X158197582Y-74991103D01*
X158197578Y-74991102D01*
X157990046Y-74941278D01*
X157990045Y-74941278D01*
X157984589Y-74939968D01*
X157900525Y-74935121D01*
X157765917Y-74927360D01*
X157765914Y-74927360D01*
X157760310Y-74927037D01*
X157537285Y-74954025D01*
X157322565Y-75020082D01*
X157317585Y-75022652D01*
X157317581Y-75022654D01*
X157127919Y-75120546D01*
X157122936Y-75123118D01*
X156944708Y-75259877D01*
X156793515Y-75426036D01*
X156790537Y-75430783D01*
X156790535Y-75430786D01*
X156699935Y-75575216D01*
X156674136Y-75616344D01*
X156647039Y-75683750D01*
X156603075Y-75739490D01*
X156535950Y-75762616D01*
X156466979Y-75745779D01*
X156416408Y-75690995D01*
X156413101Y-75684062D01*
X156347622Y-75546782D01*
X156258097Y-75422194D01*
X156246186Y-75405618D01*
X156222679Y-75338626D01*
X156239121Y-75269560D01*
X156274446Y-75230157D01*
X156298137Y-75212944D01*
X156300495Y-75211231D01*
X156310410Y-75204719D01*
X156341768Y-75186174D01*
X156341772Y-75186171D01*
X156348598Y-75182134D01*
X156362982Y-75167750D01*
X156378016Y-75154909D01*
X156388073Y-75147602D01*
X156394487Y-75142942D01*
X156422778Y-75108744D01*
X156430767Y-75099965D01*
X160135327Y-71395405D01*
X160197639Y-71361379D01*
X160224422Y-71358500D01*
X160603501Y-71358500D01*
X160671622Y-71378502D01*
G37*
%TD.AperFunction*%
%TD*%
M02*
