%TF.GenerationSoftware,KiCad,Pcbnew,(6.0.5)*%
%TF.CreationDate,2023-02-05T19:42:25+01:00*%
%TF.ProjectId,PicoMemcard-rp2040zero,5069636f-4d65-46d6-9361-72642d727032,1.3.1*%
%TF.SameCoordinates,Original*%
%TF.FileFunction,Copper,L2,Bot*%
%TF.FilePolarity,Positive*%
%FSLAX46Y46*%
G04 Gerber Fmt 4.6, Leading zero omitted, Abs format (unit mm)*
G04 Created by KiCad (PCBNEW (6.0.5)) date 2023-02-05 19:42:25*
%MOMM*%
%LPD*%
G01*
G04 APERTURE LIST*
%TA.AperFunction,SMDPad,CuDef*%
%ADD10R,1.000000X1.700000*%
%TD*%
%TA.AperFunction,SMDPad,CuDef*%
%ADD11O,1.800000X4.000000*%
%TD*%
%TA.AperFunction,ViaPad*%
%ADD12C,0.800000*%
%TD*%
%TA.AperFunction,ViaPad*%
%ADD13C,0.500000*%
%TD*%
%TA.AperFunction,Conductor*%
%ADD14C,0.254000*%
%TD*%
%TA.AperFunction,Conductor*%
%ADD15C,0.500000*%
%TD*%
G04 APERTURE END LIST*
D10*
%TO.P,3,1,A*%
%TO.N,+3V3*%
X140026000Y-112520000D03*
%TO.P,3,2,B*%
X140026000Y-105920000D03*
%TO.P,3,3,C*%
%TO.N,GP28*%
X136326000Y-112520000D03*
%TO.P,3,4,D*%
X136326000Y-105920000D03*
%TD*%
%TO.P,1,1,A*%
%TO.N,+3V3*%
X140026000Y-91570000D03*
%TO.P,1,2,B*%
X140026000Y-84970000D03*
%TO.P,1,3,C*%
%TO.N,GP26*%
X136326000Y-91570000D03*
%TO.P,1,4,D*%
X136326000Y-84970000D03*
%TD*%
%TO.P,2,1,A*%
%TO.N,+3V3*%
X140026000Y-102160000D03*
%TO.P,2,2,B*%
X140026000Y-95560000D03*
%TO.P,2,3,C*%
%TO.N,GP27*%
X136326000Y-102160000D03*
%TO.P,2,4,D*%
X136326000Y-95560000D03*
%TD*%
D11*
%TO.P,J2,1,Pin_1*%
%TO.N,+3V3*%
X145372000Y-97248000D03*
%TO.P,J2,2,Pin_2*%
%TO.N,CS*%
X147872000Y-97248000D03*
%TO.P,J2,3,Pin_3*%
%TO.N,MOSI*%
X150372000Y-97248000D03*
%TO.P,J2,4,Pin_4*%
%TO.N,SCK*%
X152872000Y-97248000D03*
%TO.P,J2,5,Pin_5*%
%TO.N,MISO*%
X155372000Y-97248000D03*
%TO.P,J2,6,Pin_6*%
%TO.N,GND*%
X157872000Y-97248000D03*
%TD*%
D12*
%TO.N,GND*%
X133096000Y-80772000D03*
X146050000Y-111252000D03*
X142240000Y-92964000D03*
X141478000Y-73914000D03*
X161544000Y-75184000D03*
X156464000Y-102616000D03*
X146304000Y-72136000D03*
X163830000Y-96520000D03*
D13*
%TO.N,GP26*%
X148844000Y-76708000D03*
%TO.N,GP27*%
X151384000Y-75946000D03*
%TO.N,GP28*%
X153924000Y-75252500D03*
%TO.N,MISO*%
X156972000Y-100076000D03*
D12*
%TO.N,+5V*%
X163068000Y-74676000D03*
X150114000Y-71628000D03*
D13*
%TO.N,CS*%
X148844000Y-91186000D03*
%TO.N,SCK*%
X156972000Y-94673500D03*
%TO.N,MOSI*%
X156464000Y-91948000D03*
D12*
%TO.N,+3V3*%
X159004000Y-78232000D03*
%TD*%
D14*
%TO.N,GP26*%
X136326000Y-84970000D02*
X138042000Y-84970000D01*
X138042000Y-84970000D02*
X146304000Y-76708000D01*
X136326000Y-84970000D02*
X136326000Y-91570000D01*
X146304000Y-76708000D02*
X148844000Y-76708000D01*
%TO.N,GP27*%
X135128000Y-93726000D02*
X136326000Y-94924000D01*
X142748000Y-75946000D02*
X135128000Y-83566000D01*
X151384000Y-75946000D02*
X142748000Y-75946000D01*
X136326000Y-95560000D02*
X136326000Y-102160000D01*
X135128000Y-83566000D02*
X135128000Y-93726000D01*
%TO.N,GP28*%
X141663500Y-75252500D02*
X133604000Y-83312000D01*
X136326000Y-105084000D02*
X136326000Y-105920000D01*
X136326000Y-105920000D02*
X136326000Y-112520000D01*
X133604000Y-83312000D02*
X133604000Y-102362000D01*
X133604000Y-102362000D02*
X136326000Y-105084000D01*
X153924000Y-75252500D02*
X141663500Y-75252500D01*
%TO.N,MISO*%
X156972000Y-100076000D02*
X155372000Y-98476000D01*
D15*
%TO.N,+5V*%
X151130000Y-72644000D02*
X150114000Y-71628000D01*
X163068000Y-74676000D02*
X161036000Y-72644000D01*
X161036000Y-72644000D02*
X151130000Y-72644000D01*
D14*
%TO.N,CS*%
X147872000Y-92158000D02*
X147872000Y-97248000D01*
X148844000Y-91186000D02*
X147872000Y-92158000D01*
%TO.N,SCK*%
X156972000Y-94673500D02*
X154992500Y-94673500D01*
X154992500Y-94673500D02*
X152872000Y-96794000D01*
%TO.N,MOSI*%
X150372000Y-96794000D02*
X150372000Y-97248000D01*
X156464000Y-91948000D02*
X155218000Y-91948000D01*
X155218000Y-91948000D02*
X150372000Y-96794000D01*
D15*
%TO.N,+3V3*%
X140026000Y-91570000D02*
X140026000Y-95560000D01*
X140770000Y-102160000D02*
X140026000Y-102160000D01*
X140026000Y-95560000D02*
X141950000Y-95560000D01*
X146234419Y-78232000D02*
X140026000Y-84440419D01*
X140026000Y-102160000D02*
X140026000Y-105920000D01*
X144660000Y-98270000D02*
X140770000Y-102160000D01*
X140026000Y-105920000D02*
X140026000Y-112520000D01*
X141950000Y-95560000D02*
X144660000Y-98270000D01*
X159004000Y-78232000D02*
X146234419Y-78232000D01*
X140026000Y-84970000D02*
X140026000Y-91570000D01*
%TD*%
%TA.AperFunction,Conductor*%
%TO.N,GND*%
G36*
X139980235Y-70770002D02*
G01*
X140026728Y-70823658D01*
X140038105Y-70877535D01*
X140038008Y-70885475D01*
X140036627Y-70894346D01*
X140037448Y-70900622D01*
X140037198Y-70900622D01*
X140055653Y-71158656D01*
X140110642Y-71411437D01*
X140112209Y-71415639D01*
X140112211Y-71415645D01*
X140172155Y-71576360D01*
X140201046Y-71653819D01*
X140203197Y-71657759D01*
X140203201Y-71657767D01*
X140290656Y-71817928D01*
X140325024Y-71880869D01*
X140480053Y-72087963D01*
X140662977Y-72270887D01*
X140870071Y-72425916D01*
X140874025Y-72428075D01*
X141093173Y-72547739D01*
X141093181Y-72547743D01*
X141097121Y-72549894D01*
X141101333Y-72551465D01*
X141335295Y-72638729D01*
X141335301Y-72638731D01*
X141339503Y-72640298D01*
X141343889Y-72641252D01*
X141343892Y-72641253D01*
X141494027Y-72673913D01*
X141592284Y-72695287D01*
X141850318Y-72713742D01*
X141854806Y-72713421D01*
X141855967Y-72713338D01*
X142108352Y-72695287D01*
X142206609Y-72673913D01*
X142356744Y-72641253D01*
X142356747Y-72641252D01*
X142361133Y-72640298D01*
X142365335Y-72638731D01*
X142365341Y-72638729D01*
X142599303Y-72551465D01*
X142603515Y-72549894D01*
X142607455Y-72547743D01*
X142607463Y-72547739D01*
X142826611Y-72428075D01*
X142830565Y-72425916D01*
X143037659Y-72270887D01*
X143220583Y-72087963D01*
X143375612Y-71880869D01*
X143409980Y-71817928D01*
X143497435Y-71657767D01*
X143497439Y-71657759D01*
X143499590Y-71653819D01*
X143528481Y-71576360D01*
X143588425Y-71415645D01*
X143588427Y-71415639D01*
X143589994Y-71411437D01*
X143644983Y-71158656D01*
X143661110Y-70933166D01*
X143662536Y-70921251D01*
X143663087Y-70917977D01*
X143663088Y-70917963D01*
X143663894Y-70913174D01*
X143663968Y-70907135D01*
X143663988Y-70905487D01*
X143663988Y-70905483D01*
X143664047Y-70900622D01*
X143663357Y-70895802D01*
X143663079Y-70893860D01*
X143663184Y-70893136D01*
X143663041Y-70890947D01*
X143663504Y-70890917D01*
X143673223Y-70823592D01*
X143719747Y-70769963D01*
X143787807Y-70750000D01*
X149399048Y-70750000D01*
X149467169Y-70770002D01*
X149513662Y-70823658D01*
X149523766Y-70893932D01*
X149492684Y-70960310D01*
X149398406Y-71065017D01*
X149374960Y-71091056D01*
X149279473Y-71256444D01*
X149220458Y-71438072D01*
X149219768Y-71444633D01*
X149219768Y-71444635D01*
X149204966Y-71585471D01*
X149200496Y-71628000D01*
X149201186Y-71634565D01*
X149215258Y-71768449D01*
X149220458Y-71817928D01*
X149279473Y-71999556D01*
X149374960Y-72164944D01*
X149379378Y-72169851D01*
X149379379Y-72169852D01*
X149469604Y-72270057D01*
X149502747Y-72306866D01*
X149657248Y-72419118D01*
X149663276Y-72421802D01*
X149663278Y-72421803D01*
X149825681Y-72494109D01*
X149831712Y-72496794D01*
X149838167Y-72498166D01*
X149838176Y-72498169D01*
X149894772Y-72510199D01*
X149957669Y-72544350D01*
X150546230Y-73132911D01*
X150558616Y-73147323D01*
X150567149Y-73158918D01*
X150567154Y-73158923D01*
X150571492Y-73164818D01*
X150577070Y-73169557D01*
X150577073Y-73169560D01*
X150611768Y-73199035D01*
X150619284Y-73205965D01*
X150624979Y-73211660D01*
X150627861Y-73213940D01*
X150647251Y-73229281D01*
X150650655Y-73232072D01*
X150700703Y-73274591D01*
X150706285Y-73279333D01*
X150712801Y-73282661D01*
X150717850Y-73286028D01*
X150722979Y-73289195D01*
X150728716Y-73293734D01*
X150794875Y-73324655D01*
X150798769Y-73326558D01*
X150863808Y-73359769D01*
X150870916Y-73361508D01*
X150876559Y-73363607D01*
X150882322Y-73365524D01*
X150888950Y-73368622D01*
X150896112Y-73370112D01*
X150896113Y-73370112D01*
X150960412Y-73383486D01*
X150964696Y-73384456D01*
X151035610Y-73401808D01*
X151041212Y-73402156D01*
X151041215Y-73402156D01*
X151046764Y-73402500D01*
X151046762Y-73402536D01*
X151050755Y-73402775D01*
X151054947Y-73403149D01*
X151062115Y-73404640D01*
X151139520Y-73402546D01*
X151142928Y-73402500D01*
X160669629Y-73402500D01*
X160737750Y-73422502D01*
X160758724Y-73439405D01*
X162147875Y-74828556D01*
X162178613Y-74878714D01*
X162233473Y-75047556D01*
X162328960Y-75212944D01*
X162333378Y-75217851D01*
X162333379Y-75217852D01*
X162387287Y-75277723D01*
X162456747Y-75354866D01*
X162555843Y-75426864D01*
X162577124Y-75442325D01*
X162611248Y-75467118D01*
X162617276Y-75469802D01*
X162617278Y-75469803D01*
X162779681Y-75542109D01*
X162785712Y-75544794D01*
X162879113Y-75564647D01*
X162966056Y-75583128D01*
X162966061Y-75583128D01*
X162972513Y-75584500D01*
X163163487Y-75584500D01*
X163169939Y-75583128D01*
X163169944Y-75583128D01*
X163256887Y-75564647D01*
X163350288Y-75544794D01*
X163356319Y-75542109D01*
X163518722Y-75469803D01*
X163518724Y-75469802D01*
X163524752Y-75467118D01*
X163558877Y-75442325D01*
X163580157Y-75426864D01*
X163679253Y-75354866D01*
X163748713Y-75277723D01*
X163802621Y-75217852D01*
X163802622Y-75217851D01*
X163807040Y-75212944D01*
X163902527Y-75047556D01*
X163961542Y-74865928D01*
X163981504Y-74676000D01*
X163976619Y-74629523D01*
X163962232Y-74492635D01*
X163962232Y-74492633D01*
X163961542Y-74486072D01*
X163902527Y-74304444D01*
X163890297Y-74283260D01*
X163810341Y-74144774D01*
X163807040Y-74139056D01*
X163679253Y-73997134D01*
X163524752Y-73884882D01*
X163518724Y-73882198D01*
X163518722Y-73882197D01*
X163356319Y-73809891D01*
X163356318Y-73809891D01*
X163350288Y-73807206D01*
X163343833Y-73805834D01*
X163343824Y-73805831D01*
X163287228Y-73793801D01*
X163224331Y-73759650D01*
X162391317Y-72926636D01*
X162357291Y-72864324D01*
X162362356Y-72793509D01*
X162404903Y-72736673D01*
X162471382Y-72711865D01*
X162552600Y-72706030D01*
X162704425Y-72695123D01*
X162704432Y-72695122D01*
X162708914Y-72694800D01*
X162961680Y-72639729D01*
X163102316Y-72587223D01*
X163199820Y-72550820D01*
X163199824Y-72550818D01*
X163204035Y-72549246D01*
X163431047Y-72425194D01*
X163583825Y-72310749D01*
X163634497Y-72272791D01*
X163634499Y-72272789D01*
X163638093Y-72270097D01*
X163820959Y-72087113D01*
X163882179Y-72005279D01*
X163973227Y-71883571D01*
X163973228Y-71883570D01*
X163975923Y-71879967D01*
X164099830Y-71652876D01*
X164109099Y-71628000D01*
X164160413Y-71490289D01*
X164202942Y-71433440D01*
X164269454Y-71408608D01*
X164278483Y-71408284D01*
X166415500Y-71408284D01*
X166483621Y-71428286D01*
X166530114Y-71481942D01*
X166541500Y-71534284D01*
X166541500Y-78175500D01*
X166521498Y-78243621D01*
X166467842Y-78290114D01*
X166415500Y-78301500D01*
X160038260Y-78301500D01*
X159970139Y-78281498D01*
X159923646Y-78227842D01*
X159912950Y-78188671D01*
X159898232Y-78048634D01*
X159898231Y-78048631D01*
X159897542Y-78042072D01*
X159838527Y-77860444D01*
X159815807Y-77821091D01*
X159780253Y-77759511D01*
X159743040Y-77695056D01*
X159718356Y-77667641D01*
X159619675Y-77558045D01*
X159619674Y-77558044D01*
X159615253Y-77553134D01*
X159481160Y-77455709D01*
X159466094Y-77444763D01*
X159466093Y-77444762D01*
X159460752Y-77440882D01*
X159454724Y-77438198D01*
X159454722Y-77438197D01*
X159292319Y-77365891D01*
X159292318Y-77365891D01*
X159286288Y-77363206D01*
X159192888Y-77343353D01*
X159105944Y-77324872D01*
X159105939Y-77324872D01*
X159099487Y-77323500D01*
X158908513Y-77323500D01*
X158902061Y-77324872D01*
X158902056Y-77324872D01*
X158815112Y-77343353D01*
X158721712Y-77363206D01*
X158715682Y-77365891D01*
X158715681Y-77365891D01*
X158553278Y-77438197D01*
X158553276Y-77438198D01*
X158547248Y-77440882D01*
X158541909Y-77444761D01*
X158541902Y-77444765D01*
X158535472Y-77449437D01*
X158461413Y-77473500D01*
X149455111Y-77473500D01*
X149386990Y-77453498D01*
X149340497Y-77399842D01*
X149330393Y-77329568D01*
X149359887Y-77264988D01*
X149368219Y-77256254D01*
X149428721Y-77198639D01*
X149522891Y-77056902D01*
X149583319Y-76897825D01*
X149607001Y-76729313D01*
X149607299Y-76708000D01*
X149608691Y-76708019D01*
X149623967Y-76644656D01*
X149675279Y-76595590D01*
X149733176Y-76581500D01*
X150932279Y-76581500D01*
X151001272Y-76602068D01*
X151026238Y-76618405D01*
X151039846Y-76627310D01*
X151046450Y-76629766D01*
X151046452Y-76629767D01*
X151114727Y-76655158D01*
X151199341Y-76686626D01*
X151368015Y-76709132D01*
X151375026Y-76708494D01*
X151375030Y-76708494D01*
X151530462Y-76694348D01*
X151537483Y-76693709D01*
X151544185Y-76691531D01*
X151544187Y-76691531D01*
X151692623Y-76643301D01*
X151692626Y-76643300D01*
X151699322Y-76641124D01*
X151845490Y-76553990D01*
X151850584Y-76549139D01*
X151850588Y-76549136D01*
X151958998Y-76445898D01*
X151968721Y-76436639D01*
X152062891Y-76294902D01*
X152123319Y-76135825D01*
X152142904Y-75996465D01*
X152172192Y-75931791D01*
X152231796Y-75893217D01*
X152267678Y-75888000D01*
X153472279Y-75888000D01*
X153541272Y-75908568D01*
X153579846Y-75933810D01*
X153586450Y-75936266D01*
X153586452Y-75936267D01*
X153622844Y-75949801D01*
X153739341Y-75993126D01*
X153908015Y-76015632D01*
X153915026Y-76014994D01*
X153915030Y-76014994D01*
X154070462Y-76000848D01*
X154077483Y-76000209D01*
X154084185Y-75998031D01*
X154084187Y-75998031D01*
X154232623Y-75949801D01*
X154232626Y-75949800D01*
X154239322Y-75947624D01*
X154385490Y-75860490D01*
X154390584Y-75855639D01*
X154390588Y-75855636D01*
X154457833Y-75791599D01*
X154508721Y-75743139D01*
X154602891Y-75601402D01*
X154663319Y-75442325D01*
X154687001Y-75273813D01*
X154687299Y-75252500D01*
X154668331Y-75083392D01*
X154657845Y-75053279D01*
X154614686Y-74929346D01*
X154612368Y-74922689D01*
X154522192Y-74778379D01*
X154510731Y-74766837D01*
X154407248Y-74662629D01*
X154402286Y-74657632D01*
X154393809Y-74652252D01*
X154342335Y-74619586D01*
X154258608Y-74566451D01*
X154098300Y-74509368D01*
X153929329Y-74489220D01*
X153922326Y-74489956D01*
X153922325Y-74489956D01*
X153767101Y-74506270D01*
X153767097Y-74506271D01*
X153760093Y-74507007D01*
X153753422Y-74509278D01*
X153605673Y-74559575D01*
X153605670Y-74559576D01*
X153599003Y-74561846D01*
X153539721Y-74598317D01*
X153473698Y-74617000D01*
X141742520Y-74617000D01*
X141731286Y-74616470D01*
X141723781Y-74614792D01*
X141656071Y-74616920D01*
X141655488Y-74616938D01*
X141651531Y-74617000D01*
X141623517Y-74617000D01*
X141619592Y-74617496D01*
X141619591Y-74617496D01*
X141619496Y-74617508D01*
X141607651Y-74618441D01*
X141577830Y-74619378D01*
X141571218Y-74619586D01*
X141571217Y-74619586D01*
X141563295Y-74619835D01*
X141543752Y-74625513D01*
X141524388Y-74629523D01*
X141512060Y-74631080D01*
X141512058Y-74631080D01*
X141504201Y-74632073D01*
X141496837Y-74634989D01*
X141496832Y-74634990D01*
X141462944Y-74648407D01*
X141451715Y-74652252D01*
X141437741Y-74656312D01*
X141409107Y-74664631D01*
X141402281Y-74668668D01*
X141391591Y-74674990D01*
X141373841Y-74683687D01*
X141354912Y-74691181D01*
X141348496Y-74695842D01*
X141348495Y-74695843D01*
X141319019Y-74717259D01*
X141309095Y-74723778D01*
X141277724Y-74742330D01*
X141277719Y-74742334D01*
X141270901Y-74746366D01*
X141256514Y-74760753D01*
X141241480Y-74773594D01*
X141225013Y-74785558D01*
X141219960Y-74791666D01*
X141196728Y-74819749D01*
X141188738Y-74828529D01*
X133210517Y-82806750D01*
X133202191Y-82814326D01*
X133195697Y-82818447D01*
X133190274Y-82824222D01*
X133148915Y-82868265D01*
X133146160Y-82871107D01*
X133126361Y-82890906D01*
X133123937Y-82894031D01*
X133123929Y-82894040D01*
X133123863Y-82894126D01*
X133116155Y-82903151D01*
X133085783Y-82935494D01*
X133081965Y-82942438D01*
X133081964Y-82942440D01*
X133075978Y-82953329D01*
X133065127Y-82969847D01*
X133052650Y-82985933D01*
X133035024Y-83026666D01*
X133029807Y-83037314D01*
X133008431Y-83076197D01*
X133006460Y-83083872D01*
X133006458Y-83083878D01*
X133003369Y-83095911D01*
X132996966Y-83114613D01*
X132988883Y-83133292D01*
X132987644Y-83141117D01*
X132981940Y-83177127D01*
X132979535Y-83188740D01*
X132968500Y-83231718D01*
X132968500Y-83252065D01*
X132966949Y-83271776D01*
X132963765Y-83291879D01*
X132964511Y-83299771D01*
X132967941Y-83336056D01*
X132968500Y-83347914D01*
X132968500Y-102282980D01*
X132967970Y-102294214D01*
X132966292Y-102301719D01*
X132966541Y-102309638D01*
X132968438Y-102370012D01*
X132968500Y-102373969D01*
X132968500Y-102401983D01*
X132968996Y-102405908D01*
X132968996Y-102405909D01*
X132969008Y-102406004D01*
X132969941Y-102417849D01*
X132971335Y-102462205D01*
X132973547Y-102469817D01*
X132977013Y-102481748D01*
X132981023Y-102501112D01*
X132983573Y-102521299D01*
X132986489Y-102528663D01*
X132986490Y-102528668D01*
X132999907Y-102562556D01*
X133003752Y-102573785D01*
X133016131Y-102616393D01*
X133020169Y-102623220D01*
X133020170Y-102623223D01*
X133026488Y-102633906D01*
X133035188Y-102651664D01*
X133039761Y-102663215D01*
X133039765Y-102663221D01*
X133042681Y-102670588D01*
X133047339Y-102676999D01*
X133047340Y-102677001D01*
X133068764Y-102706488D01*
X133075281Y-102716410D01*
X133093826Y-102747768D01*
X133093829Y-102747772D01*
X133097866Y-102754598D01*
X133112250Y-102768982D01*
X133125091Y-102784016D01*
X133137058Y-102800487D01*
X133143166Y-102805540D01*
X133171255Y-102828777D01*
X133180035Y-102836767D01*
X135280595Y-104937327D01*
X135314621Y-104999639D01*
X135317500Y-105026422D01*
X135317500Y-106818134D01*
X135324255Y-106880316D01*
X135375385Y-107016705D01*
X135462739Y-107133261D01*
X135579295Y-107220615D01*
X135606557Y-107230835D01*
X135608731Y-107231650D01*
X135665495Y-107274292D01*
X135690194Y-107340854D01*
X135690500Y-107349632D01*
X135690500Y-111090368D01*
X135670498Y-111158489D01*
X135616842Y-111204982D01*
X135608733Y-111208349D01*
X135579295Y-111219385D01*
X135462739Y-111306739D01*
X135375385Y-111423295D01*
X135324255Y-111559684D01*
X135317500Y-111621866D01*
X135317500Y-113418134D01*
X135324255Y-113480316D01*
X135375385Y-113616705D01*
X135462739Y-113733261D01*
X135579295Y-113820615D01*
X135587704Y-113823767D01*
X135587705Y-113823768D01*
X135704408Y-113867518D01*
X135761173Y-113910159D01*
X135785873Y-113976721D01*
X135770666Y-114046070D01*
X135720380Y-114096188D01*
X135660179Y-114111500D01*
X134334500Y-114111500D01*
X134266379Y-114091498D01*
X134219886Y-114037842D01*
X134208500Y-113985500D01*
X134208500Y-105608623D01*
X134208502Y-105607853D01*
X134208800Y-105559102D01*
X134208976Y-105530279D01*
X134200850Y-105501847D01*
X134197272Y-105485085D01*
X134194352Y-105464698D01*
X134193080Y-105455813D01*
X134182451Y-105432436D01*
X134176004Y-105414913D01*
X134171416Y-105398862D01*
X134168949Y-105390229D01*
X134164156Y-105382632D01*
X134153170Y-105365220D01*
X134145030Y-105350135D01*
X134142564Y-105344711D01*
X134132792Y-105323218D01*
X134116030Y-105303765D01*
X134104927Y-105288761D01*
X134091224Y-105267042D01*
X134084499Y-105261103D01*
X134084496Y-105261099D01*
X134069062Y-105247468D01*
X134057018Y-105235276D01*
X134043573Y-105219673D01*
X134043570Y-105219671D01*
X134037713Y-105212873D01*
X134024009Y-105203990D01*
X134016165Y-105198906D01*
X134001291Y-105187615D01*
X133988783Y-105176569D01*
X133988782Y-105176568D01*
X133982049Y-105170622D01*
X133955287Y-105158057D01*
X133940309Y-105149737D01*
X133923017Y-105138529D01*
X133923012Y-105138527D01*
X133915485Y-105133648D01*
X133906892Y-105131078D01*
X133906887Y-105131076D01*
X133890880Y-105126289D01*
X133873436Y-105119628D01*
X133858324Y-105112533D01*
X133858322Y-105112532D01*
X133850200Y-105108719D01*
X133841333Y-105107338D01*
X133841332Y-105107338D01*
X133830478Y-105105648D01*
X133820983Y-105104170D01*
X133804268Y-105100387D01*
X133784534Y-105094485D01*
X133784528Y-105094484D01*
X133775934Y-105091914D01*
X133766963Y-105091859D01*
X133766962Y-105091859D01*
X133756903Y-105091798D01*
X133741494Y-105091704D01*
X133740711Y-105091671D01*
X133739614Y-105091500D01*
X133708623Y-105091500D01*
X133707853Y-105091498D01*
X133634215Y-105091048D01*
X133634214Y-105091048D01*
X133630279Y-105091024D01*
X133628935Y-105091408D01*
X133627590Y-105091500D01*
X131484500Y-105091500D01*
X131416379Y-105071498D01*
X131369886Y-105017842D01*
X131358500Y-104965500D01*
X131358500Y-75862703D01*
X132260743Y-75862703D01*
X132261302Y-75866947D01*
X132261302Y-75866951D01*
X132270104Y-75933810D01*
X132298268Y-76147734D01*
X132374129Y-76425036D01*
X132375813Y-76428984D01*
X132467806Y-76644656D01*
X132486923Y-76689476D01*
X132634561Y-76936161D01*
X132814313Y-77160528D01*
X132831397Y-77176740D01*
X132987496Y-77324872D01*
X133022851Y-77358423D01*
X133256317Y-77526186D01*
X133260112Y-77528195D01*
X133260113Y-77528196D01*
X133281869Y-77539715D01*
X133510392Y-77660712D01*
X133780373Y-77759511D01*
X134061264Y-77820755D01*
X134089841Y-77823004D01*
X134284282Y-77838307D01*
X134284291Y-77838307D01*
X134286739Y-77838500D01*
X134442271Y-77838500D01*
X134444407Y-77838354D01*
X134444418Y-77838354D01*
X134652548Y-77824165D01*
X134652554Y-77824164D01*
X134656825Y-77823873D01*
X134661020Y-77823004D01*
X134661022Y-77823004D01*
X134797584Y-77794723D01*
X134938342Y-77765574D01*
X135209343Y-77669607D01*
X135464812Y-77537750D01*
X135468313Y-77535289D01*
X135468317Y-77535287D01*
X135661035Y-77399842D01*
X135700023Y-77372441D01*
X135910622Y-77176740D01*
X136092713Y-76954268D01*
X136242927Y-76709142D01*
X136358483Y-76445898D01*
X136437244Y-76169406D01*
X136477751Y-75884784D01*
X136477845Y-75866951D01*
X136479235Y-75601583D01*
X136479235Y-75601576D01*
X136479257Y-75597297D01*
X136472526Y-75546166D01*
X136457936Y-75435345D01*
X136441732Y-75312266D01*
X136431213Y-75273813D01*
X136370881Y-75053279D01*
X136365871Y-75034964D01*
X136299225Y-74878715D01*
X136254763Y-74774476D01*
X136254761Y-74774472D01*
X136253077Y-74770524D01*
X136164215Y-74622047D01*
X136107643Y-74527521D01*
X136107640Y-74527517D01*
X136105439Y-74523839D01*
X135925687Y-74299472D01*
X135717149Y-74101577D01*
X135483683Y-73933814D01*
X135461843Y-73922250D01*
X135438654Y-73909972D01*
X135229608Y-73799288D01*
X134959627Y-73700489D01*
X134678736Y-73639245D01*
X134647685Y-73636801D01*
X134455718Y-73621693D01*
X134455709Y-73621693D01*
X134453261Y-73621500D01*
X134297729Y-73621500D01*
X134295593Y-73621646D01*
X134295582Y-73621646D01*
X134087452Y-73635835D01*
X134087446Y-73635836D01*
X134083175Y-73636127D01*
X134078980Y-73636996D01*
X134078978Y-73636996D01*
X133942417Y-73665276D01*
X133801658Y-73694426D01*
X133530657Y-73790393D01*
X133275188Y-73922250D01*
X133271687Y-73924711D01*
X133271683Y-73924713D01*
X133261594Y-73931804D01*
X133039977Y-74087559D01*
X132829378Y-74283260D01*
X132647287Y-74505732D01*
X132497073Y-74750858D01*
X132495347Y-74754791D01*
X132495346Y-74754792D01*
X132466832Y-74819749D01*
X132381517Y-75014102D01*
X132302756Y-75290594D01*
X132262249Y-75575216D01*
X132262227Y-75579505D01*
X132262226Y-75579512D01*
X132260780Y-75855636D01*
X132260743Y-75862703D01*
X131358500Y-75862703D01*
X131358500Y-71701078D01*
X131378502Y-71632957D01*
X131432158Y-71586464D01*
X131502432Y-71576360D01*
X131567012Y-71605854D01*
X131599111Y-71648729D01*
X131599280Y-71649099D01*
X131600856Y-71653324D01*
X131603018Y-71657282D01*
X131603018Y-71657283D01*
X131716727Y-71865498D01*
X131724868Y-71880406D01*
X131727567Y-71884010D01*
X131727567Y-71884011D01*
X131876931Y-72083507D01*
X131879939Y-72087525D01*
X132062910Y-72270465D01*
X132066511Y-72273160D01*
X132066512Y-72273161D01*
X132111546Y-72306866D01*
X132270056Y-72425500D01*
X132273999Y-72427652D01*
X132274003Y-72427655D01*
X132493210Y-72547317D01*
X132497160Y-72549473D01*
X132501378Y-72551045D01*
X132501381Y-72551047D01*
X132735377Y-72638288D01*
X132735381Y-72638289D01*
X132739597Y-72639861D01*
X132743994Y-72640817D01*
X132743998Y-72640818D01*
X132988030Y-72693866D01*
X132988036Y-72693867D01*
X132992430Y-72694822D01*
X133250512Y-72713238D01*
X133255003Y-72712916D01*
X133255006Y-72712916D01*
X133504096Y-72695055D01*
X133508587Y-72694733D01*
X133761402Y-72639685D01*
X133998896Y-72551047D01*
X133999593Y-72550787D01*
X133999596Y-72550786D01*
X134003807Y-72549214D01*
X134007750Y-72547060D01*
X134007754Y-72547058D01*
X134225538Y-72428075D01*
X134230868Y-72425163D01*
X134234470Y-72422465D01*
X134234475Y-72422462D01*
X134423892Y-72280595D01*
X134437961Y-72270057D01*
X134441139Y-72266877D01*
X134441144Y-72266873D01*
X134617688Y-72090237D01*
X134617690Y-72090234D01*
X134620869Y-72087054D01*
X134771665Y-71885500D01*
X134773173Y-71883485D01*
X134773175Y-71883481D01*
X134775869Y-71879881D01*
X134873436Y-71701078D01*
X134897648Y-71656707D01*
X134897650Y-71656703D01*
X134899803Y-71652757D01*
X134982141Y-71431794D01*
X134988576Y-71414526D01*
X134988577Y-71414523D01*
X134990149Y-71410304D01*
X135045066Y-71157462D01*
X135061122Y-70931912D01*
X135062543Y-70919996D01*
X135062799Y-70918476D01*
X135063898Y-70911928D01*
X135063961Y-70906665D01*
X135063989Y-70904247D01*
X135064047Y-70899376D01*
X135063260Y-70893895D01*
X135063295Y-70893650D01*
X135063037Y-70889701D01*
X135063872Y-70889646D01*
X135073384Y-70823625D01*
X135119893Y-70769982D01*
X135187983Y-70750000D01*
X139912114Y-70750000D01*
X139980235Y-70770002D01*
G37*
%TD.AperFunction*%
%TA.AperFunction,Conductor*%
G36*
X166483621Y-91338502D02*
G01*
X166530114Y-91392158D01*
X166541500Y-91444500D01*
X166541500Y-104965500D01*
X166521498Y-105033621D01*
X166467842Y-105080114D01*
X166415500Y-105091500D01*
X164208623Y-105091500D01*
X164207853Y-105091498D01*
X164207037Y-105091493D01*
X164130279Y-105091024D01*
X164107918Y-105097415D01*
X164101847Y-105099150D01*
X164085085Y-105102728D01*
X164055813Y-105106920D01*
X164047645Y-105110634D01*
X164047644Y-105110634D01*
X164032438Y-105117548D01*
X164014914Y-105123996D01*
X163990229Y-105131051D01*
X163982635Y-105135843D01*
X163982632Y-105135844D01*
X163965220Y-105146830D01*
X163950137Y-105154969D01*
X163923218Y-105167208D01*
X163916416Y-105173069D01*
X163903765Y-105183970D01*
X163888761Y-105195073D01*
X163867042Y-105208776D01*
X163861103Y-105215501D01*
X163861099Y-105215504D01*
X163847468Y-105230938D01*
X163835276Y-105242982D01*
X163819673Y-105256427D01*
X163819671Y-105256430D01*
X163812873Y-105262287D01*
X163807993Y-105269816D01*
X163807992Y-105269817D01*
X163798906Y-105283835D01*
X163787615Y-105298709D01*
X163776569Y-105311217D01*
X163770622Y-105317951D01*
X163764312Y-105331391D01*
X163758058Y-105344711D01*
X163749737Y-105359691D01*
X163738529Y-105376983D01*
X163738527Y-105376988D01*
X163733648Y-105384515D01*
X163731078Y-105393108D01*
X163731076Y-105393113D01*
X163726289Y-105409120D01*
X163719628Y-105426564D01*
X163712533Y-105441676D01*
X163708719Y-105449800D01*
X163707338Y-105458667D01*
X163707338Y-105458668D01*
X163704170Y-105479015D01*
X163700387Y-105495732D01*
X163694485Y-105515466D01*
X163694484Y-105515472D01*
X163691914Y-105524066D01*
X163691859Y-105533037D01*
X163691859Y-105533038D01*
X163691704Y-105558497D01*
X163691671Y-105559289D01*
X163691500Y-105560386D01*
X163691500Y-105591377D01*
X163691498Y-105592147D01*
X163691024Y-105669721D01*
X163691408Y-105671065D01*
X163691500Y-105672410D01*
X163691500Y-113985500D01*
X163671498Y-114053621D01*
X163617842Y-114100114D01*
X163565500Y-114111500D01*
X140691821Y-114111500D01*
X140623700Y-114091498D01*
X140577207Y-114037842D01*
X140567103Y-113967568D01*
X140596597Y-113902988D01*
X140647592Y-113867518D01*
X140764295Y-113823768D01*
X140764296Y-113823767D01*
X140772705Y-113820615D01*
X140889261Y-113733261D01*
X140976615Y-113616705D01*
X141027745Y-113480316D01*
X141034500Y-113418134D01*
X141034500Y-111621866D01*
X141027745Y-111559684D01*
X140976615Y-111423295D01*
X140889261Y-111306739D01*
X140834935Y-111266024D01*
X140792420Y-111209165D01*
X140784500Y-111165198D01*
X140784500Y-107274802D01*
X140804502Y-107206681D01*
X140834935Y-107173976D01*
X140882081Y-107138642D01*
X140889261Y-107133261D01*
X140976615Y-107016705D01*
X141027745Y-106880316D01*
X141034500Y-106818134D01*
X141034500Y-105021866D01*
X141027745Y-104959684D01*
X140976615Y-104823295D01*
X140889261Y-104706739D01*
X140834935Y-104666024D01*
X140792420Y-104609165D01*
X140784500Y-104565198D01*
X140784500Y-103514802D01*
X140804502Y-103446681D01*
X140834935Y-103413976D01*
X140882081Y-103378642D01*
X140889261Y-103373261D01*
X140976615Y-103256705D01*
X141027745Y-103120316D01*
X141034500Y-103058134D01*
X141034500Y-102958481D01*
X141054502Y-102890360D01*
X141104085Y-102845816D01*
X141105050Y-102845333D01*
X141111937Y-102842833D01*
X141172976Y-102802814D01*
X141176680Y-102800477D01*
X141239107Y-102762595D01*
X141247484Y-102755197D01*
X141247508Y-102755224D01*
X141250500Y-102752571D01*
X141253733Y-102749868D01*
X141259852Y-102745856D01*
X141313128Y-102689617D01*
X141315506Y-102687175D01*
X141799978Y-102202703D01*
X161420743Y-102202703D01*
X161458268Y-102487734D01*
X161534129Y-102765036D01*
X161535811Y-102768980D01*
X161535812Y-102768982D01*
X161633197Y-102997295D01*
X161646923Y-103029476D01*
X161666108Y-103061531D01*
X161787218Y-103263891D01*
X161794561Y-103276161D01*
X161974313Y-103500528D01*
X162182851Y-103698423D01*
X162416317Y-103866186D01*
X162420112Y-103868195D01*
X162420113Y-103868196D01*
X162441869Y-103879715D01*
X162670392Y-104000712D01*
X162940373Y-104099511D01*
X163221264Y-104160755D01*
X163249841Y-104163004D01*
X163444282Y-104178307D01*
X163444291Y-104178307D01*
X163446739Y-104178500D01*
X163602271Y-104178500D01*
X163604407Y-104178354D01*
X163604418Y-104178354D01*
X163812548Y-104164165D01*
X163812554Y-104164164D01*
X163816825Y-104163873D01*
X163821020Y-104163004D01*
X163821022Y-104163004D01*
X163957584Y-104134723D01*
X164098342Y-104105574D01*
X164369343Y-104009607D01*
X164624812Y-103877750D01*
X164628313Y-103875289D01*
X164628317Y-103875287D01*
X164829924Y-103733595D01*
X164860023Y-103712441D01*
X165070622Y-103516740D01*
X165252713Y-103294268D01*
X165402927Y-103049142D01*
X165518483Y-102785898D01*
X165527229Y-102755197D01*
X165596068Y-102513534D01*
X165597244Y-102509406D01*
X165637751Y-102224784D01*
X165637845Y-102206951D01*
X165639235Y-101941583D01*
X165639235Y-101941576D01*
X165639257Y-101937297D01*
X165601732Y-101652266D01*
X165525871Y-101374964D01*
X165413077Y-101110524D01*
X165291622Y-100907588D01*
X165267643Y-100867521D01*
X165267640Y-100867517D01*
X165265439Y-100863839D01*
X165085687Y-100639472D01*
X164877149Y-100441577D01*
X164643683Y-100273814D01*
X164628595Y-100265825D01*
X164569808Y-100234699D01*
X164389608Y-100139288D01*
X164119627Y-100040489D01*
X163838736Y-99979245D01*
X163807685Y-99976801D01*
X163615718Y-99961693D01*
X163615709Y-99961693D01*
X163613261Y-99961500D01*
X163457729Y-99961500D01*
X163455593Y-99961646D01*
X163455582Y-99961646D01*
X163247452Y-99975835D01*
X163247446Y-99975836D01*
X163243175Y-99976127D01*
X163238980Y-99976996D01*
X163238978Y-99976996D01*
X163102417Y-100005276D01*
X162961658Y-100034426D01*
X162690657Y-100130393D01*
X162435188Y-100262250D01*
X162431687Y-100264711D01*
X162431683Y-100264713D01*
X162430101Y-100265825D01*
X162199977Y-100427559D01*
X162184892Y-100441577D01*
X162071673Y-100546787D01*
X161989378Y-100623260D01*
X161807287Y-100845732D01*
X161657073Y-101090858D01*
X161541517Y-101354102D01*
X161462756Y-101630594D01*
X161422249Y-101915216D01*
X161422227Y-101919505D01*
X161422226Y-101919512D01*
X161421287Y-102098767D01*
X161420743Y-102202703D01*
X141799978Y-102202703D01*
X144450460Y-99552221D01*
X144512772Y-99518195D01*
X144583587Y-99523260D01*
X144614768Y-99540227D01*
X144622820Y-99546218D01*
X144622823Y-99546220D01*
X144627100Y-99549402D01*
X144840172Y-99657733D01*
X144954312Y-99693174D01*
X145063349Y-99727032D01*
X145063355Y-99727033D01*
X145068452Y-99728616D01*
X145195883Y-99745506D01*
X145300127Y-99759323D01*
X145300131Y-99759323D01*
X145305411Y-99760023D01*
X145310740Y-99759823D01*
X145310741Y-99759823D01*
X145408509Y-99756152D01*
X145544274Y-99751055D01*
X145646189Y-99729671D01*
X145772984Y-99703067D01*
X145772987Y-99703066D01*
X145778211Y-99701970D01*
X146000533Y-99614171D01*
X146204883Y-99490168D01*
X146385419Y-99333507D01*
X146424715Y-99285582D01*
X146526284Y-99161710D01*
X146584944Y-99121715D01*
X146655914Y-99119784D01*
X146716662Y-99156528D01*
X146728236Y-99171232D01*
X146770334Y-99233762D01*
X146935326Y-99406718D01*
X147127100Y-99549402D01*
X147131851Y-99551818D01*
X147131855Y-99551820D01*
X147309731Y-99642256D01*
X147340172Y-99657733D01*
X147454312Y-99693174D01*
X147563349Y-99727032D01*
X147563355Y-99727033D01*
X147568452Y-99728616D01*
X147695883Y-99745506D01*
X147800127Y-99759323D01*
X147800131Y-99759323D01*
X147805411Y-99760023D01*
X147810740Y-99759823D01*
X147810741Y-99759823D01*
X147908509Y-99756152D01*
X148044274Y-99751055D01*
X148146189Y-99729671D01*
X148272984Y-99703067D01*
X148272987Y-99703066D01*
X148278211Y-99701970D01*
X148500533Y-99614171D01*
X148704883Y-99490168D01*
X148885419Y-99333507D01*
X148924715Y-99285582D01*
X149026284Y-99161710D01*
X149084944Y-99121715D01*
X149155914Y-99119784D01*
X149216662Y-99156528D01*
X149228236Y-99171232D01*
X149270334Y-99233762D01*
X149435326Y-99406718D01*
X149627100Y-99549402D01*
X149631851Y-99551818D01*
X149631855Y-99551820D01*
X149809731Y-99642256D01*
X149840172Y-99657733D01*
X149954312Y-99693174D01*
X150063349Y-99727032D01*
X150063355Y-99727033D01*
X150068452Y-99728616D01*
X150195883Y-99745506D01*
X150300127Y-99759323D01*
X150300131Y-99759323D01*
X150305411Y-99760023D01*
X150310740Y-99759823D01*
X150310741Y-99759823D01*
X150408509Y-99756152D01*
X150544274Y-99751055D01*
X150646189Y-99729671D01*
X150772984Y-99703067D01*
X150772987Y-99703066D01*
X150778211Y-99701970D01*
X151000533Y-99614171D01*
X151204883Y-99490168D01*
X151385419Y-99333507D01*
X151424715Y-99285582D01*
X151526284Y-99161710D01*
X151584944Y-99121715D01*
X151655914Y-99119784D01*
X151716662Y-99156528D01*
X151728236Y-99171232D01*
X151770334Y-99233762D01*
X151935326Y-99406718D01*
X152127100Y-99549402D01*
X152131851Y-99551818D01*
X152131855Y-99551820D01*
X152309731Y-99642256D01*
X152340172Y-99657733D01*
X152454312Y-99693174D01*
X152563349Y-99727032D01*
X152563355Y-99727033D01*
X152568452Y-99728616D01*
X152695883Y-99745506D01*
X152800127Y-99759323D01*
X152800131Y-99759323D01*
X152805411Y-99760023D01*
X152810740Y-99759823D01*
X152810741Y-99759823D01*
X152908509Y-99756152D01*
X153044274Y-99751055D01*
X153146189Y-99729671D01*
X153272984Y-99703067D01*
X153272987Y-99703066D01*
X153278211Y-99701970D01*
X153500533Y-99614171D01*
X153704883Y-99490168D01*
X153885419Y-99333507D01*
X153924715Y-99285582D01*
X154026284Y-99161710D01*
X154084944Y-99121715D01*
X154155914Y-99119784D01*
X154216662Y-99156528D01*
X154228236Y-99171232D01*
X154270334Y-99233762D01*
X154435326Y-99406718D01*
X154627100Y-99549402D01*
X154631851Y-99551818D01*
X154631855Y-99551820D01*
X154809731Y-99642256D01*
X154840172Y-99657733D01*
X154954312Y-99693174D01*
X155063349Y-99727032D01*
X155063355Y-99727033D01*
X155068452Y-99728616D01*
X155195883Y-99745506D01*
X155300127Y-99759323D01*
X155300131Y-99759323D01*
X155305411Y-99760023D01*
X155310740Y-99759823D01*
X155310741Y-99759823D01*
X155408509Y-99756152D01*
X155544274Y-99751055D01*
X155646190Y-99729671D01*
X155716965Y-99735258D01*
X155761158Y-99763891D01*
X156201037Y-100203770D01*
X156231500Y-100253094D01*
X156279094Y-100396167D01*
X156282741Y-100402189D01*
X156282742Y-100402191D01*
X156299874Y-100430478D01*
X156367246Y-100541723D01*
X156485455Y-100664132D01*
X156627846Y-100757310D01*
X156634450Y-100759766D01*
X156634452Y-100759767D01*
X156670844Y-100773301D01*
X156787341Y-100816626D01*
X156956015Y-100839132D01*
X156963026Y-100838494D01*
X156963030Y-100838494D01*
X157118462Y-100824348D01*
X157125483Y-100823709D01*
X157132185Y-100821531D01*
X157132187Y-100821531D01*
X157280623Y-100773301D01*
X157280626Y-100773300D01*
X157287322Y-100771124D01*
X157433490Y-100683990D01*
X157438584Y-100679139D01*
X157438588Y-100679136D01*
X157505833Y-100615099D01*
X157556721Y-100566639D01*
X157650891Y-100424902D01*
X157711319Y-100265825D01*
X157735001Y-100097313D01*
X157735299Y-100076000D01*
X157716331Y-99906892D01*
X157660368Y-99746189D01*
X157656635Y-99740214D01*
X157656632Y-99740209D01*
X157641056Y-99715282D01*
X158126000Y-99715282D01*
X158129973Y-99728813D01*
X158140580Y-99730338D01*
X158272840Y-99702587D01*
X158283037Y-99699527D01*
X158495340Y-99615685D01*
X158504876Y-99610951D01*
X158700025Y-99492532D01*
X158708618Y-99486266D01*
X158881027Y-99336658D01*
X158888447Y-99329028D01*
X159033180Y-99152512D01*
X159039206Y-99143745D01*
X159152129Y-98945367D01*
X159156595Y-98935703D01*
X159234481Y-98721132D01*
X159237251Y-98710865D01*
X159278081Y-98485068D01*
X159279016Y-98476838D01*
X159279930Y-98457450D01*
X159280000Y-98454474D01*
X159280000Y-97520115D01*
X159275525Y-97504876D01*
X159274135Y-97503671D01*
X159266452Y-97502000D01*
X158144115Y-97502000D01*
X158128876Y-97506475D01*
X158127671Y-97507865D01*
X158126000Y-97515548D01*
X158126000Y-99715282D01*
X157641056Y-99715282D01*
X157637147Y-99709027D01*
X157618000Y-99642256D01*
X157618000Y-96975885D01*
X158126000Y-96975885D01*
X158130475Y-96991124D01*
X158131865Y-96992329D01*
X158139548Y-96994000D01*
X159261885Y-96994000D01*
X159277124Y-96989525D01*
X159278329Y-96988135D01*
X159280000Y-96980452D01*
X159280000Y-96090660D01*
X159279775Y-96085351D01*
X159265340Y-95915229D01*
X159263548Y-95904741D01*
X159206199Y-95683789D01*
X159202667Y-95673761D01*
X159108915Y-95465637D01*
X159103735Y-95456331D01*
X158976253Y-95266976D01*
X158969594Y-95258693D01*
X158812029Y-95093522D01*
X158804058Y-95086470D01*
X158620918Y-94950210D01*
X158611881Y-94944606D01*
X158408394Y-94841149D01*
X158398541Y-94837148D01*
X158180539Y-94769456D01*
X158170152Y-94767172D01*
X158143957Y-94763700D01*
X158129793Y-94765896D01*
X158126000Y-94779081D01*
X158126000Y-96975885D01*
X157618000Y-96975885D01*
X157618000Y-95109948D01*
X157639051Y-95040222D01*
X157650891Y-95022402D01*
X157711319Y-94863325D01*
X157735001Y-94694813D01*
X157735299Y-94673500D01*
X157716331Y-94504392D01*
X157704948Y-94471703D01*
X157662686Y-94350346D01*
X157660368Y-94343689D01*
X157570192Y-94199379D01*
X157450286Y-94078632D01*
X157441809Y-94073252D01*
X157383172Y-94036040D01*
X157306608Y-93987451D01*
X157146300Y-93930368D01*
X156977329Y-93910220D01*
X156970326Y-93910956D01*
X156970325Y-93910956D01*
X156815101Y-93927270D01*
X156815097Y-93927271D01*
X156808093Y-93928007D01*
X156801422Y-93930278D01*
X156653673Y-93980575D01*
X156653670Y-93980576D01*
X156647003Y-93982846D01*
X156587721Y-94019317D01*
X156521698Y-94038000D01*
X155071532Y-94038000D01*
X155060293Y-94037470D01*
X155052781Y-94035791D01*
X155044856Y-94036040D01*
X155044855Y-94036040D01*
X154984470Y-94037938D01*
X154980512Y-94038000D01*
X154952517Y-94038000D01*
X154948583Y-94038497D01*
X154948581Y-94038497D01*
X154948494Y-94038508D01*
X154936660Y-94039440D01*
X154892295Y-94040835D01*
X154884682Y-94043047D01*
X154884681Y-94043047D01*
X154872752Y-94046513D01*
X154853388Y-94050523D01*
X154841060Y-94052080D01*
X154841058Y-94052080D01*
X154833201Y-94053073D01*
X154825837Y-94055989D01*
X154825832Y-94055990D01*
X154791944Y-94069407D01*
X154780715Y-94073252D01*
X154764035Y-94078098D01*
X154738107Y-94085631D01*
X154731280Y-94089669D01*
X154731277Y-94089670D01*
X154720594Y-94095988D01*
X154702836Y-94104688D01*
X154691285Y-94109261D01*
X154691279Y-94109265D01*
X154683912Y-94112181D01*
X154677501Y-94116839D01*
X154677499Y-94116840D01*
X154648012Y-94138264D01*
X154638090Y-94144781D01*
X154606732Y-94163326D01*
X154606728Y-94163329D01*
X154599902Y-94167366D01*
X154585518Y-94181750D01*
X154570484Y-94194591D01*
X154554013Y-94206558D01*
X154548960Y-94212666D01*
X154525723Y-94240755D01*
X154517733Y-94249535D01*
X153810712Y-94956556D01*
X153748400Y-94990582D01*
X153677585Y-94985517D01*
X153646408Y-94968553D01*
X153616900Y-94946598D01*
X153612149Y-94944182D01*
X153612145Y-94944180D01*
X153440979Y-94857155D01*
X153389321Y-94808452D01*
X153372195Y-94739552D01*
X153395037Y-94672330D01*
X153408989Y-94655743D01*
X154377129Y-93687604D01*
X155444328Y-92620405D01*
X155506640Y-92586379D01*
X155533423Y-92583500D01*
X156012279Y-92583500D01*
X156081272Y-92604068D01*
X156106238Y-92620405D01*
X156119846Y-92629310D01*
X156126450Y-92631766D01*
X156126452Y-92631767D01*
X156162844Y-92645301D01*
X156279341Y-92688626D01*
X156448015Y-92711132D01*
X156455026Y-92710494D01*
X156455030Y-92710494D01*
X156610462Y-92696348D01*
X156617483Y-92695709D01*
X156624185Y-92693531D01*
X156624187Y-92693531D01*
X156772623Y-92645301D01*
X156772626Y-92645300D01*
X156779322Y-92643124D01*
X156925490Y-92555990D01*
X156930584Y-92551139D01*
X156930588Y-92551136D01*
X157021336Y-92464717D01*
X157048721Y-92438639D01*
X157142891Y-92296902D01*
X157203319Y-92137825D01*
X157227001Y-91969313D01*
X157227299Y-91948000D01*
X157208331Y-91778892D01*
X157196466Y-91744819D01*
X157174415Y-91681498D01*
X157152368Y-91618189D01*
X157085557Y-91511270D01*
X157066421Y-91442901D01*
X157087286Y-91375040D01*
X157141527Y-91329231D01*
X157192411Y-91318500D01*
X166415500Y-91318500D01*
X166483621Y-91338502D01*
G37*
%TD.AperFunction*%
%TA.AperFunction,Conductor*%
G36*
X145419532Y-80223734D02*
G01*
X145476368Y-80266281D01*
X145501179Y-80332801D01*
X145501500Y-80341790D01*
X145501500Y-90801377D01*
X145501498Y-90802147D01*
X145501024Y-90879721D01*
X145503491Y-90888352D01*
X145509150Y-90908153D01*
X145512728Y-90924915D01*
X145516920Y-90954187D01*
X145520634Y-90962355D01*
X145520634Y-90962356D01*
X145527548Y-90977562D01*
X145533996Y-90995086D01*
X145541051Y-91019771D01*
X145545843Y-91027365D01*
X145545844Y-91027368D01*
X145556830Y-91044780D01*
X145564969Y-91059863D01*
X145577208Y-91086782D01*
X145583069Y-91093584D01*
X145593970Y-91106235D01*
X145605073Y-91121239D01*
X145618776Y-91142958D01*
X145625501Y-91148897D01*
X145625504Y-91148901D01*
X145640938Y-91162532D01*
X145652982Y-91174724D01*
X145666427Y-91190327D01*
X145666430Y-91190329D01*
X145672287Y-91197127D01*
X145679816Y-91202007D01*
X145679817Y-91202008D01*
X145693835Y-91211094D01*
X145708709Y-91222385D01*
X145721217Y-91233431D01*
X145727951Y-91239378D01*
X145754711Y-91251942D01*
X145769691Y-91260263D01*
X145786983Y-91271471D01*
X145786988Y-91271473D01*
X145794515Y-91276352D01*
X145803108Y-91278922D01*
X145803113Y-91278924D01*
X145819120Y-91283711D01*
X145836564Y-91290372D01*
X145851676Y-91297467D01*
X145851678Y-91297468D01*
X145859800Y-91301281D01*
X145868667Y-91302662D01*
X145868668Y-91302662D01*
X145878310Y-91304163D01*
X145889017Y-91305830D01*
X145905732Y-91309613D01*
X145925466Y-91315515D01*
X145925472Y-91315516D01*
X145934066Y-91318086D01*
X145943037Y-91318141D01*
X145943038Y-91318141D01*
X145953097Y-91318202D01*
X145968506Y-91318296D01*
X145969289Y-91318329D01*
X145970386Y-91318500D01*
X146001377Y-91318500D01*
X146002147Y-91318502D01*
X146075785Y-91318952D01*
X146075786Y-91318952D01*
X146079721Y-91318976D01*
X146081065Y-91318592D01*
X146082410Y-91318500D01*
X147508577Y-91318500D01*
X147576698Y-91338502D01*
X147623191Y-91392158D01*
X147633295Y-91462432D01*
X147603801Y-91527012D01*
X147597672Y-91533595D01*
X147478517Y-91652750D01*
X147470191Y-91660326D01*
X147463697Y-91664447D01*
X147458274Y-91670222D01*
X147416915Y-91714265D01*
X147414160Y-91717107D01*
X147394361Y-91736906D01*
X147391937Y-91740031D01*
X147391929Y-91740040D01*
X147391863Y-91740126D01*
X147384155Y-91749151D01*
X147353783Y-91781494D01*
X147349965Y-91788438D01*
X147349964Y-91788440D01*
X147343978Y-91799329D01*
X147333127Y-91815847D01*
X147320650Y-91831933D01*
X147303024Y-91872666D01*
X147297807Y-91883314D01*
X147276431Y-91922197D01*
X147274460Y-91929872D01*
X147274458Y-91929878D01*
X147271369Y-91941911D01*
X147264966Y-91960613D01*
X147256883Y-91979292D01*
X147255644Y-91987117D01*
X147249940Y-92023127D01*
X147247535Y-92034740D01*
X147236500Y-92077718D01*
X147236500Y-92098065D01*
X147234949Y-92117776D01*
X147231765Y-92137879D01*
X147232511Y-92145771D01*
X147235941Y-92182056D01*
X147236500Y-92193914D01*
X147236500Y-94815132D01*
X147216498Y-94883253D01*
X147175867Y-94922850D01*
X147039117Y-95005832D01*
X147035087Y-95009329D01*
X146971687Y-95064345D01*
X146858581Y-95162493D01*
X146855195Y-95166623D01*
X146855194Y-95166624D01*
X146717716Y-95334290D01*
X146659056Y-95374285D01*
X146588086Y-95376216D01*
X146527338Y-95339472D01*
X146515762Y-95324766D01*
X146476646Y-95266664D01*
X146476644Y-95266662D01*
X146473666Y-95262238D01*
X146308674Y-95089282D01*
X146116900Y-94946598D01*
X146112149Y-94944182D01*
X146112145Y-94944180D01*
X145908586Y-94840686D01*
X145908585Y-94840686D01*
X145903828Y-94838267D01*
X145761362Y-94794030D01*
X145680651Y-94768968D01*
X145680645Y-94768967D01*
X145675548Y-94767384D01*
X145548117Y-94750494D01*
X145443873Y-94736677D01*
X145443869Y-94736677D01*
X145438589Y-94735977D01*
X145433260Y-94736177D01*
X145433259Y-94736177D01*
X145343369Y-94739552D01*
X145199726Y-94744945D01*
X145112816Y-94763181D01*
X144971016Y-94792933D01*
X144971013Y-94792934D01*
X144965789Y-94794030D01*
X144743467Y-94881829D01*
X144539117Y-95005832D01*
X144535087Y-95009329D01*
X144471687Y-95064345D01*
X144358581Y-95162493D01*
X144355198Y-95166619D01*
X144355194Y-95166623D01*
X144279702Y-95258693D01*
X144207022Y-95347333D01*
X144204383Y-95351969D01*
X144204381Y-95351972D01*
X144169001Y-95414126D01*
X144088773Y-95555066D01*
X144007216Y-95779753D01*
X144006267Y-95785002D01*
X144006266Y-95785005D01*
X143965420Y-96010885D01*
X143965419Y-96010893D01*
X143964682Y-96014969D01*
X143963500Y-96040032D01*
X143963500Y-96196629D01*
X143943498Y-96264750D01*
X143889842Y-96311243D01*
X143819568Y-96321347D01*
X143754988Y-96291853D01*
X143748405Y-96285724D01*
X142533770Y-95071089D01*
X142521384Y-95056677D01*
X142512851Y-95045082D01*
X142512846Y-95045077D01*
X142508508Y-95039182D01*
X142502930Y-95034443D01*
X142502927Y-95034440D01*
X142468232Y-95004965D01*
X142460716Y-94998035D01*
X142455021Y-94992340D01*
X142446397Y-94985517D01*
X142432749Y-94974719D01*
X142429345Y-94971928D01*
X142379297Y-94929409D01*
X142379295Y-94929408D01*
X142373715Y-94924667D01*
X142367199Y-94921339D01*
X142362150Y-94917972D01*
X142357021Y-94914805D01*
X142351284Y-94910266D01*
X142285125Y-94879345D01*
X142281225Y-94877439D01*
X142280953Y-94877300D01*
X142216192Y-94844231D01*
X142209084Y-94842492D01*
X142203441Y-94840393D01*
X142197678Y-94838476D01*
X142191050Y-94835378D01*
X142119583Y-94820513D01*
X142115299Y-94819543D01*
X142044390Y-94802192D01*
X142038788Y-94801844D01*
X142038785Y-94801844D01*
X142033236Y-94801500D01*
X142033238Y-94801464D01*
X142029245Y-94801225D01*
X142025053Y-94800851D01*
X142017885Y-94799360D01*
X141951675Y-94801151D01*
X141940479Y-94801454D01*
X141937072Y-94801500D01*
X141160500Y-94801500D01*
X141092379Y-94781498D01*
X141045886Y-94727842D01*
X141034500Y-94675500D01*
X141034500Y-94661866D01*
X141027745Y-94599684D01*
X140976615Y-94463295D01*
X140889261Y-94346739D01*
X140834935Y-94306024D01*
X140792420Y-94249165D01*
X140784500Y-94205198D01*
X140784500Y-92924802D01*
X140804502Y-92856681D01*
X140834935Y-92823976D01*
X140882081Y-92788642D01*
X140889261Y-92783261D01*
X140976615Y-92666705D01*
X141027745Y-92530316D01*
X141034500Y-92468134D01*
X141034500Y-90671866D01*
X141027745Y-90609684D01*
X140976615Y-90473295D01*
X140889261Y-90356739D01*
X140834935Y-90316024D01*
X140792420Y-90259165D01*
X140784500Y-90215198D01*
X140784500Y-86324802D01*
X140804502Y-86256681D01*
X140834935Y-86223976D01*
X140882081Y-86188642D01*
X140889261Y-86183261D01*
X140976615Y-86066705D01*
X141027745Y-85930316D01*
X141034500Y-85868134D01*
X141034500Y-84556790D01*
X141054502Y-84488669D01*
X141071405Y-84467695D01*
X145286405Y-80252695D01*
X145348717Y-80218669D01*
X145419532Y-80223734D01*
G37*
%TD.AperFunction*%
%TD*%
M02*
