<?xml version="1.0" encoding="utf-8"?>
<!-- Generator: Adobe Illustrator 24.3.0, SVG Export Plug-In . SVG Version: 6.00 Build 0)  -->
<svg version="1.1" xmlns="http://www.w3.org/2000/svg" xmlns:xlink="http://www.w3.org/1999/xlink" x="0px" y="0px"
	 viewBox="0 0 223 30" style="enable-background:new 0 0 223 30;" xml:space="preserve">
<style type="text/css">
	.st0{fill-rule:evenodd;clip-rule:evenodd;fill:#FFC439;}
	.st1{fill:#253B80;}
	.st2{fill:#179BD7;}
	.st3{fill:#222D65;}
</style>
<g id="Layer_1">
	<desc>Created with Sketch.</desc>
	<g id="Artboard">
		<path id="Rectangle" class="st0" d="M8,0h207c4.4,0,8,3.6,8,8v14c0,4.4-3.6,8-8,8H8c-4.4,0-8-3.6-8-8V8C0,3.6,3.6,0,8,0z"/>
	</g>
</g>
<g id="Layer_2">
	<g>
		<path class="st1" d="M99.9,8.8h-5.1c-0.3,0-0.6,0.3-0.7,0.6L92,22.5c0,0.3,0.2,0.5,0.4,0.5h2.4c0.3,0,0.6-0.3,0.7-0.6l0.6-3.5
			c0.1-0.3,0.4-0.6,0.7-0.6h1.6c3.4,0,5.3-1.6,5.8-4.8c0.2-1.4,0-2.5-0.7-3.3C102.9,9.2,101.6,8.8,99.9,8.8z M100.5,13.6
			c-0.3,1.8-1.7,1.8-3,1.8h-0.8l0.5-3.4c0-0.2,0.2-0.4,0.4-0.4H98c0.9,0,1.8,0,2.2,0.5C100.5,12.4,100.6,12.9,100.5,13.6z"/>
		<path class="st1" d="M115.1,13.5h-2.4c-0.2,0-0.4,0.2-0.4,0.4l-0.1,0.7l-0.2-0.2c-0.5-0.8-1.7-1-2.9-1c-2.7,0-5,2-5.5,4.9
			c-0.2,1.4,0.1,2.8,0.9,3.8c0.7,0.9,1.8,1.2,3.1,1.2c2.2,0,3.4-1.4,3.4-1.4l-0.1,0.7c0,0.3,0.2,0.5,0.4,0.5h2.2
			c0.3,0,0.6-0.3,0.7-0.6l1.3-8.4C115.6,13.7,115.4,13.5,115.1,13.5z M111.7,18.3c-0.2,1.4-1.3,2.3-2.8,2.3c-0.7,0-1.3-0.2-1.6-0.7
			c-0.4-0.4-0.5-1-0.4-1.7c0.2-1.4,1.3-2.4,2.7-2.4c0.7,0,1.3,0.2,1.6,0.7C111.7,17,111.8,17.6,111.7,18.3z"/>
		<path class="st1" d="M128.1,13.5h-2.5c-0.2,0-0.5,0.1-0.6,0.3l-3.4,5l-1.4-4.8c-0.1-0.3-0.4-0.5-0.7-0.5h-2.4
			c-0.3,0-0.5,0.3-0.4,0.6l2.7,7.9l-2.5,3.6c-0.2,0.3,0,0.7,0.3,0.7h2.5c0.2,0,0.5-0.1,0.6-0.3l8.2-11.8
			C128.7,13.9,128.5,13.5,128.1,13.5z"/>
		<path class="st2" d="M136.3,8.8h-5.1c-0.3,0-0.6,0.3-0.7,0.6l-2.1,13.1c0,0.3,0.2,0.5,0.4,0.5h2.6c0.2,0,0.5-0.2,0.5-0.4l0.6-3.7
			c0.1-0.3,0.4-0.6,0.7-0.6h1.6c3.4,0,5.3-1.6,5.8-4.8c0.2-1.4,0-2.5-0.7-3.3C139.3,9.2,138,8.8,136.3,8.8z M136.9,13.6
			c-0.3,1.8-1.7,1.8-3,1.8h-0.8l0.5-3.4c0-0.2,0.2-0.4,0.4-0.4h0.4c0.9,0,1.8,0,2.2,0.5C136.9,12.4,137,12.9,136.9,13.6z"/>
		<path class="st2" d="M151.5,13.5h-2.4c-0.2,0-0.4,0.2-0.4,0.4l-0.1,0.7l-0.2-0.2c-0.5-0.8-1.7-1-2.9-1c-2.7,0-5,2-5.5,4.9
			c-0.2,1.4,0.1,2.8,0.9,3.8c0.7,0.9,1.8,1.2,3.1,1.2c2.2,0,3.4-1.4,3.4-1.4l-0.1,0.7c0,0.3,0.2,0.5,0.4,0.5h2.2
			c0.3,0,0.6-0.3,0.7-0.6l1.3-8.4C152,13.7,151.8,13.5,151.5,13.5z M148.1,18.3c-0.2,1.4-1.3,2.3-2.8,2.3c-0.7,0-1.3-0.2-1.6-0.7
			c-0.4-0.4-0.5-1-0.4-1.7c0.2-1.4,1.3-2.4,2.7-2.4c0.7,0,1.3,0.2,1.6,0.7C148.1,17,148.2,17.6,148.1,18.3z"/>
		<path class="st2" d="M154.4,9.1l-2.1,13.3c0,0.3,0.2,0.5,0.4,0.5h2.1c0.3,0,0.6-0.3,0.7-0.6l2.1-13.1c0-0.3-0.2-0.5-0.4-0.5h-2.4
			C154.6,8.8,154.4,8.9,154.4,9.1z"/>
		<path class="st1" d="M70.8,25.5l0.4-2.5l-0.9,0h-4.1l2.9-18.3c0-0.1,0-0.1,0.1-0.1c0,0,0.1-0.1,0.2-0.1h7c2.3,0,3.9,0.5,4.8,1.4
			c0.4,0.4,0.6,0.9,0.8,1.4c0.1,0.5,0.1,1.2,0,2l0,0.1v0.5l0.4,0.2c0.3,0.2,0.6,0.4,0.8,0.6c0.3,0.4,0.6,0.9,0.6,1.4
			c0.1,0.6,0.1,1.3-0.1,2.1c-0.2,0.9-0.5,1.7-0.9,2.4c-0.4,0.6-0.8,1.1-1.4,1.5c-0.5,0.4-1.1,0.6-1.8,0.8c-0.7,0.2-1.4,0.3-2.3,0.3
			h-0.5c-0.4,0-0.8,0.1-1.1,0.4c-0.3,0.3-0.5,0.6-0.6,1l0,0.2l-0.7,4.4l0,0.2c0,0.1,0,0.1,0,0.1c0,0,0,0-0.1,0
			C74.2,25.5,70.8,25.5,70.8,25.5z"/>
		<path class="st2" d="M82.6,9.5L82.6,9.5L82.6,9.5c0,0.1,0,0.3-0.1,0.4c-0.9,4.7-4.1,6.4-8.1,6.4h-2.1c-0.5,0-0.9,0.4-1,0.8l0,0
			l0,0l-1.1,6.7L70,25.6c0,0.3,0.2,0.6,0.5,0.6h3.6c0.4,0,0.8-0.3,0.9-0.7l0-0.2l0.7-4.4l0-0.2c0.1-0.4,0.4-0.7,0.9-0.7h0.5
			c3.5,0,6.3-1.4,7.1-5.6c0.3-1.7,0.2-3.2-0.7-4.2C83.3,9.9,83,9.7,82.6,9.5z"/>
		<path class="st3" d="M81.6,9.1C81.5,9,81.3,9,81.2,9c-0.1,0-0.3-0.1-0.5-0.1c-0.6-0.1-1.2-0.1-1.8-0.1h-5.5c-0.1,0-0.3,0-0.4,0.1
			c-0.3,0.1-0.4,0.4-0.5,0.7l-1.2,7.4l0,0.2c0.1-0.5,0.5-0.8,1-0.8h2.1c4,0,7.2-1.6,8.1-6.4c0-0.1,0.1-0.3,0.1-0.4
			c-0.2-0.1-0.5-0.2-0.8-0.3C81.8,9.1,81.7,9.1,81.6,9.1z"/>
		<path class="st1" d="M72.6,9.5c0-0.3,0.2-0.5,0.5-0.7c0.1-0.1,0.2-0.1,0.4-0.1h5.5c0.6,0,1.3,0,1.8,0.1c0.2,0,0.3,0.1,0.5,0.1
			c0.1,0,0.3,0.1,0.4,0.1c0.1,0,0.1,0,0.2,0.1c0.3,0.1,0.5,0.2,0.8,0.3c0.3-1.8,0-2.9-0.9-4c-1-1.2-2.9-1.7-5.3-1.7h-7
			c-0.5,0-0.9,0.4-1,0.8l-2.9,18.5c-0.1,0.4,0.2,0.7,0.6,0.7h4.3l1.1-6.9L72.6,9.5z"/>
	</g>
</g>
</svg>
